<?xml version="1.0" encoding="UTF-8"?>
<svg version="1.1" xmlns="http://www.w3.org/2000/svg" width="512" height="512">
<path d="M0 0 C1.01803711 0.19335938 2.03607422 0.38671875 3.08496094 0.5859375 C44.65512989 8.75623458 83.01409456 26.47977038 116 53 C116.55961426 53.4424707 117.11922852 53.88494141 117.69580078 54.34082031 C132.60821322 66.16995976 146.52884669 79.91554741 157.75390625 95.30517578 C159.04941202 97.06720577 160.38024064 98.79780385 161.71875 100.52734375 C172.67531657 114.84153676 181.40275843 130.68015227 189 147 C189.28794434 147.60827637 189.57588867 148.21655273 189.87255859 148.84326172 C199.7441497 170.01914497 205.7197688 193.94479443 209 217 C209.11424316 217.72815918 209.22848633 218.45631836 209.34619141 219.20654297 C217.05464436 269.10021846 207.0033282 321.99493779 185 367 C184.65388672 367.71671875 184.30777344 368.4334375 183.95117188 369.171875 C172.58465533 392.465685 156.95069005 413.39813619 139 432 C138.43345703 432.58845703 137.86691406 433.17691406 137.28320312 433.78320312 C129.92029855 441.39018189 122.43211413 448.56737093 114 455 C113.45827148 455.41813965 112.91654297 455.8362793 112.35839844 456.26708984 C77.71327806 482.8970043 37.95586728 499.50177637 -5 507 C-6.58180054 507.28254639 -6.58180054 507.28254639 -8.19555664 507.57080078 C-20.35242285 509.47725909 -32.53424215 509.39701979 -44.8125 509.375 C-45.94861725 509.37445618 -47.0847345 509.37391235 -48.25527954 509.37335205 C-64.85896456 509.33674878 -80.76659334 508.77381778 -97 505 C-98.00337402 504.78037598 -99.00674805 504.56075195 -100.04052734 504.33447266 C-141.55848487 495.17524175 -180.46421808 476.59411257 -212.42602539 448.38525391 C-213.56756925 447.38058199 -214.71613537 446.383871 -215.86889648 445.39208984 C-227.20258926 435.60734887 -237.95459176 424.94989712 -247 413 C-247.62285889 412.19175781 -247.62285889 412.19175781 -248.25830078 411.3671875 C-264.72700345 389.94526584 -277.65595173 366.33137338 -287 341 C-287.27295898 340.27554687 -287.54591797 339.55109375 -287.82714844 338.8046875 C-291.42812802 329.15459635 -293.98819014 319.3576782 -296.25 309.3125 C-296.49637207 308.2205835 -296.74274414 307.12866699 -296.99658203 306.00366211 C-300.49770898 289.82274542 -301.37284355 274.30954725 -301.37060547 257.7980957 C-301.37494494 254.23273698 -301.4112734 250.66865384 -301.44921875 247.10351562 C-301.55073347 226.57369189 -299.3930041 206.33945341 -293.6875 186.5625 C-293.38610107 185.48943604 -293.08470215 184.41637207 -292.77416992 183.31079102 C-281.91052906 145.42797781 -262.87614855 110.59564628 -236.2734375 81.49609375 C-234.78180459 79.85837308 -233.30709219 78.20504577 -231.8515625 76.53515625 C-195.57903724 35.09019508 -142.40572282 10.02555713 -89 0 C-87.71971924 -0.24991699 -87.71971924 -0.24991699 -86.41357422 -0.50488281 C-58.9377261 -5.6656196 -27.41387749 -5.2855258 0 0 Z " fill="#F5AC37" transform="translate(301,3)"/>
<path d="M0 0 C1.01803711 0.19335938 2.03607422 0.38671875 3.08496094 0.5859375 C44.65512989 8.75623458 83.01409456 26.47977038 116 53 C116.55961426 53.4424707 117.11922852 53.88494141 117.69580078 54.34082031 C132.60821322 66.16995976 146.52884669 79.91554741 157.75390625 95.30517578 C159.04941202 97.06720577 160.38024064 98.79780385 161.71875 100.52734375 C172.67531657 114.84153676 181.40275843 130.68015227 189 147 C189.28794434 147.60827637 189.57588867 148.21655273 189.87255859 148.84326172 C199.7441497 170.01914497 205.7197688 193.94479443 209 217 C209.11424316 217.72815918 209.22848633 218.45631836 209.34619141 219.20654297 C217.05464436 269.10021846 207.0033282 321.99493779 185 367 C184.65388672 367.71671875 184.30777344 368.4334375 183.95117188 369.171875 C172.58465533 392.465685 156.95069005 413.39813619 139 432 C138.43345703 432.58845703 137.86691406 433.17691406 137.28320312 433.78320312 C129.92029855 441.39018189 122.43211413 448.56737093 114 455 C113.45827148 455.41813965 112.91654297 455.8362793 112.35839844 456.26708984 C77.71327806 482.8970043 37.95586728 499.50177637 -5 507 C-6.58180054 507.28254639 -6.58180054 507.28254639 -8.19555664 507.57080078 C-20.35242285 509.47725909 -32.53424215 509.39701979 -44.8125 509.375 C-45.94861725 509.37445618 -47.0847345 509.37391235 -48.25527954 509.37335205 C-64.85896456 509.33674878 -80.76659334 508.77381778 -97 505 C-98.00337402 504.78037598 -99.00674805 504.56075195 -100.04052734 504.33447266 C-141.55848487 495.17524175 -180.46421808 476.59411257 -212.42602539 448.38525391 C-213.56756925 447.38058199 -214.71613537 446.383871 -215.86889648 445.39208984 C-227.20258926 435.60734887 -237.95459176 424.94989712 -247 413 C-247.62285889 412.19175781 -247.62285889 412.19175781 -248.25830078 411.3671875 C-264.72700345 389.94526584 -277.65595173 366.33137338 -287 341 C-287.27295898 340.27554687 -287.54591797 339.55109375 -287.82714844 338.8046875 C-291.42812802 329.15459635 -293.98819014 319.3576782 -296.25 309.3125 C-296.49637207 308.2205835 -296.74274414 307.12866699 -296.99658203 306.00366211 C-300.49770898 289.82274542 -301.37284355 274.30954725 -301.37060547 257.7980957 C-301.37494494 254.23273698 -301.4112734 250.66865384 -301.44921875 247.10351562 C-301.55073347 226.57369189 -299.3930041 206.33945341 -293.6875 186.5625 C-293.38610107 185.48943604 -293.08470215 184.41637207 -292.77416992 183.31079102 C-281.91052906 145.42797781 -262.87614855 110.59564628 -236.2734375 81.49609375 C-234.78180459 79.85837308 -233.30709219 78.20504577 -231.8515625 76.53515625 C-195.57903724 35.09019508 -142.40572282 10.02555713 -89 0 C-87.71971924 -0.24991699 -87.71971924 -0.24991699 -86.41357422 -0.50488281 C-58.9377261 -5.6656196 -27.41387749 -5.2855258 0 0 Z M-104 53 C-104.8132373 53.22139648 -105.62647461 53.44279297 -106.46435547 53.67089844 C-157.04242186 67.91484076 -200.90872404 105.2034311 -226.62353516 150.49414062 C-242.3092909 179.05011738 -251.55508105 209.40728613 -253 242 C-253.04527832 243.01545898 -253.09055664 244.03091797 -253.13720703 245.07714844 C-254.01677145 268.69658133 -251.53318059 292.52830595 -244 315 C-243.73767578 315.81887695 -243.47535156 316.63775391 -243.20507812 317.48144531 C-236.01251369 339.76510627 -225.36058369 360.49010647 -211 379 C-210.23171875 379.99773437 -209.4634375 380.99546875 -208.671875 382.0234375 C-192.33300343 402.53518635 -172.91520135 420.10506591 -150 433 C-149.26749023 433.41604492 -148.53498047 433.83208984 -147.78027344 434.26074219 C-99.3531661 461.48261677 -43.07807831 468.3537479 10.53051758 453.74707031 C41.91544593 444.90233942 70.53791512 429.62837417 94.4765625 407.3359375 C96.64802889 405.32581845 98.8621479 403.40508892 101.125 401.5 C136.98848185 370.15590001 159.01305742 318.16217467 162.7890625 271.45556641 C164.41142403 244.87812991 162.30441426 219.66024002 155 194 C154.81211914 193.33838867 154.62423828 192.67677734 154.43066406 191.99511719 C145.97581589 163.01352534 129.9577024 136.45059822 110 114 C108.69675781 112.51306641 108.69675781 112.51306641 107.3671875 110.99609375 C102.53886171 105.56976431 97.58724719 100.63087155 92 96 C91.12988281 95.24203125 90.25976562 94.4840625 89.36328125 93.703125 C59.76583596 68.25485429 24.13306416 53.68146284 -14 47 C-15.08498779 46.79866455 -15.08498779 46.79866455 -16.19189453 46.59326172 C-45.38873876 41.27454375 -75.69747929 45.2824348 -104 53 Z " fill="#F6BF66" transform="translate(301,3)"/>
<path d="M0 0 C25.48246353 -0.16043524 25.48246353 -0.16043524 36.4453125 -0.1953125 C43.89074275 -0.21911272 51.335974 -0.24709732 58.78125 -0.30175781 C64.79188831 -0.34560351 70.80231286 -0.36921801 76.81309891 -0.37950897 C79.09252913 -0.38683144 81.37194927 -0.40112774 83.65128708 -0.42292023 C101.24786801 -0.58428379 117.1188968 1.13997744 133.625 7.625 C134.49833984 7.96563477 135.37167969 8.30626953 136.27148438 8.65722656 C163.68583675 19.78116575 182.49165202 41.14718805 194 68 C206.87 68.495 206.87 68.495 220 69 C220 76.92 220 84.84 220 93 C213.07 93 206.14 93 199 93 C199.33 101.58 199.66 110.16 200 119 C206.6 119.33 213.2 119.66 220 120 C220 127.59 220 135.18 220 143 C211.42 143.33 202.84 143.66 194 144 C192.535625 146.8875 191.07125 149.775 189.5625 152.75 C175.39508059 179.94588942 153.52691445 197.69381291 124.47265625 206.95703125 C123.32667969 207.30121094 122.18070313 207.64539063 121 208 C119.48212891 208.50080078 119.48212891 208.50080078 117.93359375 209.01171875 C104.44022433 212.70567003 90.61148562 212.26430631 76.7578125 212.1953125 C74.53579842 212.19157494 72.31378268 212.18873149 70.09176636 212.18673706 C64.28862835 212.17915904 58.48559301 212.15956166 52.68249512 212.1373291 C45.69552227 212.11311456 38.70851478 212.10406189 31.72151184 212.09242249 C21.14760351 212.0731331 10.57391972 212.03476992 0 212 C0 189.56 0 167.12 0 144 C-10.23 144 -20.46 144 -31 144 C-31 136.08 -31 128.16 -31 120 C-21.43 119.67 -11.86 119.34 -2 119 C-2 110.75 -2 102.5 -2 94 C-11.57 93.67 -21.14 93.34 -31 93 C-31 85.08 -31 77.16 -31 69 C-16.15 68.505 -16.15 68.505 -1 68 C-0.67 45.56 -0.34 23.12 0 0 Z " fill="#FDFDFB" transform="translate(176,150)"/>
<path d="M0 0 C1.01803711 0.19335938 2.03607422 0.38671875 3.08496094 0.5859375 C44.65512989 8.75623458 83.01409456 26.47977038 116 53 C116.55961426 53.4424707 117.11922852 53.88494141 117.69580078 54.34082031 C132.60821322 66.16995976 146.52884669 79.91554741 157.75390625 95.30517578 C159.04941202 97.06720577 160.38024064 98.79780385 161.71875 100.52734375 C174.73060072 117.52666023 184.77500311 136.68074232 193.0625 156.375 C193.52994629 157.47352295 193.52994629 157.47352295 194.00683594 158.59423828 C194.73434665 160.37161201 195.37556523 162.18384736 196 164 C195 166 195 166 191.5546875 167.328125 C184.61910126 169.50905786 177.57017163 171.30998825 170.53222656 173.12646484 C168.10779326 173.754457 165.68678898 174.39469096 163.265625 175.03515625 C161.72154937 175.43564918 160.17728503 175.83541542 158.6328125 176.234375 C157.91094757 176.42698914 157.18908264 176.61960327 156.44534302 176.8180542 C151.3429149 178.11430497 151.3429149 178.11430497 148 177 C146.67003358 174.32502229 145.50189117 171.69676143 144.375 168.9375 C135.65818373 148.55710998 123.67169799 130.56833651 109 114 C108.20464844 113.0821875 107.40929687 112.164375 106.58984375 111.21875 C102.03604669 106.03226416 97.30148408 101.40850361 92 97 C91.12859375 96.24074219 90.2571875 95.48148437 89.359375 94.69921875 C59.7598686 69.25472328 24.13286929 54.6814287 -14 48 C-15.08498779 47.79866455 -15.08498779 47.79866455 -16.19189453 47.59326172 C-45.38873876 42.27454375 -75.69747929 46.2824348 -104 54 C-105.21985596 54.33209473 -105.21985596 54.33209473 -106.46435547 54.67089844 C-156.69499324 68.8169969 -200.08006309 105.50520533 -225.62353516 150.49414062 C-248.16679627 191.53423146 -255.42801084 235.55457112 -251 282 C-252.04003174 282.27880005 -252.04003174 282.27880005 -253.10107422 282.56323242 C-256.35927074 283.43716594 -259.61716229 284.31222985 -262.875 285.1875 C-264.05199463 285.50340088 -265.22898926 285.81930176 -266.44165039 286.14477539 C-271.84444588 287.59819985 -277.2441768 289.05897771 -282.62890625 290.578125 C-283.45084473 290.80991455 -284.2727832 291.0417041 -285.11962891 291.28051758 C-286.63200637 291.70918913 -288.14345176 292.14116685 -289.65380859 292.5769043 C-292.5414838 293.39555362 -294.98078517 294 -298 294 C-300.42453502 279.02088554 -301.53763296 264.417525 -301.4375 249.25 C-301.43412628 248.24908325 -301.43075256 247.2481665 -301.42727661 246.21691895 C-301.35080288 230.49742374 -300.60068727 215.36377757 -297 200 C-296.74798828 198.91928223 -296.49597656 197.83856445 -296.23632812 196.72509766 C-285.9227146 153.7578912 -266.15986335 114.18755956 -236.2734375 81.49609375 C-234.78180459 79.85837308 -233.30709219 78.20504577 -231.8515625 76.53515625 C-195.57903724 35.09019508 -142.40572282 10.02555713 -89 0 C-87.71971924 -0.24991699 -87.71971924 -0.24991699 -86.41357422 -0.50488281 C-58.9377261 -5.6656196 -27.41387749 -5.2855258 0 0 Z " fill="#F9D293" transform="translate(301,3)"/>
<path d="M0 0 C0.72053558 -0.0049649 1.44107117 -0.00992981 2.18344116 -0.01504517 C4.58291568 -0.02972212 6.98232377 -0.03648322 9.38183594 -0.04199219 C11.05320233 -0.04774575 12.7245687 -0.05350346 14.39593506 -0.05926514 C17.9133739 -0.06979531 21.43078979 -0.07562257 24.94824219 -0.07910156 C29.42323273 -0.08454485 33.89791257 -0.10847363 38.37280655 -0.13707352 C41.83385038 -0.15585502 45.29482233 -0.16091399 48.75591278 -0.16243744 C50.40309063 -0.16543732 52.05026803 -0.17337409 53.69739532 -0.18662262 C63.59930755 -0.26048225 72.52095275 0.36830933 82.11621094 3.16113281 C82.81245071 3.35843994 83.50869049 3.55574707 84.22602844 3.7590332 C104.45538869 9.85731425 121.17395535 22.87884367 132.08496094 40.89941406 C133.11621094 43.16113281 133.11621094 43.16113281 133.11621094 47.16113281 C86.58621094 47.16113281 40.05621094 47.16113281 -7.88378906 47.16113281 C-7.88378906 0.04113281 -7.88378906 0.04113281 0 0 Z " fill="#F5AC37" transform="translate(207.8837890625,171.8388671875)"/>
<path d="M0 0 C46.86 0 93.72 0 142 0 C139.4456051 12.7719745 127.26354959 24.03490769 116.8671875 31.19140625 C98.21698787 42.95576923 78.35698623 46.34227409 56.640625 46.1953125 C54.99867934 46.1915733 53.35673142 46.18873063 51.71478271 46.18673706 C47.43393582 46.17917187 43.15322887 46.15958625 38.87243652 46.1373291 C33.71436453 46.11307898 28.55624524 46.10405575 23.39813232 46.09242249 C15.59865814 46.07315632 7.79948982 46.03478464 0 46 C0 30.82 0 15.64 0 0 Z " fill="#F5AC37" transform="translate(200,295)"/>
<path d="M0 0 C19.40991453 -0.02311759 38.81982519 -0.0409785 58.22975063 -0.05181217 C67.24146937 -0.05697542 76.25317942 -0.06401866 85.26489258 -0.07543945 C93.1165955 -0.08538541 100.96829214 -0.09185322 108.82000118 -0.09408849 C112.98003452 -0.09539575 117.14004985 -0.09848255 121.30007744 -0.10573006 C125.21108412 -0.11248889 129.12206527 -0.11461724 133.03307724 -0.11310768 C134.47267228 -0.11338407 135.91226813 -0.11539001 137.35185814 -0.11920547 C139.30894233 -0.12414051 141.26604004 -0.12239807 143.22312927 -0.12025452 C144.32098472 -0.12117631 145.41884016 -0.1220981 146.54996395 -0.12304783 C149 0 149 0 150 1 C150.09959621 2.84159023 150.13080411 4.68696967 150.1328125 6.53125 C150.13410156 7.65144531 150.13539063 8.77164063 150.13671875 9.92578125 C150.13285156 11.10527344 150.12898437 12.28476563 150.125 13.5 C150.12886719 14.67949219 150.13273438 15.85898437 150.13671875 17.07421875 C150.13478516 18.75451172 150.13478516 18.75451172 150.1328125 20.46875 C150.13168457 21.50451172 150.13055664 22.54027344 150.12939453 23.60742188 C150 26 150 26 149 27 C147.07638373 27.09660952 145.14916934 27.12187168 143.22312927 27.12025452 C141.96804565 27.12162918 140.71296204 27.12300385 139.41984558 27.12442017 C138.01614356 27.12088055 136.61244178 27.11724574 135.20874023 27.11352539 C133.74063112 27.11324353 132.27252187 27.11340124 130.80441284 27.1139679 C126.80665343 27.1142559 122.80892376 27.10835874 118.81117129 27.10139394 C114.63779267 27.09516085 110.46441344 27.09455664 106.29103088 27.09336853 C98.38267208 27.09025508 90.47432703 27.08204151 82.5659743 27.07201904 C73.56491506 27.06085832 64.56385518 27.05534756 55.56279075 27.05032361 C37.04185248 27.03985891 18.52092784 27.02205879 0 27 C0 18.09 0 9.18 0 0 Z " fill="#F5AD3B" transform="translate(200,243)"/>
<path d="M0 0 C10.4054534 10.4054534 11.74285098 37.02106571 14 51 C14.13277344 51.80228027 14.26554688 52.60456055 14.40234375 53.43115234 C22.23513454 103.1231692 11.89537696 156.21573858 -10 201 C-10.34611328 201.71671875 -10.69222656 202.4334375 -11.04882812 203.171875 C-22.41534467 226.465685 -38.04930995 247.39813619 -56 266 C-56.56654297 266.58845703 -57.13308594 267.17691406 -57.71679688 267.78320312 C-65.07970145 275.39018189 -72.56788587 282.56737093 -81 289 C-81.81259277 289.62720947 -81.81259277 289.62720947 -82.64160156 290.26708984 C-105.0035753 307.45558396 -129.51639568 320.41560063 -156 330 C-157.27375488 330.47203857 -157.27375488 330.47203857 -158.57324219 330.95361328 C-159.77062012 331.3806958 -159.77062012 331.3806958 -160.9921875 331.81640625 C-161.69456543 332.0697876 -162.39694336 332.32316895 -163.12060547 332.58422852 C-165 333 -165 333 -168 332 C-167.30253662 331.75467529 -166.60507324 331.50935059 -165.88647461 331.2565918 C-134.46195312 320.12187834 -105.96678595 306.15981977 -80 285 C-79.38044434 284.4961377 -78.76088867 283.99227539 -78.12255859 283.47314453 C-65.49021596 273.11307276 -54.08253695 261.87245086 -44 249 C-43.14389007 247.95541935 -42.28572821 246.91251786 -41.42578125 245.87109375 C-23.59818248 224.07573782 -10.4882314 198.85959415 -0.90039062 172.47412109 C-0.13686563 170.3760836 0.6521936 168.29093608 1.453125 166.20703125 C4.42496514 158.03447088 6.32248302 149.67115599 8.1875 141.1875 C8.43781982 140.06126221 8.68813965 138.93502441 8.94604492 137.7746582 C12.24421937 122.15378123 13.33656125 106.73297049 13.26074219 90.79638672 C13.25003441 88.13355613 13.26070849 85.471404 13.2734375 82.80859375 C13.28786065 66.7267786 12.22162948 50.73739478 8.75 35 C8.53964111 34.01233643 8.32928223 33.02467285 8.11254883 32.00708008 C6.23422121 23.47090439 3.79123923 15.14706482 1.13671875 6.82421875 C0 3 0 3 0 0 Z " fill="#F5AE3A" transform="translate(496,169)"/>
<path d="M0 0 C0.66 0.33 1.32 0.66 2 1 C-3.68130046 7.58771876 -9.68939326 13.82477617 -15.8125 20 C-16.55363037 20.754021 -17.29476074 21.50804199 -18.05834961 22.28491211 C-19.12194702 23.35044312 -19.12194702 23.35044312 -20.20703125 24.4375 C-20.8410083 25.07558594 -21.47498535 25.71367188 -22.12817383 26.37109375 C-23.99773207 27.9980264 -25.74110603 29.00397197 -28 30 C-26.59907574 26.8681386 -24.93336336 24.62981049 -22.5859375 22.13671875 C-21.90660156 21.41419922 -21.22726563 20.69167969 -20.52734375 19.94726562 C-19.46193359 18.82868164 -19.46193359 18.82868164 -18.375 17.6875 C-17.68792969 16.95337891 -17.00085938 16.21925781 -16.29296875 15.46289062 C-12.26605685 11.20554568 -8.11314991 7.22049548 -3.65087891 3.42114258 C-2.38692484 2.33308037 -1.179292 1.179292 0 0 Z " fill="#F8C468" transform="translate(88,61)"/>
<path d="M0 0 C5.66129431 4.69766975 10.85228904 9.74723372 16 15 C15.34 15.66 14.68 16.32 14 17 C11.65453302 14.74141867 9.32587973 12.46623352 7 10.1875 C6.33226562 9.54490234 5.66453125 8.90230469 4.9765625 8.24023438 C4.34492188 7.61826172 3.71328125 6.99628906 3.0625 6.35546875 C2.47597656 5.78465576 1.88945312 5.21384277 1.28515625 4.62573242 C0 3 0 3 0 0 Z " fill="#FADAA7" transform="translate(427,65)"/>
<path d="M0 0 C3.0916909 2.52956528 3.90931332 5.22454612 5 9 C2 8 2 8 0.8125 6.1875 C0 4 0 4 0 0 Z " fill="#FBDEB1" transform="translate(477,127)"/>
</svg>
