<?xml version="1.0" encoding="UTF-8"?>
<svg version="1.1" xmlns="http://www.w3.org/2000/svg" width="512" height="512">
<path d="M0 0 C1.01803711 0.19335938 2.03607422 0.38671875 3.08496094 0.5859375 C63.66364931 12.49221292 122.43526962 46.50778963 159 97 C159.48130371 97.65291016 159.96260742 98.30582031 160.45849609 98.97851562 C177.9035356 122.68630752 191.82509092 148.63721331 200 177 C200.39759521 178.35593262 200.39759521 178.35593262 200.80322266 179.73925781 C207.65834998 203.43262736 211.22813436 227.46055987 211.25 252.125 C211.25101212 253.16563599 211.25101212 253.16563599 211.25204468 254.22729492 C211.23105428 267.9703155 210.1663781 281.41687505 208 295 C207.77449463 296.44270264 207.77449463 296.44270264 207.54443359 297.91455078 C197.61481841 358.53366571 163.51691596 416.24947832 115 454 C113.56140625 455.16402344 113.56140625 455.16402344 112.09375 456.3515625 C78.15736734 483.34641235 37.49756836 499.5817754 -5 507 C-6.58180054 507.28254639 -6.58180054 507.28254639 -8.19555664 507.57080078 C-20.35242285 509.47725909 -32.53424215 509.39701979 -44.8125 509.375 C-45.94861725 509.37445618 -47.0847345 509.37391235 -48.25527954 509.37335205 C-64.85896456 509.33674878 -80.76659334 508.77381778 -97 505 C-98.00337402 504.78037598 -99.00674805 504.56075195 -100.04052734 504.33447266 C-141.55848487 495.17524175 -180.46421808 476.59411257 -212.42602539 448.38525391 C-213.56756925 447.38058199 -214.71613537 446.383871 -215.86889648 445.39208984 C-227.20258926 435.60734887 -237.95459176 424.94989712 -247 413 C-247.62285889 412.19175781 -247.62285889 412.19175781 -248.25830078 411.3671875 C-275.88727926 375.42836314 -293.30370507 333.79180938 -300 289 C-300.1757959 287.82598633 -300.3515918 286.65197266 -300.53271484 285.44238281 C-301.19585341 280.00764415 -301.20088265 274.57042638 -301.23828125 269.1015625 C-301.246353 267.95376312 -301.25442474 266.80596375 -301.26274109 265.62338257 C-301.27653681 263.19099411 -301.28727902 260.75858667 -301.29516602 258.32617188 C-301.30657136 255.89089088 -301.32683592 253.45563253 -301.35668945 251.02050781 C-301.62449564 229.11126846 -299.78294898 207.69111694 -293.6875 186.5625 C-293.38610107 185.48943604 -293.08470215 184.41637207 -292.77416992 183.31079102 C-281.8862389 145.34327512 -262.79873011 110.50719223 -236.1328125 81.35546875 C-234.30504283 79.33688796 -232.55653806 77.27771647 -230.8125 75.1875 C-195.09165627 34.36367859 -141.4357745 9.84347417 -89 0 C-87.71971924 -0.24991699 -87.71971924 -0.24991699 -86.41357422 -0.50488281 C-58.9377261 -5.6656196 -27.41387749 -5.2855258 0 0 Z " fill="#6E7CCA" transform="translate(301,3)"/>
<path d="M0 0 C1.01803711 0.19335938 2.03607422 0.38671875 3.08496094 0.5859375 C63.66364931 12.49221292 122.43526962 46.50778963 159 97 C159.48130371 97.65291016 159.96260742 98.30582031 160.45849609 98.97851562 C177.9035356 122.68630752 191.82509092 148.63721331 200 177 C200.39759521 178.35593262 200.39759521 178.35593262 200.80322266 179.73925781 C207.65834998 203.43262736 211.22813436 227.46055987 211.25 252.125 C211.25101212 253.16563599 211.25101212 253.16563599 211.25204468 254.22729492 C211.23105428 267.9703155 210.1663781 281.41687505 208 295 C207.77449463 296.44270264 207.77449463 296.44270264 207.54443359 297.91455078 C197.61481841 358.53366571 163.51691596 416.24947832 115 454 C113.56140625 455.16402344 113.56140625 455.16402344 112.09375 456.3515625 C78.15736734 483.34641235 37.49756836 499.5817754 -5 507 C-6.58180054 507.28254639 -6.58180054 507.28254639 -8.19555664 507.57080078 C-20.35242285 509.47725909 -32.53424215 509.39701979 -44.8125 509.375 C-45.94861725 509.37445618 -47.0847345 509.37391235 -48.25527954 509.37335205 C-64.85896456 509.33674878 -80.76659334 508.77381778 -97 505 C-98.00337402 504.78037598 -99.00674805 504.56075195 -100.04052734 504.33447266 C-141.55848487 495.17524175 -180.46421808 476.59411257 -212.42602539 448.38525391 C-213.56756925 447.38058199 -214.71613537 446.383871 -215.86889648 445.39208984 C-227.20258926 435.60734887 -237.95459176 424.94989712 -247 413 C-247.62285889 412.19175781 -247.62285889 412.19175781 -248.25830078 411.3671875 C-275.88727926 375.42836314 -293.30370507 333.79180938 -300 289 C-300.1757959 287.82598633 -300.3515918 286.65197266 -300.53271484 285.44238281 C-301.19585341 280.00764415 -301.20088265 274.57042638 -301.23828125 269.1015625 C-301.246353 267.95376312 -301.25442474 266.80596375 -301.26274109 265.62338257 C-301.27653681 263.19099411 -301.28727902 260.75858667 -301.29516602 258.32617188 C-301.30657136 255.89089088 -301.32683592 253.45563253 -301.35668945 251.02050781 C-301.62449564 229.11126846 -299.78294898 207.69111694 -293.6875 186.5625 C-293.38610107 185.48943604 -293.08470215 184.41637207 -292.77416992 183.31079102 C-281.8862389 145.34327512 -262.79873011 110.50719223 -236.1328125 81.35546875 C-234.30504283 79.33688796 -232.55653806 77.27771647 -230.8125 75.1875 C-195.09165627 34.36367859 -141.4357745 9.84347417 -89 0 C-87.71971924 -0.24991699 -87.71971924 -0.24991699 -86.41357422 -0.50488281 C-58.9377261 -5.6656196 -27.41387749 -5.2855258 0 0 Z M-177 92 C-177.82612793 92.69295166 -177.82612793 92.69295166 -178.66894531 93.39990234 C-189.21006289 102.25250487 -198.41052107 111.19251418 -207 122 C-207.78375 122.95519531 -208.5675 123.91039063 -209.375 124.89453125 C-226.41533655 146.1676437 -238.30082135 170.95771561 -246 197 C-246.20850586 197.68835938 -246.41701172 198.37671875 -246.63183594 199.0859375 C-261.99547519 250.69532938 -252.08313363 307.48014214 -227.35302734 354.33422852 C-209.68836371 386.69116555 -182.11182935 414.92990248 -150 433 C-149.26749023 433.41604492 -148.53498047 433.83208984 -147.78027344 434.26074219 C-125.99403562 446.50723524 -103.53341971 454.32313136 -79 459 C-77.87996582 459.21825439 -77.87996582 459.21825439 -76.73730469 459.44091797 C-26.73200985 468.65628434 29.49830996 454.65489061 71.03125 426.12890625 C79.36552847 420.15235129 87.31482251 413.9135831 94.859375 406.953125 C96.59341258 405.37097392 98.34699382 403.89053119 100.1875 402.4375 C103.85832949 399.25611445 106.86984412 395.70471604 110 392 C110.84949219 391.02675781 111.69898438 390.05351562 112.57421875 389.05078125 C149.88734036 346.10971795 165.86033623 291.66427463 162.58642578 235.37353516 C159.24283144 187.95318209 137.96386208 142.96751916 105 109 C104.14317627 108.10450439 104.14317627 108.10450439 103.26904297 107.19091797 C95.06448652 98.63713858 86.76889671 90.76976935 77 84 C76.36900391 83.56236328 75.73800781 83.12472656 75.08789062 82.67382812 C57.34257423 70.51595829 39.1210466 61.76048312 18.72753906 54.91992188 C17.05649422 54.35632566 15.39029158 53.77776246 13.73339844 53.17382812 C7.13638672 50.81062924 0.38607744 49.60222172 -6.5 48.375 C-7.67175781 48.1584375 -8.84351563 47.941875 -10.05078125 47.71875 C-68.81469334 37.03440235 -131.33239189 53.39510005 -177 92 Z " fill="#909AD6" transform="translate(301,3)"/>
<path d="M0 0 C1.01803711 0.19335938 2.03607422 0.38671875 3.08496094 0.5859375 C63.66364931 12.49221292 122.43526962 46.50778963 159 97 C159.48130371 97.65291016 159.96260742 98.30582031 160.45849609 98.97851562 C170.95860767 113.24815715 179.69833314 128.0006183 187.4375 143.9375 C188.20030273 145.50081055 188.20030273 145.50081055 188.97851562 147.09570312 C191.92086939 153.27662076 194.26900616 159.37415554 196 166 C189.65568464 168.30702377 183.24125239 169.93967893 176.66894531 171.44165039 C170.48919848 172.86060804 164.37991572 174.47700238 158.26953125 176.16796875 C155.18840429 176.95205482 152.14247178 177.52791395 149 178 C148.43345703 176.72382813 148.43345703 176.72382813 147.85546875 175.421875 C132.07638717 140.4435185 109.09724663 106.96417248 77 85 C76.37335449 84.56671387 75.74670898 84.13342773 75.10107422 83.68701172 C57.35136829 71.52206396 39.12859119 62.76301379 18.72753906 55.91992188 C17.05649422 55.35632566 15.39029158 54.77776246 13.73339844 54.17382812 C7.13638672 51.81062924 0.38607744 50.60222172 -6.5 49.375 C-7.67175781 49.1584375 -8.84351563 48.941875 -10.05078125 48.71875 C-62.67522002 39.15067022 -118.02501396 51.29047649 -162.13208008 81.49609375 C-167.27619853 85.11406313 -172.19210216 88.94971031 -177 93 C-178.08830069 93.89091945 -179.17685956 94.78152357 -180.265625 95.671875 C-211.89592739 121.82405758 -233.42625441 157.85208723 -245 197 C-245.20850586 197.68835938 -245.41701172 198.37671875 -245.63183594 199.0859375 C-251.03882861 217.24905622 -252.27550701 235.964347 -252.25 254.8125 C-252.24897278 255.90023712 -252.24897278 255.90023712 -252.2479248 257.00994873 C-252.22180389 265.38122749 -251.95122577 273.67677448 -251 282 C-257.30071237 284.22899861 -263.61189217 285.95347776 -270.125 287.4375 C-277.88450932 289.23958876 -285.58405424 291.17788603 -293.26171875 293.30078125 C-296 294 -296 294 -298 294 C-307.42280763 224.08911611 -294.0638844 156.11108228 -251 99 C-246.31561888 92.86214735 -241.34345454 87.05184861 -236.1328125 81.35546875 C-234.30504283 79.33688796 -232.55653806 77.27771647 -230.8125 75.1875 C-195.09165627 34.36367859 -141.4357745 9.84347417 -89 0 C-87.71971924 -0.24991699 -87.71971924 -0.24991699 -86.41357422 -0.50488281 C-58.9377261 -5.6656196 -27.41387749 -5.2855258 0 0 Z " fill="#B1B8E2" transform="translate(301,3)"/>
<path d="M0 0 C2.88213645 3.45516509 5.26424113 6.95238033 7.51171875 10.84765625 C7.99936958 11.68753082 7.99936958 11.68753082 8.49687195 12.54437256 C9.19727166 13.75094097 9.89599827 14.95848188 10.59320068 16.16690063 C12.48572204 19.44521967 14.39292187 22.71496493 16.30078125 25.984375 C16.69269653 26.65624344 17.08461182 27.32811188 17.48840332 28.02033997 C21.37331145 34.66542234 25.36346998 41.24315305 29.375 47.8125 C35.49090448 57.83180993 41.52198348 67.89782071 47.5 78 C53.44033978 88.03714137 59.42982231 98.04083665 65.5 108 C71.46174116 117.79200532 77.38998615 127.6033222 83.26318359 137.44873047 C84.125086 138.89236032 84.98851552 140.33507958 85.85351562 141.77685547 C87.05378447 143.77839244 88.24835384 145.78321803 89.44140625 147.7890625 C89.80299332 148.38973541 90.16458038 148.99040833 90.53712463 149.60928345 C93 153.77134246 93 153.77134246 93 156 C92.29093506 156.40726318 91.58187012 156.81452637 90.85131836 157.23413086 C74.12652461 166.82087996 74.12652461 166.82087996 57.546875 176.6550293 C49.38040628 181.59350486 41.1482608 186.42160123 32.92871094 191.27099609 C29.93313668 193.03947366 26.93901873 194.8103935 23.9453125 196.58203125 C22.95990479 197.16500977 21.97449707 197.74798828 20.95922852 198.34863281 C19.07929706 199.46090579 17.19956509 200.57351603 15.32006836 201.68652344 C13.63871483 202.68089099 11.95424594 203.67001737 10.26611328 204.65283203 C8.82230091 205.51115531 7.39595608 206.40009633 5.99560547 207.32763672 C4.18359375 208.49609375 4.18359375 208.49609375 1 210 C-2.7087647 208.8696661 -5.95072269 206.98480957 -9.296875 205.05078125 C-10.83855347 204.16156982 -10.83855347 204.16156982 -12.41137695 203.25439453 C-13.51312256 202.61356934 -14.61486816 201.97274414 -15.75 201.3125 C-16.91688267 200.63650742 -18.08379398 199.96056427 -19.25073242 199.28466797 C-28.00349227 194.20477906 -36.69073084 189.01881602 -45.35449219 183.78857422 C-51.11379154 180.31613547 -56.89167208 176.87920734 -62.69921875 173.48828125 C-63.67487541 172.9183847 -63.67487541 172.9183847 -64.67024231 172.3369751 C-67.83411154 170.4900999 -71.00020563 168.64716634 -74.16918945 166.80908203 C-80.59023659 163.07364754 -86.88860675 159.227047 -93 155 C-90.3102601 149.22278537 -87.2972539 143.75005733 -83.875 138.375 C-78.72113514 130.26960472 -73.82509068 122.01725076 -68.9375 113.75 C-62.80405057 103.38334716 -56.63610986 93.04011387 -50.375 82.75 C-50.02788971 82.17934814 -49.68077942 81.60869629 -49.32315063 81.02075195 C-46.53772222 76.44258514 -43.74812004 71.86696603 -40.95825195 67.29150391 C-38.51182874 63.27888846 -36.06740568 59.26506213 -33.625 55.25 C-33.28107208 54.68489716 -32.93714417 54.11979431 -32.58279419 53.53756714 C-28.3201803 46.52961698 -24.09766791 39.49914875 -19.91796875 32.44140625 C-19.27800964 31.36102585 -19.27800964 31.36102585 -18.62512207 30.25881958 C-16.55191628 26.75677878 -14.48253476 23.2525455 -12.41845703 19.74511719 C-8.46142287 13.03632468 -4.43667381 6.40708848 0 0 Z " fill="#FEFCFE" transform="translate(258,104)"/>
<path d="M0 0 C1.5947906 3.18958121 1.11193729 6.63588263 1.08229065 10.13699341 C1.07906152 10.98808115 1.07583239 11.83916889 1.07250541 12.71604717 C1.06038612 15.58434291 1.04102253 18.45254497 1.02172852 21.32080078 C1.01159041 23.37032871 1.00189623 25.41985888 0.99261475 27.46939087 C0.96608688 33.04763763 0.933317 38.62583262 0.89946485 44.2040391 C0.86516811 50.02833149 0.83655867 55.85265167 0.80735779 61.67697144 C0.75115945 72.7125445 0.68981234 83.74808277 0.62663645 94.78361785 C0.55497759 107.34446891 0.48902658 119.90534789 0.42356598 132.46623254 C0.2887492 158.31085791 0.14672879 184.15543971 0 210 C-1.75937403 209.04285289 -3.51844561 208.08514982 -5.27738953 207.12721252 C-6.74681267 206.32732076 -6.74681267 206.32732076 -8.24592113 205.51126957 C-11.4112027 203.77435718 -14.53202367 201.98208508 -17.64453125 200.15234375 C-18.21281647 199.81886429 -18.78110168 199.48538483 -19.36660767 199.14179993 C-21.18289452 198.07537314 -22.9977322 197.00650936 -24.8125 195.9375 C-26.09701644 195.18249782 -27.38160409 194.4276168 -28.66625977 193.67285156 C-38.01824583 188.17603214 -47.36149405 182.66432845 -56.6953125 177.13671875 C-60.43521085 174.9225814 -64.18082922 172.71846293 -67.9296875 170.51953125 C-69.40610718 169.65183105 -69.40610718 169.65183105 -70.91235352 168.76660156 C-72.7762027 167.67141953 -74.64118211 166.57815749 -76.50756836 165.48730469 C-82.13678288 162.1754368 -87.60567064 158.68207747 -93 155 C-90.3102601 149.22278537 -87.2972539 143.75005733 -83.875 138.375 C-78.72113514 130.26960472 -73.82509068 122.01725076 -68.9375 113.75 C-62.80405057 103.38334716 -56.63610986 93.04011387 -50.375 82.75 C-50.02788971 82.17934814 -49.68077942 81.60869629 -49.32315063 81.02075195 C-46.53772222 76.44258514 -43.74812004 71.86696603 -40.95825195 67.29150391 C-38.51182874 63.27888846 -36.06740568 59.26506213 -33.625 55.25 C-33.28107208 54.68489716 -32.93714417 54.11979431 -32.58279419 53.53756714 C-28.3201803 46.52961698 -24.09766791 39.49914875 -19.91796875 32.44140625 C-19.27800964 31.36102585 -19.27800964 31.36102585 -18.62512207 30.25881958 C-16.55191628 26.75677878 -14.48253476 23.2525455 -12.41845703 19.74511719 C-8.46142287 13.03632468 -4.43667381 6.40708848 0 0 Z " fill="#AFE6FE" transform="translate(258,104)"/>
<path d="M0 0 C3.87940166 1.4382302 7.32135383 3.2505784 10.8828125 5.3515625 C11.44591629 5.68249908 12.00902008 6.01343567 12.58918762 6.35440063 C14.43646501 7.44123453 16.28074238 8.533051 18.125 9.625 C19.42374803 10.39057347 20.72266006 11.1558688 22.02172852 11.92089844 C26.0174098 14.27566573 30.00895357 16.63738849 34 19 C35.21563449 19.7191145 36.43129132 20.43819125 37.64697266 21.15722656 C43.29332292 24.49752144 48.93684216 27.8425603 54.578125 31.19140625 C58.81405749 33.70545138 63.05350011 36.2133809 67.296875 38.71484375 C68.78973022 39.5951123 68.78973022 39.5951123 70.31274414 40.49316406 C72.1577843 41.58060174 74.00328479 42.66725897 75.84936523 43.75292969 C76.67637939 44.24051758 77.50339355 44.72810547 78.35546875 45.23046875 C79.53375244 45.91955322 79.53375244 45.91955322 80.73583984 46.62255859 C82.24316298 47.53956497 83.72401166 48.50158904 85.17431641 49.50634766 C85.8554248 49.97476074 86.5365332 50.44317383 87.23828125 50.92578125 C87.82262939 51.34899658 88.40697754 51.77221191 89.0090332 52.20825195 C91.99230693 53.39461084 93.92799894 52.81430282 97 52 C99.95343553 50.61291241 99.95343553 50.61291241 102.91015625 48.78125 C103.46637665 48.45163269 104.02259705 48.12201538 104.59567261 47.78240967 C106.42322026 46.69685702 108.24267577 45.59844206 110.0625 44.5 C111.35105388 43.73175694 112.64020881 42.96452119 113.92993164 42.19824219 C116.6134874 40.6028123 119.2943956 39.00306114 121.97363281 37.40039062 C127.66571165 34.00056901 133.39164091 30.65879525 139.11633301 27.31430054 C146.56740828 22.959849 154.01127284 18.59351847 161.4296875 14.18359375 C162.42750244 13.59094727 163.42531738 12.99830078 164.45336914 12.38769531 C166.28737647 11.29709442 168.12002155 10.20419756 169.95092773 9.10839844 C174.87546827 6.1800044 179.84317873 3.49829891 185 1 C183.37294581 6.08080112 180.32251251 9.95251515 177.1875 14.1875 C176.00510001 15.8046083 174.82281144 17.42179808 173.640625 19.0390625 C173.03541016 19.8630957 172.43019531 20.68712891 171.80664062 21.53613281 C168.99891992 25.36525678 166.21719784 29.21300778 163.4375 33.0625 C162.89955811 33.80653076 162.36161621 34.55056152 161.80737305 35.31713867 C157.667644 41.05151301 153.58360205 46.82366274 149.51708984 52.61010742 C145.91154885 57.73243368 142.24589608 62.80847134 138.5625 67.875 C134.07451931 74.05158761 129.71858153 80.30345079 125.4375 86.625 C120.98380007 93.19865311 116.36057131 99.59408059 111.5456543 105.90673828 C105.37860748 114.04670658 99.70038691 122.52990221 94 131 C89.84761475 127.11137788 86.65743276 122.92744934 83.4375 118.25 C82.37249103 116.72258987 81.30738415 115.195248 80.2421875 113.66796875 C79.43346191 112.50273682 79.43346191 112.50273682 78.60839844 111.31396484 C76.1093611 107.71865885 73.58714656 104.13984971 71.0625 100.5625 C70.56991699 99.86334473 70.07733398 99.16418945 69.56982422 98.44384766 C65.94313174 93.30632702 62.25947507 88.21207756 58.5625 83.125 C54.07463724 76.94832244 49.71859882 70.69654484 45.4375 64.375 C40.92769578 57.71882922 36.2440253 51.24086366 31.37646484 44.84277344 C27.4974296 39.72270253 23.8381295 34.47873507 20.23193359 29.1640625 C16.05526001 23.0264173 11.71090886 17.01642011 7.32641602 11.02587891 C4.70903292 7.43523628 2.19832841 3.86997397 0 0 Z " fill="#FDFBFE" transform="translate(165,277)"/>
<path d="M0 0 C0 32.01 0 64.02 0 97 C-12.37803429 90.24834493 -12.37803429 90.24834493 -17.64453125 87.15234375 C-18.21281647 86.81886429 -18.78110168 86.48538483 -19.36660767 86.14179993 C-21.18289452 85.07537314 -22.9977322 84.00650936 -24.8125 82.9375 C-26.09701644 82.18249782 -27.38160409 81.4276168 -28.66625977 80.67285156 C-38.01824583 75.17603214 -47.36149405 69.66432845 -56.6953125 64.13671875 C-60.43521085 61.9225814 -64.18082922 59.71846293 -67.9296875 57.51953125 C-68.91396729 56.94106445 -69.89824707 56.36259766 -70.91235352 55.76660156 C-72.7762027 54.67141953 -74.64118211 53.57815749 -76.50756836 52.48730469 C-82.13678288 49.1754368 -87.60567064 45.68207747 -93 42 C-89.76174129 39.84116086 -86.40494276 38.26076987 -82.87890625 36.6484375 C-82.15933243 36.317229 -81.43975861 35.98602051 -80.69837952 35.64477539 C-78.32108067 34.55193182 -75.94189183 33.46327834 -73.5625 32.375 C-72.74698669 32.00095032 -71.93147339 31.62690063 -71.09124756 31.24151611 C-57.19054562 24.86625569 -43.23758718 18.61228452 -29.24438477 12.44287109 C-27.84253758 11.82405879 -26.44076194 11.20508438 -25.0390625 10.5859375 C-24.37001389 10.2907724 -23.70096527 9.9956073 -23.01164246 9.6914978 C-17.51874092 7.25670859 -12.07647782 4.7189546 -6.6625061 2.1133728 C-2.21569255 0 -2.21569255 0 0 0 Z " fill="#C7F6F6" transform="translate(258,217)"/>
<path d="M0 0 C3.87940166 1.4382302 7.32135383 3.2505784 10.8828125 5.3515625 C11.44591629 5.68249908 12.00902008 6.01343567 12.58918762 6.35440063 C14.43646501 7.44123453 16.28074238 8.533051 18.125 9.625 C19.42374803 10.39057347 20.72266006 11.1558688 22.02172852 11.92089844 C26.0174098 14.27566573 30.00895357 16.63738849 34 19 C35.21563449 19.7191145 36.43129132 20.43819125 37.64697266 21.15722656 C46.48106438 26.38328152 55.30997909 31.61808637 64.13330078 36.86230469 C67.08789834 38.61817442 70.04385426 40.37173841 73 42.125 C73.85327881 42.63321289 74.70655762 43.14142578 75.58569336 43.66503906 C81.65681248 47.26282794 87.79386277 50.61483424 94 54 C93.67 79.08 93.34 104.16 93 130 C90.39144135 127.39144135 88.43400051 125.40458301 86.40625 122.48828125 C85.93968994 121.8219165 85.47312988 121.15555176 84.99243164 120.46899414 C84.4999292 119.75735107 84.00742676 119.04570801 83.5 118.3125 C82.4258494 116.77599402 81.35162872 115.23953703 80.27734375 113.703125 C79.73190918 112.92001953 79.18647461 112.13691406 78.62451172 111.33007812 C76.1161145 107.73222073 73.59069969 104.1464591 71.0625 100.5625 C70.56999756 99.86342529 70.07749512 99.16435059 69.57006836 98.4440918 C65.94319545 93.30656025 62.2595419 88.21216952 58.5625 83.125 C54.07463724 76.94832244 49.71859882 70.69654484 45.4375 64.375 C40.92769578 57.71882922 36.2440253 51.24086366 31.37646484 44.84277344 C27.4974296 39.72270253 23.8381295 34.47873507 20.23193359 29.1640625 C16.05526001 23.0264173 11.71090886 17.01642011 7.32641602 11.02587891 C4.70903292 7.43523628 2.19832841 3.86997397 0 0 Z " fill="#AFE5FE" transform="translate(165,277)"/>
<path d="M0 0 C0.33 0 0.66 0 1 0 C1.08040527 0.83136475 1.16081055 1.66272949 1.24365234 2.51928711 C1.54865404 5.64522815 1.85864703 8.77062532 2.171875 11.89575195 C2.37096347 13.89692612 2.56444626 15.89865544 2.7578125 17.90039062 C3.44700229 24.74059926 4.27444251 31.34634396 6 38 C6.2573291 39.04212646 6.5146582 40.08425293 6.77978516 41.15795898 C16.30190673 79.33320122 30.87281892 115.26065665 56 146 C56.68964844 146.88042969 57.37929688 147.76085937 58.08984375 148.66796875 C62.66375664 154.43433565 67.54950874 159.86439228 72.5625 165.25 C73.17569092 165.91169189 73.78888184 166.57338379 74.4206543 167.25512695 C78.70650775 171.80923864 83.23363215 175.95546938 88 180 C88.96164063 180.83144531 89.92328125 181.66289062 90.9140625 182.51953125 C118.40493994 205.77190165 149.95608011 221.59802349 184 233 C180.91186358 233.9950089 179.13615047 234.0051095 176.078125 232.953125 C175.31234131 232.69112305 174.54655762 232.42912109 173.75756836 232.15917969 C172.9300708 231.85915039 172.10257324 231.55912109 171.25 231.25 C170.37674072 230.93708008 169.50348145 230.62416016 168.60375977 230.30175781 C139.23294253 219.48787461 112.063136 204.11632294 88.57397461 183.38525391 C87.43243075 182.38058199 86.28386463 181.383871 85.13110352 180.39208984 C73.79741074 170.60734887 63.04540824 159.94989712 54 148 C53.58476074 147.46117187 53.16952148 146.92234375 52.74169922 146.3671875 C23.20227137 107.94331636 -0.65695536 56.88552259 -0.0625 7.5 C-0.05798828 6.77296875 -0.05347656 6.0459375 -0.04882812 5.296875 C-0.03721193 3.53121319 -0.01928441 1.7655947 0 0 Z " fill="#6F7CCC" transform="translate(0,268)"/>
<path d="M0 0 C0.66 0.33 1.32 0.66 2 1 C-0.80530847 3.8546576 -3.61707696 6.70277231 -6.43505859 9.54492188 C-7.39324956 10.51318538 -8.34963982 11.48323426 -9.30419922 12.45507812 C-10.6746382 13.8497097 -12.05206367 15.23746521 -13.4296875 16.625 C-14.25710449 17.46289062 -15.08452148 18.30078125 -15.93701172 19.1640625 C-18 21 -18 21 -20 21 C-16.79545442 13.7007573 -9.60024682 8.5300919 -3.6640625 3.4453125 C-2.39833536 2.34597202 -1.1854566 1.1854566 0 0 Z " fill="#868ED9" transform="translate(88,61)"/>
<path d="M0 0 C3.93673644 1.31224548 6.22719294 2.91910327 9 6 C8.67 6.66 8.34 7.32 8 8 C6.66102417 7.04956626 5.32894573 6.08940853 4 5.125 C3.2575 4.59132813 2.515 4.05765625 1.75 3.5078125 C1.1725 3.01023437 0.595 2.51265625 0 2 C0 1.34 0 0.68 0 0 Z " fill="#5E69D3" transform="translate(97,457)"/>
</svg>
