<?xml version="1.0" encoding="UTF-8"?>
<svg version="1.1" xmlns="http://www.w3.org/2000/svg" width="512" height="512">
<path d="M0 0 C0.73646759 -0.00705963 1.47293518 -0.01411926 2.23171997 -0.02139282 C33.03322742 -0.2496182 33.03322742 -0.2496182 47.01171875 3.203125 C47.8409082 3.40180176 48.67009766 3.60047852 49.52441406 3.80517578 C80.25231048 11.35982435 107.58159044 26.90269471 130.01171875 49.203125 C130.50091797 49.6882959 130.99011719 50.1734668 131.49414062 50.67333984 C162.49753752 81.84808191 178.48849441 124.01225274 178.38671875 167.640625 C178.38650726 168.47806244 178.38629578 169.31549988 178.38607788 170.17831421 C178.35241778 183.55381855 177.40759781 196.21395734 174.01171875 209.203125 C173.8297998 209.94675293 173.64788086 210.69038086 173.46044922 211.45654297 C163.23754178 252.83236763 135.00754183 289.77349328 99.01171875 312.203125 C83.99840829 321.03212186 68.73341658 327.6269096 51.88671875 331.953125 C51.11191162 332.15212402 50.33710449 332.35112305 49.53881836 332.55615234 C36.50299636 335.71511909 23.6711926 336.57940502 10.32421875 336.515625 C9.53146545 336.51380219 8.73871216 336.51197937 7.92193604 336.51010132 C-3.9454618 336.46418481 -15.40616004 336.00089846 -26.98828125 333.203125 C-27.71499023 333.03683594 -28.44169922 332.87054688 -29.19042969 332.69921875 C-72.27653449 322.64020596 -110.62414662 294.6986696 -133.98828125 257.203125 C-150.14288588 229.73294935 -158.4377049 200.6689562 -158.36328125 168.765625 C-158.36306976 167.92818756 -158.36285828 167.09075012 -158.36264038 166.22793579 C-158.32898028 152.85243145 -157.38416031 140.19229266 -153.98828125 127.203125 C-153.8063623 126.45949707 -153.62444336 125.71586914 -153.43701172 124.94970703 C-146.1815859 95.58435982 -129.90925701 69.73672084 -108.98828125 48.203125 C-108.45912109 47.65132568 -107.92996094 47.09952637 -107.38476562 46.53100586 C-80.42759918 18.8770652 -38.73830224 0.24856674 0 0 Z " fill="#FEEC82" transform="translate(245.98828125,87.796875)"/>
<path d="M0 0 C0.712771 0.22921143 1.42554199 0.45842285 2.15991211 0.69458008 C6.30194655 2.12814608 9.58914876 3.67996555 12.625 6.875 C13.97097263 11.73727699 13.31578108 14.88285131 11.67578125 19.59375 C11.3549482 20.52519836 11.3549482 20.52519836 11.02763367 21.47546387 C10.57421949 22.78199952 10.11411698 24.0862313 9.64770508 25.38818359 C8.94144973 27.36395054 8.25927991 29.34682357 7.58007812 31.33203125 C2.45608158 45.98761228 2.45608158 45.98761228 -3.375 49.875 C-9.44404441 49.54038242 -14.81271873 47.93399969 -20.5625 46.0625 C-68.43297115 31.07252868 -124.00341869 34.16622446 -169.0625 56.875 C-170.90346421 57.84442217 -172.72762152 58.83686026 -174.54345703 59.85253906 C-176.48326877 60.93544117 -178.44095708 61.98017663 -180.40234375 63.0234375 C-196.47339844 71.68443912 -210.65239139 82.64744617 -224.125 94.9375 C-224.64392822 95.40784668 -225.16285645 95.87819336 -225.69750977 96.36279297 C-244.01561825 113.31613689 -257.89937571 135.39823138 -268.375 157.875 C-268.90867187 159.01324219 -269.44234375 160.15148437 -269.9921875 161.32421875 C-279.90573056 183.43706998 -286.3674777 208.32572667 -286.61328125 232.625 C-286.62797203 233.83641914 -286.62797203 233.83641914 -286.64295959 235.0723114 C-287.00960559 273.16447993 -280.44058813 308.08821304 -262.375 341.875 C-262.05273438 342.48085938 -261.73046875 343.08671875 -261.3984375 343.7109375 C-236.0011689 390.9952831 -191.93865647 425.97719826 -140.83789062 441.78955078 C-88.73090095 457.10206379 -31.54519394 452.65341601 16.625 426.875 C31.48717875 418.66555542 44.86722897 409.47939259 57.36328125 397.94921875 C59.40824667 396.07378414 61.50119475 394.28467467 63.625 392.5 C82.76281877 375.74480124 97.05889281 352.8046671 107.625 329.875 C108.15609375 328.740625 108.6871875 327.60625 109.234375 326.4375 C119.06935179 304.53693314 125.61309834 279.55197169 125.86328125 255.4765625 C125.8730751 254.69251038 125.88286896 253.90845825 125.89295959 253.10064697 C126.17501732 224.61825795 122.80072346 198.96523118 113.625 171.875 C110.36374628 173.363508 107.71990833 175.26757788 104.875 177.4375 C100.25158837 180.71071178 97.28992591 181.97267114 91.625 181.875 C88.88079241 181.08062412 88.0096918 180.52236196 86.55859375 178.08044434 C85.55294926 175.70479331 85.25811501 173.84192718 85.0625 171.27539062 C84.95219452 169.90839272 84.95219452 169.90839272 84.83966064 168.51377869 C84.76882263 167.52954422 84.69798462 166.54530975 84.625 165.53125 C84.54433289 164.50226089 84.46366577 163.47327179 84.3805542 162.4131012 C84.12041337 159.06764553 83.87233808 155.72142459 83.625 152.375 C83.45011987 150.07995281 83.2746631 147.78494949 83.09863281 145.48999023 C82.75423397 140.98049538 82.41494521 136.47066161 82.08007812 131.96044922 C81.7092236 126.97364969 81.32071753 121.98853076 80.921875 117.00390625 C80.13108691 106.94713024 79.44750426 96.90213949 79.3125 86.8125 C79.29477539 86.03720947 79.27705078 85.26191895 79.25878906 84.46313477 C79.26267061 81.64998353 79.31544818 79.42817023 80.70703125 76.94140625 C83.63231926 75.31492228 86.31654307 74.73917674 89.625 74.875 C93.14277618 75.98934761 96.33577602 77.65865516 99.609375 79.34765625 C100.59838806 79.83959976 101.58740112 80.33154327 102.60638428 80.83839417 C104.78338507 81.92251867 106.95666801 83.01413225 109.12670898 84.11212158 C112.76334801 85.9447171 116.41463131 87.74450708 120.07226562 89.53466797 C125.99976857 92.43836865 131.91629564 95.36335579 137.82523346 98.30464745 C141.22302065 99.99577968 144.62272776 101.68275849 148.02734375 103.36010742 C151.39101955 105.0173403 154.7497182 106.6842633 158.10503387 108.35835457 C159.36799733 108.98649386 160.63265148 109.61124641 161.89905548 110.23241997 C163.65121962 111.0927268 165.39658555 111.96683784 167.14160156 112.84155273 C168.13146057 113.33243881 169.12131958 113.82332489 170.14117432 114.3290863 C172.75337082 115.954897 174.08285737 117.22912116 175.625 119.875 C176.42214456 124.81729625 176.42214456 124.81729625 175.625 127.875 C173.72251511 130.47635689 171.28039469 132.08712231 168.625 133.875 C167.58988281 134.58398438 166.55476563 135.29296875 165.48828125 136.0234375 C162.55223897 138.00396306 159.59846909 139.9512778 156.625 141.875 C158.05879489 146.79827942 159.52944256 151.69557808 161.23828125 156.53125 C166.13759169 170.41835978 169.75023868 184.43534185 172.625 198.875 C172.80579102 199.75655762 172.98658203 200.63811523 173.17285156 201.54638672 C178.59040759 229.25346997 178.2651353 262.24188427 172.625 289.875 C172.42632324 290.88900879 172.22764648 291.90301758 172.02294922 292.94775391 C163.03481021 337.88844897 142.88399208 380.7569832 111.70703125 414.609375 C109.8005956 416.68392036 107.9573439 418.79765931 106.125 420.9375 C98.96710165 429.11326463 91.13058839 436.13263007 82.625 442.875 C81.55261957 443.74906123 80.48102952 444.6240929 79.41015625 445.5 C45.32890767 473.13999649 4.63497521 490.04277849 -38.375 497.875 C-39.43654297 498.07077637 -40.49808594 498.26655273 -41.59179688 498.46826172 C-53.07897586 500.29428663 -64.59842402 500.24720787 -76.20458984 500.24560547 C-79.70851388 500.24994858 -83.21114375 500.28629032 -86.71484375 500.32421875 C-123.87257467 500.50975833 -160.11544119 491.30264949 -193.375 474.875 C-194.57253906 474.32972656 -195.77007812 473.78445313 -197.00390625 473.22265625 C-245.87746482 450.62513624 -284.69030935 407.93927417 -309.375 360.875 C-309.7551123 360.15957031 -310.13522461 359.44414062 -310.52685547 358.70703125 C-321.70909846 337.40012834 -329.03686123 313.48776777 -333.375 289.875 C-333.53581055 289.06901367 -333.69662109 288.26302734 -333.86230469 287.43261719 C-339.26044343 259.61828993 -339.06456546 226.61797027 -333.375 198.875 C-333.17100586 197.85035645 -332.96701172 196.82571289 -332.75683594 195.77001953 C-328.37229504 174.22067114 -321.9971388 153.66310309 -312.375 133.875 C-311.72337891 132.53284424 -311.72337891 132.53284424 -311.05859375 131.16357422 C-304.23131675 117.26417011 -296.56494151 104.33874905 -287.375 91.875 C-286.67358887 90.91907959 -286.67358887 90.91907959 -285.95800781 89.94384766 C-278.79463441 80.27664576 -270.72258027 71.52411839 -262.375 62.875 C-261.47523438 61.93398437 -260.57546875 60.99296875 -259.6484375 60.0234375 C-253.91999194 54.14950761 -247.82106292 48.94287896 -241.375 43.875 C-240.41207031 43.09511719 -239.44914062 42.31523438 -238.45703125 41.51171875 C-217.42413491 24.79736386 -193.55918349 12.08078769 -168.375 2.875 C-167.62686035 2.59817383 -166.8787207 2.32134766 -166.10791016 2.03613281 C-113.39265099 -17.24511574 -53.20344361 -17.27514425 0 0 Z " fill="#F77069" transform="translate(336.375,12.125)"/>
<path d="M0 0 C0.73646759 -0.00705963 1.47293518 -0.01411926 2.23171997 -0.02139282 C33.03322742 -0.2496182 33.03322742 -0.2496182 47.01171875 3.203125 C47.8409082 3.40180176 48.67009766 3.60047852 49.52441406 3.80517578 C80.25231048 11.35982435 107.58159044 26.90269471 130.01171875 49.203125 C130.50091797 49.6882959 130.99011719 50.1734668 131.49414062 50.67333984 C162.49753752 81.84808191 178.48849441 124.01225274 178.38671875 167.640625 C178.38650726 168.47806244 178.38629578 169.31549988 178.38607788 170.17831421 C178.35241778 183.55381855 177.40759781 196.21395734 174.01171875 209.203125 C173.8297998 209.94675293 173.64788086 210.69038086 173.46044922 211.45654297 C163.23754178 252.83236763 135.00754183 289.77349328 99.01171875 312.203125 C83.99840829 321.03212186 68.73341658 327.6269096 51.88671875 331.953125 C51.11191162 332.15212402 50.33710449 332.35112305 49.53881836 332.55615234 C36.50299636 335.71511909 23.6711926 336.57940502 10.32421875 336.515625 C9.53146545 336.51380219 8.73871216 336.51197937 7.92193604 336.51010132 C-3.9454618 336.46418481 -15.40616004 336.00089846 -26.98828125 333.203125 C-27.71499023 333.03683594 -28.44169922 332.87054688 -29.19042969 332.69921875 C-72.27653449 322.64020596 -110.62414662 294.6986696 -133.98828125 257.203125 C-150.14288588 229.73294935 -158.4377049 200.6689562 -158.36328125 168.765625 C-158.36306976 167.92818756 -158.36285828 167.09075012 -158.36264038 166.22793579 C-158.32898028 152.85243145 -157.38416031 140.19229266 -153.98828125 127.203125 C-153.8063623 126.45949707 -153.62444336 125.71586914 -153.43701172 124.94970703 C-146.1815859 95.58435982 -129.90925701 69.73672084 -108.98828125 48.203125 C-108.45912109 47.65132568 -107.92996094 47.09952637 -107.38476562 46.53100586 C-80.42759918 18.8770652 -38.73830224 0.24856674 0 0 Z M-20.98828125 35.203125 C-21.65021484 35.36409668 -22.31214844 35.52506836 -22.99414062 35.69091797 C-57.23429299 44.08959813 -87.37561587 66.33397081 -105.83154297 96.28417969 C-125.11289204 128.27054602 -130.98998899 164.57336763 -122.46655273 201.15576172 C-117.42939905 221.38183977 -107.70378366 240.48169902 -93.98828125 256.203125 C-93.19035156 257.14542969 -92.39242187 258.08773437 -91.5703125 259.05859375 C-69.6323481 284.40913039 -36.6316282 301.42865284 -3.13037109 304.07861328 C36.13774956 306.36112314 71.74193758 295.42624986 101.56274414 269.31323242 C125.85757987 247.45141206 143.33583458 215.05593334 145.88671875 182.16015625 C147.61795292 141.20564793 137.24360529 105.43192662 109.19921875 74.578125 C91.29436899 55.38970237 69.0825291 43.23329038 44.01171875 36.203125 C42.92632812 35.89375 41.8409375 35.584375 40.72265625 35.265625 C21.31780288 30.05088404 -1.59000655 30.14893317 -20.98828125 35.203125 Z " fill="#FAE25C" transform="translate(245.98828125,87.796875)"/>
<path d="M0 0 C10.56 0 21.12 0 32 0 C32 10.56 32 21.12 32 32 C34.52914062 31.96519531 37.05828125 31.93039063 39.6640625 31.89453125 C42.12645337 31.87110322 44.5888316 31.85290518 47.05126953 31.83520508 C48.75640463 31.82016262 50.46150132 31.79972347 52.16650391 31.77368164 C54.62412012 31.73709716 57.08122269 31.72022827 59.5390625 31.70703125 C60.29555084 31.69154739 61.05203918 31.67606354 61.83145142 31.66011047 C67.2912944 31.65839289 71.43260416 32.71312722 75.64453125 36.46484375 C79.85076922 41.76836119 80.46499359 45.25759299 80 52 C78.10672504 57.2590971 75.40216785 59.79008594 71 63 C67.68811319 64.10396227 65.21623193 64.13121418 61.7277832 64.1418457 C60.4324617 64.14888016 59.1371402 64.15591461 57.80256653 64.16316223 C56.7639746 64.16588607 56.7639746 64.16588607 55.70440102 64.16866493 C53.53014706 64.17584943 51.35611631 64.19153244 49.18193054 64.21000671 C43.0003066 64.26236974 36.81880365 64.31039913 30.63696289 64.32592773 C26.85311917 64.33605473 23.0698362 64.3654998 19.28621483 64.40724754 C17.84987839 64.41949856 16.41346252 64.42468965 14.97707558 64.42244911 C5.72566753 64.4115735 -1.05049362 64.66271479 -8.2421875 70.96484375 C-8.78101563 71.61582031 -9.31984375 72.26679688 -9.875 72.9375 C-10.42929688 73.58589844 -10.98359375 74.23429687 -11.5546875 74.90234375 C-15.67977895 80.88930081 -15.71608142 86.94935212 -15 94 C-13.22657567 100.64472914 -8.5533353 105.17367959 -3 109 C0.85809724 110.84115432 4.00352337 111.27027277 8.26171875 111.34375 C9.46376953 111.37339844 10.66582031 111.40304688 11.90429688 111.43359375 C13.15275391 111.45550781 14.40121094 111.47742188 15.6875 111.5 C34.97666969 111.84390759 49.5547655 115.27285252 64.125 128.5625 C75.24672468 140.2030881 79.49645679 154.18191224 79.35205078 169.94213867 C78.88600362 186.13647408 72.73534753 198.83936933 61 210 C52.7741438 217.13658757 43.13003071 223 32 223 C32 233.89 32 244.78 32 256 C21.44 256 10.88 256 0 256 C0 245.44 0 234.88 0 224 C-2.44535156 224.03480469 -4.89070313 224.06960938 -7.41015625 224.10546875 C-9.79645624 224.12891073 -12.18274307 224.14710079 -14.5690918 224.16479492 C-16.21889044 224.17981806 -17.86864958 224.2002426 -19.51831055 224.22631836 C-21.89902536 224.26298899 -24.27920908 224.27979103 -26.66015625 224.29296875 C-27.38960953 224.30845261 -28.11906281 224.32393646 -28.87062073 224.33988953 C-34.50994579 224.34171449 -39.33322781 223.29605498 -43.7421875 219.5 C-47.50854653 214.51282115 -48.41598173 211.23972589 -48 205 C-46.18126531 199.13963267 -43.9082092 196.40569618 -39 193 C-35.5893669 191.81645509 -32.29414072 191.86928432 -28.70605469 191.8581543 C-26.79321686 191.84760262 -26.79321686 191.84760262 -24.84173584 191.83683777 C-24.16263908 191.83502188 -23.48354233 191.83320599 -22.78386688 191.83133507 C-20.6473374 191.82413607 -18.51103316 191.80844323 -16.37457275 191.78999329 C-10.30134208 191.73769223 -4.22823611 191.68959257 1.84521484 191.67407227 C5.56537727 191.66394447 9.28496943 191.63450074 13.0049057 191.59275246 C14.41612163 191.58050597 15.82741832 191.57530951 17.23868561 191.57755089 C26.41219583 191.58853323 33.11133073 191.28397324 40.2421875 185.03515625 C40.78101563 184.38417969 41.31984375 183.73320312 41.875 183.0625 C42.42929687 182.41410156 42.98359375 181.76570312 43.5546875 181.09765625 C47.67977895 175.11069919 47.71608142 169.05064788 47 162 C45.24375098 155.41962394 40.59827616 150.68569783 35 147 C30.78299003 145.35409051 27.22558603 144.74364806 22.7109375 144.69140625 C21.52113281 144.66626953 20.33132813 144.64113281 19.10546875 144.61523438 C16.64197502 144.58041012 14.17842894 144.54909125 11.71484375 144.52148438 C-6.06864527 144.12906077 -20.5364914 138.98372461 -33 126 C-45.97891376 111.98896586 -47.78107458 96.90526776 -47.18359375 78.65820312 C-46.8319422 73.56673761 -45.40367343 69.45153994 -43 65 C-42.649375 64.24332031 -42.29875 63.48664063 -41.9375 62.70703125 C-35.50806206 49.73653319 -24.25905801 40.40087177 -11.08984375 34.9453125 C-8 34 -8 34 0 33 C0 22.11 0 11.22 0 0 Z " fill="#D7986C" transform="translate(240,128)"/>
</svg>
