<?xml version="1.0" encoding="UTF-8"?>
<svg version="1.1" xmlns="http://www.w3.org/2000/svg" width="512" height="512">
<path d="M0 0 C0.90117554 -0.00692368 1.80235107 -0.01384735 2.73083496 -0.02098083 C5.61877857 -0.03814878 8.50653904 -0.04456564 11.39453125 -0.046875 C12.37725006 -0.04821442 13.35996887 -0.04955383 14.37246704 -0.05093384 C58.09358861 -0.03798472 58.09358861 -0.03798472 68.64453125 8.078125 C72.29854737 13.04758692 72.48807767 17.7900329 72.48046875 23.79296875 C72.50075481 25.48112646 72.52160554 27.16927746 72.54296875 28.85742188 C72.5655623 31.5016041 72.58204208 34.14552058 72.58789062 36.78979492 C72.59743923 39.35383332 72.63123654 41.91669545 72.66796875 44.48046875 C72.66040054 45.65729469 72.66040054 45.65729469 72.65267944 46.8578949 C72.74538999 52.05985751 73.64515856 55.16212853 77.20703125 59.203125 C79.90328198 60.98174804 79.90328198 60.98174804 83.00390625 62.1953125 C84.12796875 62.67226563 85.25203125 63.14921875 86.41015625 63.640625 C88.16585937 64.3521875 88.16585937 64.3521875 89.95703125 65.078125 C91.11203125 65.57570313 92.26703125 66.07328125 93.45703125 66.5859375 C102.08282515 70.27705154 102.08282515 70.27705154 111.20703125 70.203125 C119.10801496 66.1037414 125.21461901 58.31306519 131.29711914 51.99658203 C132.66023914 50.58507711 134.03313483 49.18303352 135.40625 47.78125 C136.61027466 46.53456543 136.61027466 46.53456543 137.83862305 45.26269531 C141.24852233 42.29744324 144.66302187 40.77599951 149.20703125 41.015625 C156.25998993 42.01147465 161.7443956 46.94316498 167.20703125 51.203125 C168.65529297 52.33234375 168.65529297 52.33234375 170.1328125 53.484375 C172.86523059 55.67958501 175.54505507 57.92315446 178.20703125 60.203125 C179.33238281 61.16025391 179.33238281 61.16025391 180.48046875 62.13671875 C193.39873777 73.44571535 205.89596739 85.62151243 215.99560547 99.54296875 C217.25040864 101.26257003 218.54131448 102.95086176 219.8359375 104.640625 C223.73118764 109.83478866 227.12292554 114.47242572 227.59765625 121.10546875 C226.5242893 126.86944927 223.07816357 130.67988561 218.98828125 134.64453125 C218.48913208 135.13469223 217.98998291 135.62485321 217.47570801 136.12986755 C215.89321784 137.68256155 214.30114495 139.22487378 212.70703125 140.765625 C211.11383051 142.31080288 209.52308284 143.85822604 207.93835449 145.41209412 C206.50158746 146.82023538 205.05667491 148.22005136 203.61132812 149.61938477 C200.17293728 153.314398 198.35810547 155.87143369 197.78515625 160.921875 C197.9882795 165.95744203 199.90322943 170.16582524 201.95703125 174.703125 C202.30507813 175.50621094 202.653125 176.30929688 203.01171875 177.13671875 C204.04855176 179.50607419 205.12439103 181.85441381 206.20703125 184.203125 C206.53123047 184.95207031 206.85542969 185.70101562 207.18945312 186.47265625 C207.50978516 187.17777344 207.83011719 187.88289062 208.16015625 188.609375 C208.57249512 189.54233398 208.57249512 189.54233398 208.99316406 190.49414062 C210.78001982 193.00982652 212.37966645 193.93904554 215.20703125 195.203125 C218.11728279 195.47637362 220.82033232 195.59715532 223.7265625 195.57421875 C225.40560095 195.59160584 227.08463736 195.60919017 228.76367188 195.62695312 C231.39009449 195.63700102 234.01638127 195.64062705 236.64282227 195.63891602 C239.19197187 195.64251008 241.74009703 195.6699426 244.2890625 195.69921875 C245.06329056 195.69103622 245.83751862 195.6828537 246.63520813 195.67442322 C252.19101579 195.74935892 256.5963771 197.0156049 261.20703125 200.203125 C264.36565914 204.70059516 265.03967762 209.62274601 265.83203125 214.953125 C265.95320313 215.70078125 266.074375 216.4484375 266.19921875 217.21875 C267.60304607 226.13000165 268.36294415 234.97603564 268.41015625 243.99609375 C268.41707993 244.89726929 268.4240036 245.79844482 268.43113708 246.72692871 C268.44830503 249.61487232 268.45472189 252.50263279 268.45703125 255.390625 C268.45837067 256.37334381 268.45971008 257.35606262 268.46109009 258.36856079 C268.44814097 302.08968236 268.44814097 302.08968236 260.33203125 312.640625 C255.36256933 316.29464112 250.62012335 316.48417142 244.6171875 316.4765625 C242.92902979 316.49684856 241.24087879 316.51769929 239.55273438 316.5390625 C236.90855215 316.56165605 234.26463567 316.57813583 231.62036133 316.58398438 C229.05632293 316.59353298 226.4934608 316.62733029 223.9296875 316.6640625 C223.14513687 316.65901703 222.36058624 316.65397156 221.55226135 316.64877319 C216.35029874 316.74148374 213.24802772 317.64125231 209.20703125 321.203125 C207.42840821 323.89937573 207.42840821 323.89937573 206.21484375 327 C205.73789062 328.1240625 205.2609375 329.248125 204.76953125 330.40625 C204.05796875 332.16195312 204.05796875 332.16195312 203.33203125 333.953125 C202.83445312 335.108125 202.336875 336.263125 201.82421875 337.453125 C198.13310471 346.0789189 198.13310471 346.0789189 198.20703125 355.203125 C202.30641485 363.10410871 210.09709106 369.21071276 216.41357422 375.29321289 C217.82507914 376.65633289 219.22712273 378.02922858 220.62890625 379.40234375 C221.87559082 380.60636841 221.87559082 380.60636841 223.14746094 381.8347168 C226.11271301 385.24461608 227.63415674 388.65911562 227.39453125 393.203125 C226.3986816 400.25608368 221.46699127 405.74048935 217.20703125 411.203125 C216.0778125 412.65138672 216.0778125 412.65138672 214.92578125 414.12890625 C212.73057124 416.86132434 210.48700179 419.54114882 208.20703125 422.203125 C207.56894531 422.95335937 206.93085938 423.70359375 206.2734375 424.4765625 C194.9644409 437.39483152 182.78864382 449.89206114 168.8671875 459.99169922 C167.14758622 461.24650239 165.45929449 462.53740823 163.76953125 463.83203125 C158.57536759 467.72728139 153.93773053 471.11901929 147.3046875 471.59375 C141.54070698 470.52038305 137.73027064 467.07425732 133.765625 462.984375 C133.27546402 462.48522583 132.78530304 461.98607666 132.2802887 461.47180176 C130.7275947 459.88931159 129.18528247 458.2972387 127.64453125 456.703125 C126.09935337 455.10992426 124.55193021 453.51917659 122.99806213 451.93444824 C121.58992087 450.49768121 120.19010489 449.05276866 118.79077148 447.60742188 C115.09575825 444.16903103 112.53872256 442.35419922 107.48828125 441.78125 C102.45271422 441.98437325 98.24433101 443.89932318 93.70703125 445.953125 C92.90394531 446.30117188 92.10085938 446.64921875 91.2734375 447.0078125 C88.90408206 448.04464551 86.55574244 449.12048478 84.20703125 450.203125 C83.45808594 450.52732422 82.70914062 450.85152344 81.9375 451.18554688 C81.23238281 451.50587891 80.52726562 451.82621094 79.80078125 452.15625 C79.17880859 452.43114258 78.55683594 452.70603516 77.91601562 452.98925781 C75.40032973 454.77611357 74.47111071 456.3757602 73.20703125 459.203125 C72.93378263 462.11337654 72.81300093 464.81642607 72.8359375 467.72265625 C72.81855041 469.4016947 72.80096608 471.08073111 72.78320312 472.75976562 C72.77315523 475.38618824 72.7695292 478.01247502 72.77124023 480.63891602 C72.76764617 483.18806562 72.74021365 485.73619078 72.7109375 488.28515625 C72.71912003 489.05938431 72.72730255 489.83361237 72.73573303 490.63130188 C72.66079733 496.18710954 71.39455135 500.59247085 68.20703125 505.203125 C63.70956109 508.36175289 58.78741024 509.03577137 53.45703125 509.828125 C52.709375 509.94929688 51.96171875 510.07046875 51.19140625 510.1953125 C42.2801546 511.59913982 33.43412061 512.3590379 24.4140625 512.40625 C23.51288696 512.41317368 22.61171143 512.42009735 21.68322754 512.42723083 C18.79528393 512.44439878 15.90752346 512.45081564 13.01953125 512.453125 C11.54545303 512.45513412 11.54545303 512.45513412 10.04159546 512.45718384 C-33.67952611 512.44423472 -33.67952611 512.44423472 -44.23046875 504.328125 C-47.88448487 499.35866308 -48.07401517 494.6162171 -48.06640625 488.61328125 C-48.08669231 486.92512354 -48.10754304 485.23697254 -48.12890625 483.54882812 C-48.1514998 480.9046459 -48.16797958 478.26072942 -48.17382812 475.61645508 C-48.18337673 473.05241668 -48.21717404 470.48955455 -48.25390625 467.92578125 C-48.24633804 466.74895531 -48.24633804 466.74895531 -48.23861694 465.5483551 C-48.33132749 460.34639249 -49.23109606 457.24412147 -52.79296875 453.203125 C-55.48921948 451.42450196 -55.48921948 451.42450196 -58.58984375 450.2109375 C-59.71390625 449.73398437 -60.83796875 449.25703125 -61.99609375 448.765625 C-63.75179687 448.0540625 -63.75179687 448.0540625 -65.54296875 447.328125 C-66.69796875 446.83054687 -67.85296875 446.33296875 -69.04296875 445.8203125 C-77.66876265 442.12919846 -77.66876265 442.12919846 -86.79296875 442.203125 C-94.69395246 446.3025086 -100.80055651 454.09318481 -106.88305664 460.40966797 C-108.24617664 461.82117289 -109.61907233 463.22321648 -110.9921875 464.625 C-111.79487061 465.45612305 -112.59755371 466.28724609 -113.42456055 467.14355469 C-116.83445983 470.10880676 -120.24895937 471.63025049 -124.79296875 471.390625 C-131.848907 470.39435465 -137.32572028 465.46006655 -142.79296875 461.203125 C-143.73527344 460.47351563 -144.67757812 459.74390625 -145.6484375 458.9921875 C-162.45420395 445.55727464 -178.81720913 430.29722728 -191.54931641 412.89550781 C-192.82076282 411.16530237 -194.12401977 409.46228655 -195.4296875 407.7578125 C-199.32105616 402.56533976 -202.70914632 397.92986611 -203.18359375 391.30078125 C-202.1102268 385.53680073 -198.66410107 381.72636439 -194.57421875 377.76171875 C-194.07506958 377.27155777 -193.57592041 376.78139679 -193.06164551 376.27638245 C-191.47915534 374.72368845 -189.88708245 373.18137622 -188.29296875 371.640625 C-186.69976801 370.09544712 -185.10902034 368.54802396 -183.52429199 366.99415588 C-182.08752496 365.58601462 -180.64261241 364.18619864 -179.19726562 362.78686523 C-175.75887478 359.091852 -173.94404297 356.53481631 -173.37109375 351.484375 C-173.574217 346.44880797 -175.48916693 342.24042476 -177.54296875 337.703125 C-178.06503906 336.49849609 -178.06503906 336.49849609 -178.59765625 335.26953125 C-179.63448926 332.90017581 -180.71032853 330.55183619 -181.79296875 328.203125 C-182.11716797 327.45417969 -182.44136719 326.70523437 -182.77539062 325.93359375 C-183.09572266 325.22847656 -183.41605469 324.52335937 -183.74609375 323.796875 C-184.02098633 323.17490234 -184.29587891 322.55292969 -184.57910156 321.91210938 C-186.36595732 319.39642348 -187.96560395 318.46720446 -190.79296875 317.203125 C-193.70322029 316.92987638 -196.40626982 316.80909468 -199.3125 316.83203125 C-200.99153845 316.81464416 -202.67057486 316.79705983 -204.34960938 316.77929688 C-206.97603199 316.76924898 -209.60231877 316.76562295 -212.22875977 316.76733398 C-214.77790937 316.76373992 -217.32603453 316.7363074 -219.875 316.70703125 C-220.64922806 316.71521378 -221.42345612 316.7233963 -222.22114563 316.73182678 C-227.77695329 316.65689108 -232.1823146 315.3906451 -236.79296875 312.203125 C-239.95159664 307.70565484 -240.62561512 302.78350399 -241.41796875 297.453125 C-241.53914062 296.70546875 -241.6603125 295.9578125 -241.78515625 295.1875 C-243.18898357 286.27624835 -243.94888165 277.43021436 -243.99609375 268.41015625 C-244.00301743 267.50898071 -244.0099411 266.60780518 -244.01707458 265.67932129 C-244.03424253 262.79137768 -244.04065939 259.90361721 -244.04296875 257.015625 C-244.04430817 256.03290619 -244.04564758 255.05018738 -244.04702759 254.03768921 C-244.03407847 210.31656764 -244.03407847 210.31656764 -235.91796875 199.765625 C-230.94850683 196.11160888 -226.20606085 195.92207858 -220.203125 195.9296875 C-218.51496729 195.90940144 -216.82681629 195.88855071 -215.13867188 195.8671875 C-212.49448965 195.84459395 -209.85057317 195.82811417 -207.20629883 195.82226562 C-204.64226043 195.81271702 -202.0793983 195.77891971 -199.515625 195.7421875 C-198.73107437 195.74723297 -197.94652374 195.75227844 -197.13819885 195.75747681 C-191.93623624 195.66476626 -188.83396522 194.76499769 -184.79296875 191.203125 C-183.01434571 188.50687427 -183.01434571 188.50687427 -181.80078125 185.40625 C-181.32382813 184.2821875 -180.846875 183.158125 -180.35546875 182 C-179.64390625 180.24429688 -179.64390625 180.24429688 -178.91796875 178.453125 C-178.42039062 177.298125 -177.9228125 176.143125 -177.41015625 174.953125 C-173.71904221 166.3273311 -173.71904221 166.3273311 -173.79296875 157.203125 C-177.89235235 149.30214129 -185.68302856 143.19553724 -191.99951172 137.11303711 C-193.41101664 135.74991711 -194.81306023 134.37702142 -196.21484375 133.00390625 C-197.0459668 132.20122314 -197.87708984 131.39854004 -198.73339844 130.5715332 C-201.69865051 127.16163392 -203.22009424 123.74713438 -202.98046875 119.203125 C-201.9846191 112.15016632 -197.05292877 106.66576065 -192.79296875 101.203125 C-192.04015625 100.23761719 -191.28734375 99.27210937 -190.51171875 98.27734375 C-188.31650874 95.54492566 -186.07293929 92.86510118 -183.79296875 90.203125 C-183.15488281 89.45289062 -182.51679688 88.70265625 -181.859375 87.9296875 C-170.5503784 75.01141848 -158.37458132 62.51418886 -144.453125 52.41455078 C-142.73352372 51.15974761 -141.04523199 49.86884177 -139.35546875 48.57421875 C-134.16130509 44.67896861 -129.52366803 41.28723071 -122.890625 40.8125 C-117.12664448 41.88586695 -113.31620814 45.33199268 -109.3515625 49.421875 C-108.86140152 49.92102417 -108.37124054 50.42017334 -107.8662262 50.93444824 C-106.3135322 52.51693841 -104.77121997 54.1090113 -103.23046875 55.703125 C-101.68529087 57.29632574 -100.13786771 58.88707341 -98.58399963 60.47180176 C-97.17585837 61.90856879 -95.77604239 63.35348134 -94.37670898 64.79882812 C-90.68169575 68.23721897 -88.12466006 70.05205078 -83.07421875 70.625 C-78.03865172 70.42187675 -73.83026851 68.50692682 -69.29296875 66.453125 C-68.08833984 65.93105469 -68.08833984 65.93105469 -66.859375 65.3984375 C-64.49001956 64.36160449 -62.14167994 63.28576522 -59.79296875 62.203125 C-59.04402344 61.87892578 -58.29507813 61.55472656 -57.5234375 61.22070312 C-56.81832031 60.90037109 -56.11320313 60.58003906 -55.38671875 60.25 C-54.45375977 59.83766113 -54.45375977 59.83766113 -53.50195312 59.41699219 C-50.97845051 57.62458433 -50.05633379 56.04433061 -48.79296875 53.203125 C-48.38481818 50.27461302 -48.39929342 47.38264957 -48.421875 44.4296875 C-48.40449128 42.70051887 -48.38690691 40.97135224 -48.36914062 39.2421875 C-48.35908113 36.53446714 -48.35546954 33.82687888 -48.35717773 31.11914062 C-48.35359155 28.49309575 -48.32619056 25.86805285 -48.296875 23.2421875 C-48.30505753 22.44092438 -48.31324005 21.63966125 -48.32167053 20.81411743 C-48.24742994 15.1611788 -47.05146661 11.85248597 -43.79296875 7.203125 C-39.227172 4.10207807 -34.39640106 3.37390548 -29.04296875 2.578125 C-28.2953125 2.45695313 -27.54765625 2.33578125 -26.77734375 2.2109375 C-17.8660921 0.80711018 -9.02005811 0.0472121 0 0 Z M-34.79296875 216.203125 C-45.46123055 229.94195661 -50.20315619 245.9417167 -48.79296875 263.203125 C-46.26343972 280.55886141 -37.93673947 295.51449118 -24.0625 306.33203125 C-9.41024016 316.12134771 6.44818831 320.25464896 23.83203125 317.203125 C39.98232186 313.41131764 53.84082559 304.62135832 63.14453125 290.765625 C72.26120626 275.15609852 75.88004712 258.94046046 71.64453125 241.140625 C67.36653625 224.9266158 57.58974088 211.15934612 43.0234375 202.6640625 C15.83713259 188.56187382 -14.16128745 193.17387829 -34.79296875 216.203125 Z " fill="#C7DBF4" transform="translate(243.79296875,-0.203125)"/>
<path d="M0 0 C3.07832957 2.76429863 6.07348974 5.60057139 9.03515625 8.48828125 C9.70998047 9.1426416 10.38480469 9.79700195 11.08007812 10.47119141 C13.28225332 12.61394127 15.47338073 14.76732298 17.66015625 16.92578125 C18.35995605 17.61236816 19.05975586 18.29895508 19.78076172 19.00634766 C20.43447754 19.65909668 21.08819336 20.3118457 21.76171875 20.984375 C22.34518066 21.56372803 22.92864258 22.14308105 23.52978516 22.73999023 C25.10679755 24.57148322 26.02368821 26.30253668 27.03515625 28.48828125 C28.02082281 30.09765798 29.00755491 31.70641739 30.00488281 33.30859375 C51.97404472 68.81581062 59.17226037 109.34813212 49.84765625 150.17578125 C47.51065148 159.71111082 44.24046171 168.62717673 40.03515625 177.48828125 C39.70531738 178.18904785 39.37547852 178.88981445 39.03564453 179.61181641 C21.74628289 215.71003228 -9.7655352 243.19703539 -47.31201172 256.60400391 C-85.79621056 269.43207019 -127.63069655 266.431941 -163.96484375 248.48828125 C-169.10923342 245.71682789 -174.04209471 242.63164871 -178.96484375 239.48828125 C-179.85816406 238.96234375 -180.75148438 238.43640625 -181.671875 237.89453125 C-188.26948881 233.8482945 -193.57984147 227.97618166 -198.96484375 222.48828125 C-199.81046875 221.64265625 -200.65609375 220.79703125 -201.52734375 219.92578125 C-202.33171875 219.12140625 -203.13609375 218.31703125 -203.96484375 217.48828125 C-204.45082031 217.04871094 -204.93679687 216.60914063 -205.4375 216.15625 C-227.66700157 195.3982048 -240.48266169 163.17688518 -243.96484375 133.48828125 C-244.09375 132.51246094 -244.22265625 131.53664063 -244.35546875 130.53125 C-248.77942822 91.70518462 -236.94527667 53.01804491 -213.10546875 22.3828125 C-188.32154435 -8.71993773 -152.96193269 -28.82004065 -113.46484375 -33.76171875 C-72.88965099 -38.23281437 -31.24690056 -26.47135318 0 0 Z M-142.96484375 74.48828125 C-153.63310555 88.22711286 -158.37503119 104.22687295 -156.96484375 121.48828125 C-154.43531472 138.84401766 -146.10861447 153.79964743 -132.234375 164.6171875 C-117.58211516 174.40650396 -101.72368669 178.53980521 -84.33984375 175.48828125 C-68.18955314 171.69647389 -54.33104941 162.90651457 -45.02734375 149.05078125 C-35.91066874 133.44125477 -32.29182788 117.22561671 -36.52734375 99.42578125 C-40.80533875 83.21177205 -50.58213412 69.44450237 -65.1484375 60.94921875 C-92.33474241 46.84703007 -122.33316245 51.45903454 -142.96484375 74.48828125 Z " fill="#5A9CEC" transform="translate(351.96484375,141.51171875)"/>
<path d="M0 0 C0.96808594 0.10957031 1.93617188 0.21914062 2.93359375 0.33203125 C8.78467255 1.07814197 13.84353326 2.4097916 19.25292969 4.77172852 C21.55436588 5.77366841 23.88033426 6.6120471 26.25 7.4375 C51.26780442 17.53858535 70.42455428 39.69378522 80.8125 64.0625 C90.96615098 90.56829182 90.3141242 119.19212876 79.1875 145.3125 C74.08318762 156.52273622 67.00176185 165.88646105 58.5 174.75 C57.675 175.61625 56.85 176.4825 56 177.375 C55.175 178.15875 54.35 178.9425 53.5 179.75 C52.92636719 180.33007812 52.35273438 180.91015625 51.76171875 181.5078125 C32.15812766 200.33612033 4.04586249 207.30021582 -22.390625 206.96484375 C-45.25240457 206.28170594 -68.8075839 196.29465654 -85.5 180.75 C-85.98807129 180.30285645 -86.47614258 179.85571289 -86.97900391 179.39501953 C-100.46530126 166.94317034 -110.76918767 152.12633115 -115.73828125 134.3046875 C-116.25317727 131.83829538 -116.25317727 131.83829538 -117.5 130.75 C-118.18262168 127.15134537 -118.59164175 123.50669138 -119.0625 119.875 C-119.20107422 118.8746875 -119.33964844 117.874375 -119.48242188 116.84375 C-122.87545301 90.96979826 -117.09203096 62.97676529 -101.20654297 41.84912109 C-81.86216286 18.05470333 -57.72076318 2.26587742 -26.8125 -0.9375 C-17.77939755 -1.69149055 -8.97178842 -1.15880623 0 0 Z M-63.5 62.75 C-74.1682618 76.48883161 -78.91018744 92.4885917 -77.5 109.75 C-74.97047097 127.10573641 -66.64377072 142.06136618 -52.76953125 152.87890625 C-38.11727141 162.66822271 -22.25884294 166.80152396 -4.875 163.75 C11.27529061 159.95819264 25.13379434 151.16823332 34.4375 137.3125 C43.55417501 121.70297352 47.17301587 105.48733546 42.9375 87.6875 C38.659505 71.4734908 28.88270963 57.70622112 14.31640625 49.2109375 C-12.86989866 35.10874882 -42.8683187 39.72075329 -63.5 62.75 Z " fill="#C0D4F1" transform="translate(272.5,153.25)"/>
</svg>
