<?xml version="1.0" encoding="UTF-8"?>
<svg version="1.1" xmlns="http://www.w3.org/2000/svg" width="512" height="512">
<path d="M0 0 C5.9425809 5.24345374 9.8313562 11.93248914 13.9375 18.625 C14.53498047 19.58277344 15.13246094 20.54054688 15.74804688 21.52734375 C20.125 28.62050893 20.125 28.62050893 20.125 30.875 C20.67285156 30.73352539 21.22070312 30.59205078 21.78515625 30.44628906 C29.57587023 28.64429058 37.1566217 28.5776631 45.125 28.625 C46.42695313 28.61726563 47.72890625 28.60953125 49.0703125 28.6015625 C56.32838657 28.61622528 63.08481539 29.05697586 70.125 30.875 C70.39739502 30.15046631 70.66979004 29.42593262 70.95043945 28.67944336 C72.91672764 23.9846289 75.65731407 19.76901527 78.3125 15.4375 C79.14104492 14.0443457 79.14104492 14.0443457 79.98632812 12.62304688 C87.7548621 -0.05382912 87.7548621 -0.05382912 94.62207031 -1.73706055 C103.65342291 -2.42160551 111.29586015 1.34648056 119.28198242 5.06396484 C121.57321818 6.12998675 123.87720257 7.16303043 126.18554688 8.19140625 C127.6649006 8.8601282 129.14344734 9.53063888 130.62109375 10.203125 C131.30135117 10.51058655 131.98160858 10.8180481 132.68247986 11.13482666 C137.78330334 13.51996414 142.93800274 16.0368107 145 21.5625 C147.70855928 30.42522975 143.99446115 40.67419594 142.0625 49.4375 C141.777578 50.74535198 141.49306969 52.05329415 141.20898438 53.36132812 C140.51837262 56.5334601 139.82361189 59.7046221 139.125 62.875 C140.40399991 64.0023785 141.68417364 65.12842541 142.96484375 66.25390625 C143.67761475 66.88111572 144.39038574 67.5083252 145.12475586 68.15454102 C146.60262477 69.42569226 148.13259167 70.6368376 149.6875 71.8125 C154.4857053 75.87251987 158.40667342 80.82708997 162.125 85.875 C164.14028757 85.45174664 166.15554317 85.02834063 168.1706543 84.60424805 C169.9009499 84.24082865 171.63158701 83.8790317 173.36254883 83.51879883 C177.32713014 82.69074638 181.28424027 81.8517062 185.22265625 80.90625 C197.16854081 78.09851217 197.16854081 78.09851217 203.125 79.875 C208.85525552 83.57983028 211.64879893 87.96320638 214.125 94.1875 C214.45113281 94.9707666 214.77726562 95.7540332 215.11328125 96.56103516 C215.78953733 98.18868432 216.45878363 99.81926309 217.12109375 101.45263672 C218.09309921 103.79802539 219.12679795 106.10373426 220.1875 108.41015625 C227.71766929 125.04252427 227.71766929 125.04252427 225.125 132.875 C220.69304274 139.52936647 214.79785998 143.34146425 207.9375 147.1875 C206.17216262 148.202665 204.4078025 149.21953175 202.64453125 150.23828125 C201.87214111 150.67438721 201.09975098 151.11049316 200.30395508 151.55981445 C197.05907897 153.50631056 197.05907897 153.50631056 194.125 155.875 C194.29441419 159.4198314 194.29441419 159.4198314 194.75292969 162.04785156 C195.52387423 167.90581603 195.26746933 173.85119019 195.25 179.75 C195.25386719 181.04808594 195.25773437 182.34617188 195.26171875 183.68359375 C195.2541967 191.1379479 194.97209599 198.46725173 194.125 205.875 C194.68372803 206.20185791 195.24245605 206.52871582 195.81811523 206.86547852 C198.40346813 208.38296246 200.98295676 209.91016282 203.5625 211.4375 C204.44099609 211.95119141 205.31949219 212.46488281 206.22460938 212.99414062 C223.04347975 222.98616325 223.04347975 222.98616325 225.125 228.875 C225.3203125 231.671875 225.3203125 231.671875 225.25 234.625 C225.23195313 235.60984375 225.21390625 236.5946875 225.1953125 237.609375 C225.16050781 238.73085938 225.16050781 238.73085938 225.125 239.875 C225.97505615 239.85928955 226.8251123 239.8435791 227.70092773 239.82739258 C260.36133475 239.30357066 260.36133475 239.30357066 273.125 242.875 C274.32479492 243.20564453 274.32479492 243.20564453 275.54882812 243.54296875 C311.93305611 253.90712714 341.91919907 276.9188127 360.5625 309.9375 C376.95288334 340.14055061 381.62037983 377.7175702 372.125 410.875 C371.81151611 412.01316162 371.81151611 412.01316162 371.49169922 413.17431641 C365.0447292 436.05985268 352.46965169 454.8928814 336.125 471.875 C335.27228516 472.82246094 335.27228516 472.82246094 334.40234375 473.7890625 C314.36857302 495.41118846 281.54618652 509.31974931 252.4855957 511.09765625 C248.53076368 511.21464969 244.58113109 511.26107274 240.625 511.25 C239.5743486 511.24968277 239.5743486 511.24968277 238.50247192 511.24935913 C226.67184224 511.21384081 215.53312441 510.12264618 204.125 506.875 C203.45807129 506.69308105 202.79114258 506.51116211 202.10400391 506.32373047 C183.56755373 501.15495704 166.74236648 491.24175608 152.125 478.875 C151.31289063 478.19824219 150.50078125 477.52148438 149.6640625 476.82421875 C130.41360435 460.21538499 117.14423184 437.81010863 109.75 413.625 C109.51120117 412.84608398 109.27240234 412.06716797 109.02636719 411.26464844 C105.5498187 399.19483684 104.78027763 387.04215334 104.5 374.5625 C104.461688 373.12823496 104.42262939 371.69398967 104.3828125 370.25976562 C104.28830403 366.79836102 104.20377194 363.3368028 104.125 359.875 C102.98393799 359.89457764 102.98393799 359.89457764 101.81982422 359.91455078 C100.8248291 359.92470215 99.82983398 359.93485352 98.8046875 359.9453125 C97.32331299 359.96489014 97.32331299 359.96489014 95.81201172 359.98486328 C92.37239919 359.84422857 90.70696222 359.15320196 88.125 356.875 C83.30446876 351.54385593 79.62029809 345.57835947 75.8125 339.5 C74.84473633 337.96666016 74.84473633 337.96666016 73.85742188 336.40234375 C72.27608235 333.89562776 70.69874337 331.38648922 69.125 328.875 C67.949375 329.03742188 66.77375 329.19984375 65.5625 329.3671875 C58.76275526 330.12005439 51.95804903 330.0200972 45.125 330 C43.81015625 330.00386719 42.4953125 330.00773437 41.140625 330.01171875 C34.38345952 330.00493445 27.8204921 329.80003509 21.125 328.875 C20.73755615 329.49955078 20.3501123 330.12410156 19.95092773 330.76757812 C18.16222018 333.64142253 16.36246151 336.508192 14.5625 339.375 C13.95341797 340.35726563 13.34433594 341.33953125 12.71679688 342.3515625 C2.88706487 357.95431171 2.88706487 357.95431171 -2.875 359.875 C-12.34495253 361.35837757 -19.96226558 357.96406895 -28.41943359 354.22314453 C-30.62515895 353.24992987 -32.84370114 352.31258943 -35.06640625 351.37890625 C-51.80595836 344.23390664 -51.80595836 344.23390664 -54.84033203 337.84130859 C-57.18579318 329.80236207 -54.49098821 321.72814054 -52.5 313.875 C-51.9832095 311.75250196 -51.47214779 309.6286845 -50.96176147 307.50463867 C-50.50009104 305.59721004 -50.02505785 303.69303037 -49.54931641 301.7890625 C-48.79985211 299.04875857 -48.79985211 299.04875857 -48.875 296.875 C-51.37949881 294.6816814 -54.02687571 292.71043571 -56.6796875 290.69921875 C-59.10163441 288.73020925 -60.74085514 286.75419188 -62.4453125 284.14453125 C-65.33900246 279.99809499 -67.91109463 276.47490413 -72.875 274.875 C-82.05023836 275.17707094 -90.83715957 278.33962921 -99.54223633 281.00463867 C-105.06577756 282.4471282 -109.74347341 282.63913217 -115.1875 280.6875 C-120.51855448 277.09213768 -122.90688604 272.1298177 -125.328125 266.3359375 C-125.63320984 265.61443512 -125.93829468 264.89293274 -126.25262451 264.14956665 C-126.89225814 262.62679668 -127.52737413 261.10212205 -128.15820312 259.57568359 C-129.11693873 257.26939182 -130.10448886 254.97692573 -131.09375 252.68359375 C-137.63859376 237.16663202 -137.63859376 237.16663202 -135.875 228.875 C-133.32179492 223.15368182 -128.92173031 220.5336494 -123.75 217.375 C-122.99533447 216.9008667 -122.24066895 216.4267334 -121.46313477 215.93823242 C-119.27564086 214.5693209 -117.07810477 213.21860914 -114.875 211.875 C-113.77285156 211.20082031 -112.67070313 210.52664062 -111.53515625 209.83203125 C-109.32407654 208.49650104 -107.10383868 207.18047562 -104.875 205.875 C-104.9457373 205.25641113 -105.01647461 204.63782227 -105.08935547 204.00048828 C-105.92833716 195.90704275 -106.02422537 187.88164963 -106 179.75 C-106.00386719 178.44417969 -106.00773437 177.13835937 -106.01171875 175.79296875 C-106.00491917 169.06818211 -105.79361351 162.5385932 -104.875 155.875 C-105.49955078 155.48755615 -106.12410156 155.1001123 -106.76757812 154.70092773 C-109.64142253 152.91222018 -112.508192 151.11246151 -115.375 149.3125 C-116.35726562 148.70341797 -117.33953125 148.09433594 -118.3515625 147.46679688 C-133.95431171 137.63706487 -133.95431171 137.63706487 -135.875 131.875 C-137.35837757 122.40504747 -133.96406895 114.78773442 -130.22314453 106.33056641 C-129.24992987 104.12484105 -128.31258943 101.90629886 -127.37890625 99.68359375 C-120.35856081 83.26623243 -120.35856081 83.26623243 -113.0625 79.375 C-104.53350117 78.03711783 -95.68377068 80.95526762 -87.4375 82.9375 C-85.10591448 83.49276042 -82.77390424 84.04624144 -80.44140625 84.59765625 C-79.41990479 84.84265869 -78.39840332 85.08766113 -77.34594727 85.34008789 C-74.97057698 85.94552654 -74.97057698 85.94552654 -72.875 85.875 C-71.37450064 84.39138306 -71.37450064 84.39138306 -69.8125 82.4375 C-67.11304329 79.27319908 -64.35117775 76.21912836 -61.4375 73.25 C-60.75816406 72.55648437 -60.07882813 71.86296875 -59.37890625 71.1484375 C-56.06051398 68.13548228 -52.49436348 65.51322747 -48.875 62.875 C-49.2009314 61.43833984 -49.2009314 61.43833984 -49.53344727 59.97265625 C-50.34257612 56.38978947 -51.13412777 52.80322213 -51.9206543 49.21533203 C-52.26228693 47.66838331 -52.60856274 46.12245192 -52.9597168 44.57763672 C-53.46612202 42.34599607 -53.95524357 40.11112664 -54.44140625 37.875 C-54.59968399 37.19445557 -54.75796173 36.51391113 -54.92103577 35.81274414 C-56.2380692 29.61289212 -56.11124658 24.35045778 -53.24609375 18.61328125 C-50.49612471 15.43745209 -47.69039346 13.77586874 -43.9375 12.0625 C-43.25018799 11.73701172 -42.56287598 11.41152344 -41.85473633 11.07617188 C-40.34984298 10.37143483 -38.84040332 9.67634491 -37.32714844 8.98974609 C-35.62965479 8.21806589 -33.93791112 7.43365799 -32.25097656 6.63916016 C-29.53204192 5.35997827 -26.80014131 4.11357954 -24.0625 2.875 C-23.21631104 2.47692139 -22.37012207 2.07884277 -21.49829102 1.66870117 C-14.58897648 -1.36689508 -7.23513167 -2.83113848 0 0 Z " fill="#FEAF00" transform="translate(135.875,1.125)"/>
<path d="M0 0 C0.79841309 0.22042969 1.59682617 0.44085938 2.41943359 0.66796875 C38.80600543 11.03084248 68.79313407 34.0419265 87.4375 67.0625 C103.82788334 97.26555061 108.49537983 134.8425702 99 168 C98.79101074 168.75877441 98.58202148 169.51754883 98.36669922 170.29931641 C91.9197292 193.18485268 79.34465169 212.0178814 63 229 C62.43152344 229.63164062 61.86304688 230.26328125 61.27734375 230.9140625 C41.24357302 252.53618846 8.42118652 266.44474931 -20.6394043 268.22265625 C-24.59423632 268.33964969 -28.54386891 268.38607274 -32.5 268.375 C-33.5506514 268.37468277 -33.5506514 268.37468277 -34.62252808 268.37435913 C-46.45315776 268.33884081 -57.59187559 267.24764618 -69 264 C-69.66692871 263.81808105 -70.33385742 263.63616211 -71.02099609 263.44873047 C-89.55744627 258.27995704 -106.38263352 248.36675608 -121 236 C-122.21816406 234.98486328 -122.21816406 234.98486328 -123.4609375 233.94921875 C-142.71139565 217.34038499 -155.98076816 194.93510863 -163.375 170.75 C-163.61379883 169.97108398 -163.85259766 169.19216797 -164.09863281 168.38964844 C-167.4923718 156.60733321 -168.44317283 144.78415166 -168.4375 132.5625 C-168.43823517 131.8664566 -168.43897034 131.17041321 -168.43972778 130.45327759 C-168.40483443 117.78952052 -166.82874422 106.09768526 -163 94 C-162.74299316 93.17226074 -162.48598633 92.34452148 -162.22119141 91.49169922 C-155.68549053 70.98588756 -144.77886687 53.61828616 -130 38 C-129.30261719 37.24976563 -128.60523438 36.49953125 -127.88671875 35.7265625 C-96.42086746 2.93764982 -44.10752479 -12.4381759 0 0 Z " fill="#FEEDAD" transform="translate(409,244)"/>
<path d="M0 0 C1.05574219 0.3403125 2.11148438 0.680625 3.19921875 1.03125 C11.32867213 3.87896385 18.11105159 7.85810479 25 13 C25.72960937 13.54398438 26.45921875 14.08796875 27.2109375 14.6484375 C40.82631348 25.68065914 50.61517374 43.69689506 53 61 C54.81819666 83.09736708 49.87297379 103.4867486 35.54541016 120.75292969 C25.78275128 131.88079878 14.11520001 139.3547752 0 144 C-0.86238281 144.29777344 -1.72476563 144.59554687 -2.61328125 144.90234375 C-20.32776461 150.21913889 -40.74900041 147.45390982 -57 139 C-76.31529443 127.57041508 -89.921577 111.1703821 -95.74609375 89.18359375 C-99.8391685 68.88758861 -96.45380638 49.77366242 -86 32 C-82.49897513 26.8417736 -78.56613859 22.24757079 -74 18 C-73.3503125 17.33355469 -72.700625 16.66710937 -72.03125 15.98046875 C-53.67952759 -1.97363301 -24.26863999 -8.23341001 0 0 Z " fill="#FEF9C9" transform="translate(203,109)"/>
<path d="M0 0 C4.64955389 2.29497211 7.31956257 5.41461434 9.078125 10.33984375 C9.67770125 15.35294595 9.64196788 20.35699616 9.609375 25.3984375 C9.61207389 26.87142696 9.61595961 28.34441467 9.62097168 29.81739807 C9.62685004 32.89642387 9.61835953 35.9749837 9.59960938 39.05395508 C9.57684015 42.98245903 9.5899394 46.90986847 9.61389923 50.83833218 C9.62842002 53.87803753 9.6237224 56.91748755 9.61338806 59.957201 C9.61073701 61.40474645 9.61393293 62.85231577 9.62330627 64.2998333 C9.66400704 72.35174126 9.58957494 78.51588617 5.078125 85.33984375 C1.70245053 88.29094885 -2.10452479 89.22512793 -6.484375 89.83984375 C-10.65264446 89.23355001 -13.7560636 88.09013158 -16.921875 85.33984375 C-21.88341064 78.02068712 -21.50880519 70.74708581 -21.453125 62.1484375 C-21.45582442 60.67448166 -21.45971058 59.20052756 -21.46472168 57.72657776 C-21.47059383 54.6493318 -21.46212727 51.57255269 -21.44335938 48.49536133 C-21.42055021 44.5656676 -21.43371863 40.63706569 -21.45764923 36.70741177 C-21.47215249 33.66774879 -21.46748105 30.62834171 -21.45713806 27.58867073 C-21.45448428 26.14029877 -21.45769274 24.69190301 -21.46705627 23.24355888 C-21.53762722 9.2647357 -21.53762722 9.2647357 -16.921875 3.33984375 C-12.22527001 -1.12193099 -6.03821296 -2.07410161 0 0 Z " fill="#FD8100" transform="translate(381.921875,301.66015625)"/>
<path d="M0 0 C4.53390589 2.56589179 7.18733108 4.97896431 8.8203125 10.08203125 C9.47542697 15.13577148 8.63302473 18.8806733 6.21484375 23.28125 C2.90208259 27.55907323 -1.55750246 28.85435616 -6.7421875 29.58203125 C-10.89786164 28.97756956 -14.0416328 27.85501523 -17.1796875 25.08203125 C-20.61558016 20.42336502 -22.02263178 15.87727317 -21.1796875 10.08203125 C-19.43798379 5.19701612 -16.76393279 2.03445964 -12.09765625 -0.25390625 C-7.72527023 -1.76776699 -4.18671889 -1.7632239 0 0 Z " fill="#FD6B03" transform="translate(382.1796875,421.91796875)"/>
</svg>
