<?xml version="1.0" encoding="UTF-8"?>
<svg version="1.1" xmlns="http://www.w3.org/2000/svg" width="512" height="512">
<path d="M0 0 C5.9425809 5.24345374 9.8313562 11.93248914 13.9375 18.625 C14.53498047 19.58277344 15.13246094 20.54054688 15.74804688 21.52734375 C20.125 28.62050893 20.125 28.62050893 20.125 30.875 C20.67285156 30.73352539 21.22070312 30.59205078 21.78515625 30.44628906 C29.57587023 28.64429058 37.1566217 28.5776631 45.125 28.625 C46.42695313 28.61726563 47.72890625 28.60953125 49.0703125 28.6015625 C56.32838657 28.61622528 63.08481539 29.05697586 70.125 30.875 C70.39739502 30.15046631 70.66979004 29.42593262 70.95043945 28.67944336 C72.91672764 23.9846289 75.65731407 19.76901527 78.3125 15.4375 C79.14104492 14.0443457 79.14104492 14.0443457 79.98632812 12.62304688 C87.7548621 -0.05382912 87.7548621 -0.05382912 94.62207031 -1.73706055 C103.65342291 -2.42160551 111.29586015 1.34648056 119.28198242 5.06396484 C121.57321818 6.12998675 123.87720257 7.16303043 126.18554688 8.19140625 C127.6649006 8.8601282 129.14344734 9.53063888 130.62109375 10.203125 C131.30135117 10.51058655 131.98160858 10.8180481 132.68247986 11.13482666 C137.78330334 13.51996414 142.93800274 16.0368107 145 21.5625 C147.67898483 30.32003083 144.04219191 40.29759171 142.0625 48.9375 C141.78083984 50.18466797 141.49917969 51.43183594 141.20898438 52.71679688 C140.51867318 55.77054639 139.82391018 58.8232092 139.125 61.875 C139.64884277 62.32883057 140.17268555 62.78266113 140.71240234 63.25024414 C148.69438667 70.19433191 156.00788468 77.20361735 162.125 85.875 C164.14028757 85.45174664 166.15554317 85.02834063 168.1706543 84.60424805 C169.9009499 84.24082865 171.63158701 83.8790317 173.36254883 83.51879883 C177.32713014 82.69074638 181.28424027 81.8517062 185.22265625 80.90625 C197.16854081 78.09851217 197.16854081 78.09851217 203.125 79.875 C208.85525552 83.57983028 211.64879893 87.96320638 214.125 94.1875 C214.45113281 94.9707666 214.77726562 95.7540332 215.11328125 96.56103516 C215.78953733 98.18868432 216.45878363 99.81926309 217.12109375 101.45263672 C218.09309921 103.79802539 219.12679795 106.10373426 220.1875 108.41015625 C227.71766929 125.04252427 227.71766929 125.04252427 225.125 132.875 C220.69304274 139.52936647 214.79785998 143.34146425 207.9375 147.1875 C206.17216262 148.202665 204.4078025 149.21953175 202.64453125 150.23828125 C201.87214111 150.67438721 201.09975098 151.11049316 200.30395508 151.55981445 C197.05907897 153.50631056 197.05907897 153.50631056 194.125 155.875 C194.29441419 159.4198314 194.29441419 159.4198314 194.75292969 162.04785156 C195.52387423 167.90581603 195.26746933 173.85119019 195.25 179.75 C195.25386719 181.04808594 195.25773437 182.34617188 195.26171875 183.68359375 C195.2541967 191.1379479 194.97209599 198.46725173 194.125 205.875 C194.68372803 206.20185791 195.24245605 206.52871582 195.81811523 206.86547852 C198.40346813 208.38296246 200.98295676 209.91016282 203.5625 211.4375 C204.44099609 211.95119141 205.31949219 212.46488281 206.22460938 212.99414062 C223.04347975 222.98616325 223.04347975 222.98616325 225.125 228.875 C225.3203125 231.671875 225.3203125 231.671875 225.25 234.625 C225.23195313 235.60984375 225.21390625 236.5946875 225.1953125 237.609375 C225.16050781 238.73085938 225.16050781 238.73085938 225.125 239.875 C225.97505615 239.85928955 226.8251123 239.8435791 227.70092773 239.82739258 C260.36133475 239.30357066 260.36133475 239.30357066 273.125 242.875 C274.32479492 243.20564453 274.32479492 243.20564453 275.54882812 243.54296875 C311.93305611 253.90712714 341.91919907 276.9188127 360.5625 309.9375 C376.95288334 340.14055061 381.62037983 377.7175702 372.125 410.875 C371.81151611 412.01316162 371.81151611 412.01316162 371.49169922 413.17431641 C365.0447292 436.05985268 352.46965169 454.8928814 336.125 471.875 C335.27228516 472.82246094 335.27228516 472.82246094 334.40234375 473.7890625 C314.36857302 495.41118846 281.54618652 509.31974931 252.4855957 511.09765625 C248.53076368 511.21464969 244.58113109 511.26107274 240.625 511.25 C239.5743486 511.24968277 239.5743486 511.24968277 238.50247192 511.24935913 C226.67184224 511.21384081 215.53312441 510.12264618 204.125 506.875 C203.45807129 506.69308105 202.79114258 506.51116211 202.10400391 506.32373047 C183.56755373 501.15495704 166.74236648 491.24175608 152.125 478.875 C151.31289063 478.19824219 150.50078125 477.52148438 149.6640625 476.82421875 C130.41360435 460.21538499 117.14423184 437.81010863 109.75 413.625 C109.51120117 412.84608398 109.27240234 412.06716797 109.02636719 411.26464844 C105.5498187 399.19483684 104.78027763 387.04215334 104.5 374.5625 C104.461688 373.12823496 104.42262939 371.69398967 104.3828125 370.25976562 C104.28830403 366.79836102 104.20377194 363.3368028 104.125 359.875 C102.98393799 359.89457764 102.98393799 359.89457764 101.81982422 359.91455078 C100.8248291 359.92470215 99.82983398 359.93485352 98.8046875 359.9453125 C97.32331299 359.96489014 97.32331299 359.96489014 95.81201172 359.98486328 C92.37239919 359.84422857 90.70696222 359.15320196 88.125 356.875 C83.30446876 351.54385593 79.62029809 345.57835947 75.8125 339.5 C74.84473633 337.96666016 74.84473633 337.96666016 73.85742188 336.40234375 C72.27608235 333.89562776 70.69874337 331.38648922 69.125 328.875 C67.949375 329.03742188 66.77375 329.19984375 65.5625 329.3671875 C58.76275526 330.12005439 51.95804903 330.0200972 45.125 330 C43.81015625 330.00386719 42.4953125 330.00773437 41.140625 330.01171875 C34.38345952 330.00493445 27.8204921 329.80003509 21.125 328.875 C20.73755615 329.49955078 20.3501123 330.12410156 19.95092773 330.76757812 C18.16222018 333.64142253 16.36246151 336.508192 14.5625 339.375 C13.95341797 340.35726563 13.34433594 341.33953125 12.71679688 342.3515625 C2.88706487 357.95431171 2.88706487 357.95431171 -2.875 359.875 C-12.34495253 361.35837757 -19.96226558 357.96406895 -28.41943359 354.22314453 C-30.62515895 353.24992987 -32.84370114 352.31258943 -35.06640625 351.37890625 C-51.80595836 344.23390664 -51.80595836 344.23390664 -54.84033203 337.84130859 C-57.18579318 329.80236207 -54.49098821 321.72814054 -52.5 313.875 C-51.9832095 311.75250196 -51.47214779 309.6286845 -50.96176147 307.50463867 C-50.50009104 305.59721004 -50.02505785 303.69303037 -49.54931641 301.7890625 C-48.79985211 299.04875857 -48.79985211 299.04875857 -48.875 296.875 C-51.37949881 294.6816814 -54.02687571 292.71043571 -56.6796875 290.69921875 C-59.10163441 288.73020925 -60.74085514 286.75419188 -62.4453125 284.14453125 C-65.33900246 279.99809499 -67.91109463 276.47490413 -72.875 274.875 C-82.05023836 275.17707094 -90.83715957 278.33962921 -99.54223633 281.00463867 C-105.06577756 282.4471282 -109.74347341 282.63913217 -115.1875 280.6875 C-120.51855448 277.09213768 -122.90688604 272.1298177 -125.328125 266.3359375 C-125.63320984 265.61443512 -125.93829468 264.89293274 -126.25262451 264.14956665 C-126.89225814 262.62679668 -127.52737413 261.10212205 -128.15820312 259.57568359 C-129.11693873 257.26939182 -130.10448886 254.97692573 -131.09375 252.68359375 C-137.63859376 237.16663202 -137.63859376 237.16663202 -135.875 228.875 C-133.32179492 223.15368182 -128.92173031 220.5336494 -123.75 217.375 C-122.99533447 216.9008667 -122.24066895 216.4267334 -121.46313477 215.93823242 C-119.27564086 214.5693209 -117.07810477 213.21860914 -114.875 211.875 C-113.77285156 211.20082031 -112.67070313 210.52664062 -111.53515625 209.83203125 C-109.32407654 208.49650104 -107.10383868 207.18047562 -104.875 205.875 C-104.9457373 205.25641113 -105.01647461 204.63782227 -105.08935547 204.00048828 C-105.92833716 195.90704275 -106.02422537 187.88164963 -106 179.75 C-106.00386719 178.44417969 -106.00773437 177.13835937 -106.01171875 175.79296875 C-106.00491917 169.06818211 -105.79361351 162.5385932 -104.875 155.875 C-105.49955078 155.48755615 -106.12410156 155.1001123 -106.76757812 154.70092773 C-109.64142253 152.91222018 -112.508192 151.11246151 -115.375 149.3125 C-116.35726562 148.70341797 -117.33953125 148.09433594 -118.3515625 147.46679688 C-133.95431171 137.63706487 -133.95431171 137.63706487 -135.875 131.875 C-137.35837757 122.40504747 -133.96406895 114.78773442 -130.22314453 106.33056641 C-129.24992987 104.12484105 -128.31258943 101.90629886 -127.37890625 99.68359375 C-120.35856081 83.26623243 -120.35856081 83.26623243 -113.0625 79.375 C-104.53350117 78.03711783 -95.68377068 80.95526762 -87.4375 82.9375 C-85.10591448 83.49276042 -82.77390424 84.04624144 -80.44140625 84.59765625 C-79.41990479 84.84265869 -78.39840332 85.08766113 -77.34594727 85.34008789 C-74.97057698 85.94552654 -74.97057698 85.94552654 -72.875 85.875 C-71.20217819 84.25992637 -71.20217819 84.25992637 -69.5 82.1875 C-68.87222656 81.45273438 -68.24445313 80.71796875 -67.59765625 79.9609375 C-66.34184529 78.44029566 -65.12692566 76.88561136 -63.9375 75.3125 C-61.5187712 72.45400233 -58.83115795 70.12830213 -55.97265625 67.71875 C-55.28042969 67.1103125 -54.58820313 66.501875 -53.875 65.875 C-52.98449951 65.15610596 -52.09399902 64.43721191 -51.17651367 63.6965332 C-48.51189277 61.05702981 -48.51189277 61.05702981 -48.96582031 57.58862305 C-49.29163086 56.36699463 -49.61744141 55.14536621 -49.953125 53.88671875 C-50.11794373 53.22468948 -50.28276245 52.56266022 -50.45257568 51.88056946 C-50.98274638 49.76640414 -51.55096144 47.66513914 -52.125 45.5625 C-52.67941241 43.46979859 -53.22487993 41.37566314 -53.75457764 39.27656555 C-54.23999856 37.36275314 -54.75256441 35.45588613 -55.26660156 33.54956055 C-56.16462022 28.1257729 -55.7707248 23.70227858 -53.3125 18.6875 C-47.422804 11.89169692 -38.61594186 8.76376342 -30.4855957 5.37084961 C-28.56828947 4.56493353 -26.66463624 3.73129116 -24.75976562 2.89648438 C-16.65774114 -0.55645879 -8.58902621 -3.3609233 0 0 Z " fill="#65E4A6" transform="translate(135.875,1.125)"/>
<path d="M0 0 C0.79841309 0.22042969 1.59682617 0.44085938 2.41943359 0.66796875 C38.80600543 11.03084248 68.79313407 34.0419265 87.4375 67.0625 C103.82788334 97.26555061 108.49537983 134.8425702 99 168 C98.79101074 168.75877441 98.58202148 169.51754883 98.36669922 170.29931641 C91.9197292 193.18485268 79.34465169 212.0178814 63 229 C62.43152344 229.63164062 61.86304688 230.26328125 61.27734375 230.9140625 C41.24357302 252.53618846 8.42118652 266.44474931 -20.6394043 268.22265625 C-24.59423632 268.33964969 -28.54386891 268.38607274 -32.5 268.375 C-33.5506514 268.37468277 -33.5506514 268.37468277 -34.62252808 268.37435913 C-46.45315776 268.33884081 -57.59187559 267.24764618 -69 264 C-69.66692871 263.81808105 -70.33385742 263.63616211 -71.02099609 263.44873047 C-89.55744627 258.27995704 -106.38263352 248.36675608 -121 236 C-122.21816406 234.98486328 -122.21816406 234.98486328 -123.4609375 233.94921875 C-142.71139565 217.34038499 -155.98076816 194.93510863 -163.375 170.75 C-163.61379883 169.97108398 -163.85259766 169.19216797 -164.09863281 168.38964844 C-173.81086166 134.6709263 -168.27336046 97.58620839 -151.875 66.921875 C-134.15162032 35.39589933 -105.40057822 12.68112172 -71 2 C-70.1838623 1.7417041 -69.36772461 1.4834082 -68.52685547 1.21728516 C-47.44029303 -5.19642411 -21.3205063 -6.01231216 0 0 Z " fill="#D2FEEB" transform="translate(409,244)"/>
<path d="M0 0 C16.33423836 11.93848003 27.81035475 29.55991802 31.26171875 49.62792969 C32.76550858 61.12189665 32.37652065 72.8794172 28.5546875 83.8671875 C28.214375 84.92035156 27.8740625 85.97351563 27.5234375 87.05859375 C20.72177067 106.52147147 6.9071625 121.00888416 -11.4453125 129.8671875 C-12.73888672 130.49367187 -12.73888672 130.49367187 -14.05859375 131.1328125 C-31.50312988 138.78442573 -51.59429203 139.34219775 -69.4453125 132.8671875 C-78.4976709 129.28970668 -86.2547677 124.39325951 -93.4453125 117.8671875 C-94.28835937 117.11695313 -95.13140625 116.36671875 -96 115.59375 C-106.03574583 106.16807991 -112.28031293 94.91864365 -116.4453125 81.8671875 C-116.69152344 81.09632813 -116.93773438 80.32546875 -117.19140625 79.53125 C-122.1787591 59.92579395 -117.67378402 38.90722304 -107.63427734 21.75585938 C-96.74506011 4.45832661 -79.03237813 -7.34424595 -59.34375 -12.4765625 C-38.80283579 -15.93435167 -17.30230283 -11.68532336 0 0 Z " fill="#E7FEF1" transform="translate(224.4453125,119.1328125)"/>
<path d="M0 0 C4.36386021 1.82673218 7.29414632 3.98533533 10 7.875 C11.64805091 13.0251591 11.71261554 16.95651584 9.34407043 21.82279968 C7.15613817 26.03328077 4.4184941 29.1490178 1.05737305 32.46020508 C0.18091125 33.34718079 0.18091125 33.34718079 -0.71325684 34.2520752 C-2.62839558 36.18467726 -4.55762381 38.1024417 -6.48828125 40.01953125 C-7.83401452 41.3679624 -9.17915382 42.71698658 -10.52372742 44.0665741 C-13.33578185 46.88450751 -16.15489687 49.6951255 -18.97924805 52.50073242 C-22.59075218 56.08942663 -26.18396969 59.69581166 -29.77209187 63.3078661 C-32.54359462 66.09385102 -35.32458882 68.87020418 -38.10851097 71.64377403 C-39.43705688 72.96966051 -40.76266247 74.29850024 -42.08519936 75.63038063 C-43.93699597 77.4923846 -45.80122046 79.34100668 -47.66918945 81.18676758 C-48.20813339 81.73380844 -48.74707733 82.2808493 -49.30235291 82.84446716 C-53.80428603 87.24820244 -58.09264422 89.57711189 -64.4375 90.5 C-72.22837056 89.40654448 -77.87381958 83.58578212 -83.23828125 78.1953125 C-83.885728 77.5531076 -84.53317474 76.91090271 -85.20024109 76.24923706 C-86.55595309 74.89990365 -87.90786934 73.54674658 -89.25610352 72.18994141 C-91.3123447 70.12515595 -93.38662831 68.07978542 -95.46289062 66.03515625 C-96.78498525 64.71467316 -98.10598725 63.39309501 -99.42578125 62.0703125 C-100.04141434 61.46591339 -100.65704742 60.86151428 -101.29133606 60.23880005 C-105.96221639 55.49165928 -108.5215048 51.28965448 -109.5 44.5625 C-108.83355692 39.81409305 -107.10482162 36.62773894 -104 33 C-99.66611877 29.9851261 -96.220604 29.3699271 -91 30 C-83.61909185 32.9444268 -78.95017699 37.56903376 -73.5 43.25 C-72.67757812 44.09046875 -71.85515625 44.9309375 -71.0078125 45.796875 C-68.99574675 47.85573297 -66.99367828 49.92335815 -65 52 C-61.36470798 50.46933192 -59.07922194 48.30462196 -56.32666016 45.50610352 C-55.40535309 44.57496231 -54.48404602 43.64382111 -53.53482056 42.6844635 C-53.04689655 42.18667955 -52.55897255 41.68889561 -52.05626297 41.1760273 C-50.52197587 39.61148265 -48.98102566 38.05379074 -47.43807983 36.49778748 C-43.05361402 32.07365163 -38.68194103 27.63695202 -34.31347656 23.19702148 C-31.63738465 20.47808993 -28.9539216 17.76660688 -26.26606369 15.05930901 C-25.24651359 14.02922793 -24.22988653 12.99624479 -23.21632767 11.96026802 C-21.79521305 10.50777485 -20.36385255 9.06532797 -18.93212891 7.62329102 C-17.71778671 6.38990746 -17.71778671 6.38990746 -16.47891235 5.13160706 C-11.57070425 0.91105807 -6.49379858 -1.28662178 0 0 Z " fill="#27C7A0" transform="translate(425,331)"/>
</svg>
