<?xml version="1.0" encoding="UTF-8"?>
<svg version="1.1" xmlns="http://www.w3.org/2000/svg" width="512" height="512">
<path d="M0 0 C1.01803711 0.19335938 2.03607422 0.38671875 3.08496094 0.5859375 C63.66364931 12.49221292 122.43526962 46.50778963 159 97 C159.48130371 97.65291016 159.96260742 98.30582031 160.45849609 98.97851562 C177.9035356 122.68630752 191.82509092 148.63721331 200 177 C200.39759521 178.35593262 200.39759521 178.35593262 200.80322266 179.73925781 C207.65834998 203.43262736 211.22813436 227.46055987 211.25 252.125 C211.25101212 253.16563599 211.25101212 253.16563599 211.25204468 254.22729492 C211.23105428 267.9703155 210.1663781 281.41687505 208 295 C207.77449463 296.44270264 207.77449463 296.44270264 207.54443359 297.91455078 C197.61481841 358.53366571 163.51691596 416.24947832 115 454 C113.56140625 455.16402344 113.56140625 455.16402344 112.09375 456.3515625 C78.15736734 483.34641235 37.49756836 499.5817754 -5 507 C-6.58180054 507.28254639 -6.58180054 507.28254639 -8.19555664 507.57080078 C-20.35242285 509.47725909 -32.53424215 509.39701979 -44.8125 509.375 C-45.94861725 509.37445618 -47.0847345 509.37391235 -48.25527954 509.37335205 C-64.85896456 509.33674878 -80.76659334 508.77381778 -97 505 C-98.00337402 504.78037598 -99.00674805 504.56075195 -100.04052734 504.33447266 C-141.55848487 495.17524175 -180.46421808 476.59411257 -212.42602539 448.38525391 C-213.56756925 447.38058199 -214.71613537 446.383871 -215.86889648 445.39208984 C-227.20258926 435.60734887 -237.95459176 424.94989712 -247 413 C-247.62285889 412.19175781 -247.62285889 412.19175781 -248.25830078 411.3671875 C-275.88727926 375.42836314 -293.30370507 333.79180938 -300 289 C-300.1757959 287.82598633 -300.3515918 286.65197266 -300.53271484 285.44238281 C-301.19585341 280.00764415 -301.20088265 274.57042638 -301.23828125 269.1015625 C-301.246353 267.95376312 -301.25442474 266.80596375 -301.26274109 265.62338257 C-301.27653681 263.19099411 -301.28727902 260.75858667 -301.29516602 258.32617188 C-301.30657136 255.89089088 -301.32683592 253.45563253 -301.35668945 251.02050781 C-301.62449564 229.11126846 -299.78294898 207.69111694 -293.6875 186.5625 C-293.38610107 185.48943604 -293.08470215 184.41637207 -292.77416992 183.31079102 C-281.8862389 145.34327512 -262.79873011 110.50719223 -236.1328125 81.35546875 C-234.30504283 79.33688796 -232.55653806 77.27771647 -230.8125 75.1875 C-195.09165627 34.36367859 -141.4357745 9.84347417 -89 0 C-87.71971924 -0.24991699 -87.71971924 -0.24991699 -86.41357422 -0.50488281 C-58.9377261 -5.6656196 -27.41387749 -5.2855258 0 0 Z " fill="#2859E6" transform="translate(301,3)"/>
<path d="M0 0 C1.01803711 0.19335938 2.03607422 0.38671875 3.08496094 0.5859375 C63.66364931 12.49221292 122.43526962 46.50778963 159 97 C159.48130371 97.65291016 159.96260742 98.30582031 160.45849609 98.97851562 C177.9035356 122.68630752 191.82509092 148.63721331 200 177 C200.39759521 178.35593262 200.39759521 178.35593262 200.80322266 179.73925781 C207.65834998 203.43262736 211.22813436 227.46055987 211.25 252.125 C211.25101212 253.16563599 211.25101212 253.16563599 211.25204468 254.22729492 C211.23105428 267.9703155 210.1663781 281.41687505 208 295 C207.77449463 296.44270264 207.77449463 296.44270264 207.54443359 297.91455078 C197.61481841 358.53366571 163.51691596 416.24947832 115 454 C113.56140625 455.16402344 113.56140625 455.16402344 112.09375 456.3515625 C78.15736734 483.34641235 37.49756836 499.5817754 -5 507 C-6.58180054 507.28254639 -6.58180054 507.28254639 -8.19555664 507.57080078 C-20.35242285 509.47725909 -32.53424215 509.39701979 -44.8125 509.375 C-45.94861725 509.37445618 -47.0847345 509.37391235 -48.25527954 509.37335205 C-64.85896456 509.33674878 -80.76659334 508.77381778 -97 505 C-98.00337402 504.78037598 -99.00674805 504.56075195 -100.04052734 504.33447266 C-141.55848487 495.17524175 -180.46421808 476.59411257 -212.42602539 448.38525391 C-213.56756925 447.38058199 -214.71613537 446.383871 -215.86889648 445.39208984 C-227.20258926 435.60734887 -237.95459176 424.94989712 -247 413 C-247.62285889 412.19175781 -247.62285889 412.19175781 -248.25830078 411.3671875 C-275.88727926 375.42836314 -293.30370507 333.79180938 -300 289 C-300.1757959 287.82598633 -300.3515918 286.65197266 -300.53271484 285.44238281 C-301.19585341 280.00764415 -301.20088265 274.57042638 -301.23828125 269.1015625 C-301.246353 267.95376312 -301.25442474 266.80596375 -301.26274109 265.62338257 C-301.27653681 263.19099411 -301.28727902 260.75858667 -301.29516602 258.32617188 C-301.30657136 255.89089088 -301.32683592 253.45563253 -301.35668945 251.02050781 C-301.62449564 229.11126846 -299.78294898 207.69111694 -293.6875 186.5625 C-293.38610107 185.48943604 -293.08470215 184.41637207 -292.77416992 183.31079102 C-281.8862389 145.34327512 -262.79873011 110.50719223 -236.1328125 81.35546875 C-234.30504283 79.33688796 -232.55653806 77.27771647 -230.8125 75.1875 C-195.09165627 34.36367859 -141.4357745 9.84347417 -89 0 C-87.71971924 -0.24991699 -87.71971924 -0.24991699 -86.41357422 -0.50488281 C-58.9377261 -5.6656196 -27.41387749 -5.2855258 0 0 Z M-104 53 C-104.80743652 53.22139648 -105.61487305 53.44279297 -106.44677734 53.67089844 C-156.03339733 67.62351772 -200.25493131 104.34778218 -225.6796875 148.7421875 C-238.22831025 171.40820549 -246.32886776 194.55487572 -251 220 C-251.13277344 220.69883301 -251.26554687 221.39766602 -251.40234375 222.11767578 C-260.39986759 271.74306356 -246.72091089 327.66213135 -218.40917969 368.95532227 C-185.69179993 415.22511123 -138.09351889 448.3867625 -81.80493164 458.36035156 C-51.74244281 463.44241196 -19.35163739 462.69053376 10 454 C10.89364258 453.73590332 11.78728516 453.47180664 12.70800781 453.19970703 C43.6868336 443.84399821 71.06543916 428.99478345 94.81640625 406.97265625 C96.35387319 405.58371027 97.94646485 404.25460507 99.57421875 402.97265625 C101.73693599 401.21392484 103.46066434 399.49870647 105.25 397.375 C107.13640753 395.15593566 109.02619734 392.97228836 111.02734375 390.85546875 C137.88227237 362.34942336 155.00615678 323.41285901 161 285 C161.11569336 284.29875 161.23138672 283.5975 161.35058594 282.875 C169.87122658 229.47561415 155.02772399 174.83694318 123.9375 131.1875 C114.46669189 118.49661713 104.24224173 106.11218135 92 96 C90.69675781 94.86498047 90.69675781 94.86498047 89.3671875 93.70703125 C72.03148936 78.79833085 52.13872862 67.58137526 31 59 C30.24831543 58.69320312 29.49663086 58.38640625 28.72216797 58.0703125 C-13.44908367 41.22700483 -60.63064573 40.90424438 -104 53 Z " fill="#5A80EB" transform="translate(301,3)"/>
<path d="M0 0 C1.01803711 0.19335938 2.03607422 0.38671875 3.08496094 0.5859375 C63.66364931 12.49221292 122.43526962 46.50778963 159 97 C159.48130371 97.65291016 159.96260742 98.30582031 160.45849609 98.97851562 C170.95860767 113.24815715 179.69833314 128.0006183 187.4375 143.9375 C188.20030273 145.50081055 188.20030273 145.50081055 188.97851562 147.09570312 C191.92086939 153.27662076 194.26900616 159.37415554 196 166 C189.65568464 168.30702377 183.24125239 169.93967893 176.66894531 171.44165039 C170.48919848 172.86060804 164.37991572 174.47700238 158.26953125 176.16796875 C155.18840429 176.95205482 152.14247178 177.52791395 149 178 C148.59910156 177.11441406 148.19820313 176.22882813 147.78515625 175.31640625 C137.53824282 152.88248075 125.49383112 132.457982 109 114 C108.20722656 113.08605469 107.41445313 112.17210938 106.59765625 111.23046875 C102.04334421 106.0377745 97.30520879 101.41160093 92 97 C91.12859375 96.24074219 90.2571875 95.48148437 89.359375 94.69921875 C72.02275314 79.79621359 52.13630783 68.58039253 31 60 C30.24831543 59.69320312 29.49663086 59.38640625 28.72216797 59.0703125 C-13.44908367 42.22700483 -60.63064573 41.90424438 -104 54 C-105.21115479 54.33209473 -105.21115479 54.33209473 -106.44677734 54.67089844 C-155.66617476 68.5201891 -199.43237548 104.65761911 -224.6796875 148.7421875 C-237.22831025 171.40820549 -245.32886776 194.55487572 -250 220 C-250.13277344 220.69883301 -250.26554687 221.39766602 -250.40234375 222.11767578 C-252.33540954 232.77940242 -252.17415567 243.57828849 -252.1875 254.375 C-252.18867828 255.11319977 -252.18985657 255.85139954 -252.19107056 256.61196899 C-252.1895338 265.11790881 -251.98522594 273.53998164 -251 282 C-257.32057832 284.23907709 -263.65170488 285.95506118 -270.1875 287.4375 C-277.66745434 289.16837122 -285.03406258 291.07148421 -292.3828125 293.30078125 C-295 294 -295 294 -298 294 C-298.495 287.565 -298.495 287.565 -299 281 C-299.66 281 -300.32 281 -301 281 C-301.10350728 273.64335514 -301.17232181 266.28690504 -301.21972656 258.9296875 C-301.23953903 256.43970733 -301.26659662 253.94977167 -301.30175781 251.45996094 C-301.60520603 229.37964049 -299.83142783 207.85915887 -293.6875 186.5625 C-293.38610107 185.48943604 -293.08470215 184.41637207 -292.77416992 183.31079102 C-281.8862389 145.34327512 -262.79873011 110.50719223 -236.1328125 81.35546875 C-234.30504283 79.33688796 -232.55653806 77.27771647 -230.8125 75.1875 C-195.09165627 34.36367859 -141.4357745 9.84347417 -89 0 C-87.71971924 -0.24991699 -87.71971924 -0.24991699 -86.41357422 -0.50488281 C-58.9377261 -5.6656196 -27.41387749 -5.2855258 0 0 Z " fill="#8BA6F1" transform="translate(301,3)"/>
<path d="M0 0 C1.2694043 -0.03577148 1.2694043 -0.03577148 2.56445312 -0.07226562 C6.64313241 -0.06268376 9.05597599 0.27195577 12.640625 2.328125 C15.62858927 7.35665024 15.0925253 12.1490649 14.875 17.875 C14.85244141 18.99712891 14.82988281 20.11925781 14.80664062 21.27539062 C14.74783776 24.03912536 14.66570401 26.80012554 14.5625 29.5625 C15.60535156 29.51867187 16.64820313 29.47484375 17.72265625 29.4296875 C28.0944848 29.78842826 37.38472411 36.97477502 44.25 44.3125 C49.52582966 50.6507393 52.80782947 57.37028864 53.91015625 65.5546875 C53.5625 67.5625 53.5625 67.5625 52.12109375 69.7890625 C48.35092965 72.40227548 45.04468625 72.1484205 40.5625 72.0625 C39.75554687 72.07796875 38.94859375 72.0934375 38.1171875 72.109375 C34.33610684 72.08441737 32.23312132 72.05364414 29.125 69.77734375 C27.6986456 67.75548639 26.56388196 65.88257987 25.5625 63.625 C22.56183995 57.44043349 19.30929342 53.48766675 13.0078125 50.515625 C8.31421377 49.21716911 3.85284857 49.04617726 -1 49 C-1.8861499 48.98541748 -2.7722998 48.97083496 -3.68530273 48.95581055 C-10.41810418 49.05889232 -16.98643405 50.34340367 -22.06469727 55.08032227 C-26.86771062 60.70334146 -26.77780102 64.91382551 -26.71875 72.1328125 C-26.37115722 76.37151338 -25.40418175 78.51563767 -22.4375 81.5625 C-21.73625 82.284375 -21.035 83.00625 -20.3125 83.75 C-16.2544951 86.30830744 -12.05355245 87.36942798 -7.4375 88.5625 C-6.76460937 88.7584375 -6.09171875 88.954375 -5.3984375 89.15625 C-1.722937 90.18478512 1.75353779 90.68773199 5.5625 90.9375 C21.53719834 92.22078602 40.59553395 97.15687786 51.33984375 109.625 C59.14364901 120.30991674 60.2162252 133.73458891 58.5625 146.5625 C55.74936547 158.83694045 47.70598044 169.24241334 37.27734375 176.0234375 C30.08698377 180.09969913 23.92937545 182.9063442 15.5625 182.5625 C15.57297363 183.23829102 15.58344727 183.91408203 15.59423828 184.61035156 C15.63585976 187.67769642 15.66184573 190.74498178 15.6875 193.8125 C15.70425781 194.87597656 15.72101563 195.93945312 15.73828125 197.03515625 C15.74472656 198.05996094 15.75117188 199.08476562 15.7578125 200.140625 C15.76828613 201.08325195 15.77875977 202.02587891 15.78955078 202.99707031 C15.55054611 205.69756607 15.02614181 207.29542865 13.5625 209.5625 C10.05146058 211.31801971 6.05527754 210.78961374 2.1875 210.8125 C0.89199219 210.8434375 0.89199219 210.8434375 -0.4296875 210.875 C-1.68265625 210.88273437 -1.68265625 210.88273437 -2.9609375 210.890625 C-3.72325684 210.8999707 -4.48557617 210.90931641 -5.27099609 210.91894531 C-8.13929491 210.44703679 -9.4354369 209.6735475 -11.4375 207.5625 C-11.89160156 204.92700195 -11.89160156 204.92700195 -11.828125 201.80078125 C-11.81523437 200.68251953 -11.80234375 199.56425781 -11.7890625 198.41210938 C-11.75554687 197.24486328 -11.72203125 196.07761719 -11.6875 194.875 C-11.66945312 193.69615234 -11.65140625 192.51730469 -11.6328125 191.30273438 C-11.58561859 188.38851074 -11.51979077 185.47590969 -11.4375 182.5625 C-12.09049072 182.58570313 -12.74348145 182.60890625 -13.41625977 182.6328125 C-26.61119946 182.90509868 -36.53239981 176.59699444 -46.2109375 167.984375 C-53.28801662 160.57029211 -57.94921398 149.97423221 -58.85546875 139.8671875 C-58.4375 137.5625 -58.4375 137.5625 -56.984375 135.29296875 C-53.23158013 132.74314033 -49.93934655 132.93938242 -45.5 133 C-44.70142578 132.97615234 -43.90285156 132.95230469 -43.08007812 132.92773438 C-38.8297253 132.93829863 -36.95327774 133.17600513 -33.4609375 135.79296875 C-31.48721916 138.4944481 -30.6661024 140.20509609 -30 143.4375 C-28.3908764 149.44489477 -25.71385754 153.49189253 -20.41015625 156.84375 C-10.81027802 161.8492731 2.16950056 162.62104927 12.65283203 160.04980469 C19.36154849 157.648563 24.2264322 153.92955212 27.609375 147.60546875 C30.02838914 141.2219592 30.77307868 135.79605972 28.0625 129.375 C24.79971544 123.71065853 19.32496749 120.92186805 13.1875 119.0859375 C11.64976617 118.68762081 10.10783185 118.30523768 8.5625 117.9375 C7.73943359 117.7307666 6.91636719 117.5240332 6.06835938 117.31103516 C-0.52632155 115.69028698 -7.16521948 114.43324247 -13.84765625 113.23828125 C-26.8597166 110.78878567 -41.92089888 106.58243569 -49.8125 95.125 C-56.15796153 84.63125891 -58.55060763 72.73942459 -55.75390625 60.59375 C-51.42462819 47.80351773 -42.94115124 38.07287393 -31.30859375 31.328125 C-27.08266983 29.24162232 -23.34965466 28.31353347 -18.64453125 27.95703125 C-17.66589111 27.8794458 -16.68725098 27.80186035 -15.67895508 27.72192383 C-14.9392749 27.66931396 -14.19959473 27.6167041 -13.4375 27.5625 C-13.45844727 26.88670898 -13.47939453 26.21091797 -13.50097656 25.51464844 C-13.58421643 22.44741746 -13.63618466 19.38042418 -13.6875 16.3125 C-13.72101563 15.24902344 -13.75453125 14.18554688 -13.7890625 13.08984375 C-13.80195313 12.06503906 -13.81484375 11.04023438 -13.828125 9.984375 C-13.84907227 9.04174805 -13.87001953 8.09912109 -13.89160156 7.12792969 C-12.54041738 -0.50553452 -6.26484332 -0.08074476 0 0 Z " fill="#FCFDFE" transform="translate(255.4375,150.4375)"/>
<path d="M0 0 C2.46963812 0.90370157 4.9077584 1.86294586 7.34326172 2.85498047 C8.2251416 3.21285645 9.10702148 3.57073242 10.015625 3.93945312 C28.20833821 11.49795436 43.68486779 22.68807517 57.78076172 36.29248047 C58.63283203 37.08138672 59.48490234 37.87029297 60.36279297 38.68310547 C81.46997384 58.75985704 94.75573979 86.36331784 101.78076172 114.29248047 C101.96010254 115.00243164 102.13944336 115.71238281 102.32421875 116.44384766 C107.37999694 137.62088083 106.15722031 161.10536504 101.78076172 182.29248047 C101.57580078 183.35337891 101.37083984 184.41427734 101.15966797 185.50732422 C92.67997654 223.90294566 67.64923503 259.94563503 34.5625 281.17480469 C23.43506286 288.15499203 12.02008002 293.55679568 -0.21923828 298.29248047 C-1.15123047 298.68951172 -2.08322266 299.08654297 -3.04345703 299.49560547 C-5.86261289 300.52811498 -7.39941251 300.25715771 -10.21923828 299.29248047 C-12.22092078 297.70550119 -13.11005329 296.81390229 -13.63916016 294.28710938 C-13.69207161 291.82937214 -13.72662083 289.37586819 -13.71923828 286.91748047 C-13.74759766 286.06669922 -13.77595703 285.21591797 -13.80517578 284.33935547 C-13.81843082 280.08448684 -13.67060753 277.92405741 -11.14501953 274.39013672 C-7.89009725 272.05650085 -4.6158515 270.53166713 -0.90673828 269.10498047 C22.92731591 259.2732606 42.8607374 241.85745153 56.78076172 220.29248047 C57.49103516 219.19291016 58.20130859 218.09333984 58.93310547 216.96044922 C64.63173746 207.56481606 68.29643495 197.67410098 71.78076172 187.29248047 C72.12107422 186.29861328 72.46138672 185.30474609 72.81201172 184.28076172 C82.54265269 154.06712149 77.47882098 119.31283212 63.78076172 91.29248047 C63.26384766 90.22642578 62.74693359 89.16037109 62.21435547 88.06201172 C53.94375557 72.08420428 41.35165997 56.85975014 26.78076172 46.29248047 C26.23081543 45.89077637 25.68086914 45.48907227 25.11425781 45.07519531 C16.67088755 38.97525282 7.97180869 34.21204185 -1.53955078 29.98388672 C-9.51226601 26.34908827 -9.51226601 26.34908827 -12.01220703 22.61279297 C-13.4281031 18.71793323 -13.62648222 15.25283902 -13.53173828 11.16748047 C-13.53496094 10.46494141 -13.53818359 9.76240234 -13.54150391 9.03857422 C-13.5030543 5.34042118 -13.38558205 2.3697603 -11.21923828 -0.70751953 C-7.61764248 -2.50831743 -3.68452028 -1.17466884 0 0 Z " fill="#FCFDFE" transform="translate(308.21923828125,106.70751953125)"/>
<path d="M0 0 C1.7890625 1.0390625 1.7890625 1.0390625 3 3 C3.29932215 5.88170931 3.41872379 8.49894635 3.375 11.375 C3.38660156 12.13039063 3.39820313 12.88578125 3.41015625 13.6640625 C3.3862835 18.21580023 3.15261547 21.47355661 0 25 C-2.56160269 26.58554437 -5.24609495 27.78813255 -8 29 C-9.30105859 29.62555232 -10.5993222 30.25695564 -11.89453125 30.89453125 C-12.53438965 31.20648438 -13.17424805 31.5184375 -13.83349609 31.83984375 C-45.51535924 47.41109255 -70.14764623 73.15635656 -81.71875 106.83984375 C-92.77737523 141.33182828 -89.90376036 177.45266234 -73.75512695 209.76416016 C-59.35914833 237.44897366 -36.81637953 256.53041158 -8.75 269.23828125 C0.73596787 273.62530565 0.73596787 273.62530565 3 278 C3.29411699 280.90368441 3.41951271 283.54170114 3.375 286.4375 C3.38660156 287.18837891 3.39820313 287.93925781 3.41015625 288.71289062 C3.38674182 293.1499245 3.24667721 296.66718645 0 300 C-5.96845226 301.01463688 -10.65695256 298.87505141 -16 296.5 C-16.83233154 296.1376123 -17.66466309 295.77522461 -18.5222168 295.40185547 C-39.40474849 286.16823244 -55.87192024 274.12807976 -72 258 C-72.53882813 257.50757813 -73.07765625 257.01515625 -73.6328125 256.5078125 C-88.85442446 242.40192079 -99.09483533 222.28897795 -106 203 C-106.45117188 201.76636719 -106.90234375 200.53273438 -107.3671875 199.26171875 C-121.16943206 159.93757227 -116.81125591 117.1886572 -99 80 C-91.76365051 65.09962078 -81.95198804 52.33378092 -71 40 C-70.41992188 39.34644531 -69.83984375 38.69289062 -69.2421875 38.01953125 C-57.7301761 25.84225286 -17.97408885 -6.67431624 0 0 Z " fill="#FCFDFE" transform="translate(214,106)"/>
<path d="M0 0 C17.19544155 17.19544155 16.31003828 65.61115753 16.31274414 88.70904541 C16.24758712 102.27720049 15.13748201 115.59805266 13 129 C12.77449463 130.44270264 12.77449463 130.44270264 12.54443359 131.91455078 C2.61481841 192.53366571 -31.48308404 250.24947832 -80 288 C-80.9590625 288.77601563 -81.918125 289.55203125 -82.90625 290.3515625 C-110.70533262 312.46446913 -148.16314378 333.37970465 -184 337 C-181.1793484 335.1195656 -179.37063584 334.41781317 -176.16015625 333.5546875 C-175.18957275 333.28664307 -174.21898926 333.01859863 -173.21899414 332.74243164 C-171.65652954 332.31305298 -171.65652954 332.31305298 -170.0625 331.875 C-158.68758071 328.64683253 -147.83972627 324.70495185 -137 320 C-135.94087402 319.55068115 -135.94087402 319.55068115 -134.86035156 319.09228516 C-116.58115266 311.27988826 -99.31549665 300.65475359 -84 288 C-83.08734375 287.27683594 -82.1746875 286.55367188 -81.234375 285.80859375 C-29.85356616 244.77734783 4.43382355 183.40604874 12 118 C12.0928125 117.2481543 12.185625 116.49630859 12.28125 115.72167969 C16.23434122 79.25441317 13.21644702 40.40871486 0.53320312 5.90234375 C0 4 0 4 0 0 Z " fill="#2B5BE7" transform="translate(496,169)"/>
<path d="M0 0 C0.66 0.33 1.32 0.66 2 1 C-3.51875102 7.3772234 -9.31537919 13.44868174 -15.25 19.4375 C-15.93513672 20.13552734 -16.62027344 20.83355469 -17.32617188 21.55273438 C-20.66945296 24.90253893 -23.73561597 27.82648644 -28 30 C-26.64686058 27.01250136 -25.11284688 24.81617902 -22.875 22.42578125 C-22.25512207 21.76199463 -21.63524414 21.09820801 -20.99658203 20.41430664 C-20.00827393 19.37391235 -20.00827393 19.37391235 -19 18.3125 C-17.99428955 17.2460022 -17.99428955 17.2460022 -16.96826172 16.15795898 C-11.87963 10.81032505 -6.61086833 5.80040957 -1 1 C-0.67 0.67 -0.34 0.34 0 0 Z " fill="#5B7EEE" transform="translate(88,61)"/>
<path d="M0 0 C6.03331362 4.98404168 11.5184171 10.41915303 17 16 C16.01 16.33 15.02 16.66 14 17 C11.65453302 14.74141867 9.32587973 12.46623352 7 10.1875 C6.33226562 9.54490234 5.66453125 8.90230469 4.9765625 8.24023438 C4.34492188 7.61826172 3.71328125 6.99628906 3.0625 6.35546875 C2.47597656 5.78465576 1.88945312 5.21384277 1.28515625 4.62573242 C0 3 0 3 0 0 Z " fill="#A0B6F3" transform="translate(426,64)"/>
<path d="M0 0 C2.31 1.98 4.62 3.96 7 6 C6.34 6.66 5.68 7.32 5 8 C2.5 5.6875 2.5 5.6875 0 3 C0 2.01 0 1.02 0 0 Z " fill="#ADC0F5" transform="translate(426,64)"/>
<path d="M0 0 C0.66 0 1.32 0 2 0 C3.06775224 1.96466413 4.06553465 3.96855359 5 6 C4.67 6.66 4.34 7.32 4 8 C1.10067643 5.60490662 0.49831724 3.68754757 0 0 Z " fill="#A5B9F4" transform="translate(485,144)"/>
<path d="M0 0 C1.99097846 2.98646769 2.94124926 5.59687262 4 9 C1 8 1 8 -0.25 5.625 C-1 3 -1 3 0 0 Z " fill="#B0C2F6" transform="translate(490,152)"/>
</svg>
