<?xml version="1.0" encoding="UTF-8"?>
<svg version="1.1" xmlns="http://www.w3.org/2000/svg" width="512" height="512">
<path d="M0 0 C1.01674805 0.20898926 2.03349609 0.41797852 3.08105469 0.63330078 C47.4290054 10.05776977 88.13286067 31.23670889 121.5546875 61.77734375 C123.90151662 63.91048395 126.29034586 65.98632073 128.6875 68.0625 C132.15191615 71.13861031 135.22820962 74.36511188 138.2109375 77.90625 C139.43041215 79.3334081 140.68792852 80.72871479 141.9765625 82.09375 C172.53246733 114.53856531 191.93731632 157.77582015 201 201 C201.21027832 201.9580957 201.42055664 202.91619141 201.63720703 203.90332031 C208.28241383 235.3352011 207.920547 271.66137788 201 303 C200.78037598 304.02335449 200.56075195 305.04670898 200.33447266 306.10107422 C192.65771061 341.09472204 178.20321989 374.07659339 157 403 C156.5786377 403.57830566 156.15727539 404.15661133 155.72314453 404.75244141 C150.40023793 412.00830511 144.67072443 418.74227808 138.515625 425.296875 C136.45958509 427.50616012 134.49899728 429.74998383 132.5625 432.0625 C123.93594201 441.95646698 113.46066204 450.14842012 103 458 C102.04746338 458.72123047 102.04746338 458.72123047 101.07568359 459.45703125 C62.16821182 488.69307943 11.78677531 507.86262369 -37.12109375 508.23828125 C-38.17049133 508.2480751 -39.21988892 508.25786896 -40.30108643 508.26795959 C-83.1996457 508.58622696 -83.1996457 508.58622696 -103 504 C-104.48910889 503.67854004 -104.48910889 503.67854004 -106.00830078 503.35058594 C-154.62579717 492.79259004 -197.23227541 468.14881767 -233 434 C-233.67417969 433.36707031 -234.34835938 432.73414063 -235.04296875 432.08203125 C-239.30038914 427.98048895 -242.99417982 423.47078603 -246.69140625 418.86328125 C-248.15409348 417.0491531 -249.6387174 415.25231811 -251.15234375 413.48046875 C-262.13293322 400.55395203 -271.15823261 386.00981991 -279 371 C-279.39396973 370.25540527 -279.78793945 369.51081055 -280.19384766 368.74365234 C-298.35244507 334.00264968 -307.64233489 294.58797462 -307.39111328 255.46826172 C-307.37500277 252.50050953 -307.391098 249.53411836 -307.41015625 246.56640625 C-307.42493523 233.16332514 -306.2025307 220.21554137 -304 207 C-303.81195801 205.86320801 -303.62391602 204.72641602 -303.43017578 203.55517578 C-292.58431065 143.18867767 -257.03459701 84.05573364 -207 48 C-206.33790527 47.5148291 -205.67581055 47.0296582 -204.99365234 46.52978516 C-172.08632958 22.45367439 -135.95586826 7.03695771 -96 -1 C-95.1140918 -1.18224121 -94.22818359 -1.36448242 -93.31542969 -1.55224609 C-63.63508848 -7.35324627 -29.49701618 -6.16292125 0 0 Z " fill="#26A17B" transform="translate(307,4)"/>
<path d="M0 0 C1.01674805 0.20898926 2.03349609 0.41797852 3.08105469 0.63330078 C47.4290054 10.05776977 88.13286067 31.23670889 121.5546875 61.77734375 C123.90151662 63.91048395 126.29034586 65.98632073 128.6875 68.0625 C132.15191615 71.13861031 135.22820962 74.36511188 138.2109375 77.90625 C139.43041215 79.3334081 140.68792852 80.72871479 141.9765625 82.09375 C172.53246733 114.53856531 191.93731632 157.77582015 201 201 C201.21027832 201.9580957 201.42055664 202.91619141 201.63720703 203.90332031 C208.28241383 235.3352011 207.920547 271.66137788 201 303 C200.78037598 304.02335449 200.56075195 305.04670898 200.33447266 306.10107422 C192.65771061 341.09472204 178.20321989 374.07659339 157 403 C156.5786377 403.57830566 156.15727539 404.15661133 155.72314453 404.75244141 C150.40023793 412.00830511 144.67072443 418.74227808 138.515625 425.296875 C136.45958509 427.50616012 134.49899728 429.74998383 132.5625 432.0625 C123.93594201 441.95646698 113.46066204 450.14842012 103 458 C102.04746338 458.72123047 102.04746338 458.72123047 101.07568359 459.45703125 C62.16821182 488.69307943 11.78677531 507.86262369 -37.12109375 508.23828125 C-38.17049133 508.2480751 -39.21988892 508.25786896 -40.30108643 508.26795959 C-83.1996457 508.58622696 -83.1996457 508.58622696 -103 504 C-104.48910889 503.67854004 -104.48910889 503.67854004 -106.00830078 503.35058594 C-154.62579717 492.79259004 -197.23227541 468.14881767 -233 434 C-233.67417969 433.36707031 -234.34835938 432.73414063 -235.04296875 432.08203125 C-239.30038914 427.98048895 -242.99417982 423.47078603 -246.69140625 418.86328125 C-248.15409348 417.0491531 -249.6387174 415.25231811 -251.15234375 413.48046875 C-262.13293322 400.55395203 -271.15823261 386.00981991 -279 371 C-279.39396973 370.25540527 -279.78793945 369.51081055 -280.19384766 368.74365234 C-298.35244507 334.00264968 -307.64233489 294.58797462 -307.39111328 255.46826172 C-307.37500277 252.50050953 -307.391098 249.53411836 -307.41015625 246.56640625 C-307.42493523 233.16332514 -306.2025307 220.21554137 -304 207 C-303.81195801 205.86320801 -303.62391602 204.72641602 -303.43017578 203.55517578 C-292.58431065 143.18867767 -257.03459701 84.05573364 -207 48 C-206.33790527 47.5148291 -205.67581055 47.0296582 -204.99365234 46.52978516 C-172.08632958 22.45367439 -135.95586826 7.03695771 -96 -1 C-95.1140918 -1.18224121 -94.22818359 -1.36448242 -93.31542969 -1.55224609 C-63.63508848 -7.35324627 -29.49701618 -6.16292125 0 0 Z M-203.625 109.6484375 C-226.38539875 133.94078616 -242.88226879 164.06682095 -252 196 C-252.36714111 197.27907227 -252.36714111 197.27907227 -252.74169922 198.58398438 C-259.93389318 224.32242327 -260.79725842 251.97721122 -258.19995117 278.48828125 C-258 281 -258 281 -258.125 284.8125 C-258.20549042 291.30539352 -256.43609555 297.70327336 -255 304 C-254.74476563 305.14210938 -254.48953125 306.28421875 -254.2265625 307.4609375 C-245.97690683 341.14072441 -229.33311076 371.25646502 -206.0234375 396.75390625 C-204.42588072 398.52725596 -202.91616508 400.31683982 -201.4375 402.1875 C-198.86339055 405.15762629 -196.12812007 407.62997761 -193.13671875 410.16796875 C-191.75908306 411.34915913 -190.40498867 412.55865626 -189.08203125 413.80078125 C-161.1437863 439.90169481 -122.79311204 456.83300679 -85.29589844 462.64160156 C-83.26796776 462.95816922 -81.24654581 463.31583957 -79.2265625 463.6796875 C-58.2909956 466.99486404 -35.73818117 466.05976948 -15 462 C-14.14245117 461.8443457 -13.28490234 461.68869141 -12.40136719 461.52832031 C9.0907842 457.57401703 29.92660389 449.65639135 49 439 C49.63437988 438.64583008 50.26875977 438.29166016 50.92236328 437.92675781 C59.77894722 432.91826787 68.04409175 427.36261628 76 421 C77.01320313 420.19175781 78.02640625 419.38351562 79.0703125 418.55078125 C93.99064195 406.40579008 106.91103924 392.71178967 118 377 C118.47244141 376.33983887 118.94488281 375.67967773 119.43164062 374.99951172 C138.28214082 348.37812351 149.3339733 316.93578685 155 285 C155.12987305 284.30455078 155.25974609 283.60910156 155.39355469 282.89257812 C159.14485569 262.0239961 158.65348424 237.94597402 154.44873047 217.22998047 C153.99031874 214.95188867 153.58814932 212.66847446 153.19140625 210.37890625 C146.39016031 172.96034075 127.47425865 138.00937628 101.375 110.55078125 C99 108 99 108 96.90234375 105.36328125 C93.99958398 101.75718339 90.52081695 98.98650767 87 96 C86.04867188 95.16082031 85.09734375 94.32164063 84.1171875 93.45703125 C66.6334249 78.13750752 46.48968392 66.72384736 25 58 C24.24831543 57.69320312 23.49663086 57.38640625 22.72216797 57.0703125 C-56.60324493 25.38753611 -144.97453556 50.47430819 -203.625 109.6484375 Z " fill="#59B79A" transform="translate(307,4)"/>
<path d="M0 0 C1.01674805 0.20898926 2.03349609 0.41797852 3.08105469 0.63330078 C47.4290054 10.05776977 88.13286067 31.23670889 121.5546875 61.77734375 C123.90151662 63.91048395 126.29034586 65.98632073 128.6875 68.0625 C132.15191615 71.13861031 135.22820962 74.36511188 138.2109375 77.90625 C139.43041215 79.3334081 140.68792852 80.72871479 141.9765625 82.09375 C159.28358738 100.47066369 190 138.68103786 190 165 C183.69937624 167.22896726 177.3882222 168.95419507 170.875 170.4375 C163.13077338 172.2284296 155.47144741 174.19037614 147.8359375 176.3984375 C145 177 145 177 142 176 C140.67003539 173.32502594 139.50203157 170.69669666 138.375 167.9375 C129.44050145 147.07308597 116.9459249 129.00988596 102 112 C101.35289062 111.23042969 100.70578125 110.46085937 100.0390625 109.66796875 C96.05248871 104.95082374 91.71951955 100.97101478 87 97 C86.05253906 96.1646875 85.10507812 95.329375 84.12890625 94.46875 C66.64477506 79.14180507 46.49416412 67.72566612 25 59 C24.24831543 58.69320312 23.49663086 58.38640625 22.72216797 58.0703125 C-25.46986503 38.82228908 -82.90988337 39.97275923 -130.5625 60.25 C-183.29830504 83.3529802 -223.83627863 123.93377896 -245.07910156 177.73291016 C-248.58227889 187.13971785 -251.34117716 196.75997722 -253.75 206.5 C-254.03012939 207.61689209 -254.03012939 207.61689209 -254.31591797 208.75634766 C-258.37487285 226.21386517 -259.42420689 243.44931801 -259.1875 261.3125 C-259.17239373 263.33657834 -259.15871605 265.36066787 -259.14648438 267.38476562 C-259.11402335 272.25679613 -259.06258567 277.12826724 -259 282 C-259.648479 282.16081055 -260.29695801 282.32162109 -260.96508789 282.48730469 C-278.00939723 286.71450928 -278.00939723 286.71450928 -294.9765625 291.23828125 C-297.98154676 291.99535093 -300.92434718 292.61667084 -304 293 C-309.6988729 287.3011271 -307.31111784 266.53974132 -307.32226562 258.9609375 C-307.31900269 257.45611816 -307.31900269 257.45611816 -307.31567383 255.92089844 C-307.31252607 252.90001865 -307.33602411 249.88013385 -307.36132812 246.859375 C-307.40530823 233.34696749 -306.23226641 220.32248074 -304 207 C-303.81187744 205.86369141 -303.62375488 204.72738281 -303.42993164 203.55664062 C-292.59534566 143.19176332 -257.02936599 84.05196409 -207 48 C-206.33790527 47.5148291 -205.67581055 47.0296582 -204.99365234 46.52978516 C-172.08632958 22.45367439 -135.95586826 7.03695771 -96 -1 C-95.1140918 -1.18224121 -94.22818359 -1.36448242 -93.31542969 -1.55224609 C-63.63508848 -7.35324627 -29.49701618 -6.16292125 0 0 Z " fill="#8BCCB9" transform="translate(307,4)"/>
<path d="M0 0 C66 0 132 0 200 0 C200 17.82 200 35.64 200 54 C175.91 54 151.82 54 127 54 C127 62.58 127 71.16 127 80 C128.93875 79.95875 130.8775 79.9175 132.875 79.875 C141.69231507 79.89261701 150.26922182 80.8276232 159 82 C159.93247559 82.11827148 160.86495117 82.23654297 161.82568359 82.35839844 C174.13100065 83.94996981 185.9914386 86.26993225 197.875 89.875 C198.92558594 90.19033691 199.97617187 90.50567383 201.05859375 90.83056641 C210.66126727 93.88888915 221.52727538 98.13918843 227.8125 106.375 C229.29743684 109.65749196 229.57179894 111.42625662 229 115 C223.49036331 125.82250064 210.95687654 129.80557504 200.10107422 133.50683594 C176.41827827 141.17903422 151.82283324 144 127 144 C127 174.69 127 205.38 127 237 C109.18 237 91.36 237 73 237 C73 206.31 73 175.62 73 144 C68.38 144 63.76 144 59 144 C54.92660844 143.65752377 50.92270985 143.26892039 46.875 142.75 C45.80096924 142.61505127 44.72693848 142.48010254 43.62036133 142.34106445 C-8.96706828 135.4662542 -8.96706828 135.4662542 -25 119 C-26.86933306 115.91153669 -27.00349989 114.19249418 -26.9375 110.5625 C-25.31563752 104.39942257 -21.90463731 101.38080982 -16.75 98 C-0.20473423 88.66739795 20.34399636 84.50530427 39 82 C40.28777344 81.81566406 41.57554687 81.63132812 42.90234375 81.44140625 C53.01056157 80.07133405 62.79798669 79.82853759 73 80 C73 71.42 73 62.84 73 54 C48.91 54 24.82 54 0 54 C0 36.18 0 18.36 0 0 Z " fill="#FCFDFD" transform="translate(155,144)"/>
<path d="M0 0 C0 10.23 0 20.46 0 31 C17.82 31 35.64 31 54 31 C54 20.77 54 10.54 54 0 C66.84965357 -0.20725248 79.24842047 0.45802536 92 2 C93.24652344 2.144375 94.49304688 2.28875 95.77734375 2.4375 C130.05113495 6.83459578 130.05113495 6.83459578 141 17 C141.6875 19.9375 141.6875 19.9375 141 23 C130.23334236 35.98332245 103.28025935 37.11316479 87.6875 39.1875 C86.45588135 39.35451416 85.2242627 39.52152832 83.95532227 39.69360352 C64.79309819 42.1136361 45.47678613 42.23609124 26.1875 42.25 C25.07670074 42.25133942 23.96590149 42.25267883 22.82144165 42.25405884 C5.48413419 42.24955156 -11.52054573 41.57799722 -28.73144531 39.41015625 C-31.84677868 39.01922705 -34.9638765 38.67594959 -38.0859375 38.34375 C-47.38573724 37.2941955 -56.35055701 35.62240495 -65.375 33.125 C-66.22537842 32.89256592 -67.07575684 32.66013184 -67.9519043 32.4206543 C-74.39130825 30.51151657 -80.20343691 27.79656309 -85 23 C-85.6875 20.25 -85.6875 20.25 -85 17 C-66.79012811 -1.16513019 -23.643539 -0.48917667 0 0 Z " fill="#28A17C" transform="translate(228,230)"/>
<path d="M0 0 C2.03657719 3.05486578 2.51146289 4.77887869 3.19140625 8.3203125 C10.54451329 44.81905597 25.04404417 78.88236437 47 109 C47.4228125 109.58120605 47.845625 110.16241211 48.28125 110.76123047 C53.5768774 117.97859141 59.27672731 124.69079553 65.40234375 131.21484375 C67.72292198 133.70292237 69.96258335 136.23925981 72.1875 138.8125 C75.84320343 142.93253673 79.78756352 146.46327858 84 150 C84.89976563 150.79921875 85.79953125 151.5984375 86.7265625 152.421875 C115.24374743 177.57428238 152.00903374 197.08922068 189 206 C190.21719727 206.29535645 190.21719727 206.29535645 191.45898438 206.59667969 C208.18778853 210.57714749 224.89338491 212.52990027 242 214 C242 214.33 242 214.66 242 215 C184.73196944 218.40206122 124.08860007 188.3604723 82.14941406 151.36767578 C78.3706941 147.97585898 74.67250915 144.50628525 71 141 C70.32582031 140.36707031 69.65164062 139.73414063 68.95703125 139.08203125 C64.69961086 134.98048895 61.00582018 130.47078603 57.30859375 125.86328125 C55.84590652 124.0491531 54.3612826 122.25231811 52.84765625 120.48046875 C41.86706678 107.55395203 32.84176739 93.00981991 25 78 C24.60603027 77.25540527 24.21206055 76.51081055 23.80615234 75.74365234 C13.01959929 55.10683443 -1.46046118 23.80551731 0 0 Z " fill="#2AA57B" transform="translate(3,297)"/>
</svg>
