<?xml version="1.0" encoding="UTF-8"?>
<svg version="1.1" xmlns="http://www.w3.org/2000/svg" width="512" height="512">
<path d="M0 0 C0.97839389 -0.00525911 0.97839389 -0.00525911 1.97655332 -0.01062447 C4.15943343 -0.01991899 6.34204561 -0.01502028 8.52493668 -0.01015663 C10.10691363 -0.01389388 11.68888873 -0.0184957 13.27086091 -0.02388728 C17.61622421 -0.03612353 21.96151055 -0.03585607 26.30688715 -0.03349853 C30.99414539 -0.03309052 35.68137891 -0.04412802 40.36862564 -0.05361366 C49.55137593 -0.07022825 58.73410054 -0.07572342 67.9168646 -0.07683842 C75.38136169 -0.07778871 82.84585029 -0.08189806 90.3103447 -0.08823967 C111.47385438 -0.10585361 132.63734378 -0.11507834 153.80086085 -0.11357872 C155.51234082 -0.11345885 155.51234082 -0.11345885 157.25839615 -0.11333656 C158.40077611 -0.1132548 159.54315607 -0.11317304 160.7201536 -0.1130888 C179.23318323 -0.11227594 197.7461315 -0.13141333 216.2591376 -0.1596133 C235.26845025 -0.18834075 254.27772321 -0.20215365 273.28705812 -0.20042574 C283.95921785 -0.19976178 294.63129228 -0.20525695 305.30343246 -0.22678185 C314.3902732 -0.24499183 323.47698999 -0.24934248 332.56384107 -0.235763 C337.19901832 -0.22923235 341.83395776 -0.22911965 346.4691124 -0.2464695 C350.71564563 -0.26220103 354.96175251 -0.25933584 359.20827535 -0.24190123 C360.74124011 -0.2388315 362.2742367 -0.24246275 363.80716392 -0.25362138 C374.85495972 -0.32868989 384.37951706 0.72585081 392.76132584 8.55414391 C399.00125557 15.49447391 401.59497067 22.81699539 401.58310318 32.12347984 C401.5898204 32.88857872 401.59653763 33.6536776 401.6034584 34.44196129 C401.62237615 36.95858919 401.6263597 39.47494942 401.62851334 41.99164391 C401.63494658 43.75273305 401.64167533 45.51382113 401.64868546 47.27490807 C401.66064339 50.96338946 401.66436791 54.65177731 401.6631813 58.34027672 C401.66297843 63.04533892 401.69025446 67.74979499 401.72472572 72.45471382 C401.74706752 76.09235907 401.75101659 79.72986026 401.74996185 83.36756706 C401.75230787 85.10096127 401.76107451 86.83436005 401.77662659 88.56768608 C401.87223776 100.32648557 401.43280438 110.69235249 392.99570084 119.72601891 C385.84195639 126.15782584 378.415937 128.60555769 368.91757584 128.38226891 C368.18152115 128.37324547 367.44546646 128.36422203 366.68710709 128.35492516 C364.88878703 128.33157035 363.09063672 128.29570726 361.29257584 128.25726891 C361.30145828 129.23730888 361.31034073 130.21734886 361.31949234 131.22708702 C361.40082903 140.49507723 361.46066111 149.76299435 361.49982452 159.03126144 C361.52063626 163.79538875 361.54883572 168.55922629 361.59433365 173.32318687 C361.63802148 177.92679858 361.66176111 182.5301328 361.67208481 187.13393593 C361.67943523 188.88409984 361.69378829 190.63424979 361.71549606 192.38429451 C361.84714092 203.44427087 361.47256374 212.04700116 355.10507584 221.50726891 C347.935769 228.51725782 340.62722554 232.48577065 330.51416397 232.48386192 C329.67018051 232.47353935 328.82619705 232.46321678 327.95663834 232.45258141 C327.07728622 232.44975151 326.19793411 232.44692162 325.29193497 232.44400597 C322.5003399 232.43286602 319.70907293 232.40777302 316.91757584 232.38226891 C315.01784091 232.3722311 313.11810092 232.36310665 311.21835709 232.35492516 C306.57630477 232.33294697 301.93449582 232.29846 297.29257584 232.25726891 C297.30367889 233.36401466 297.31478195 234.47076042 297.32622147 235.61104393 C297.42807899 246.09889051 297.50277063 256.58663525 297.5516367 267.07486629 C297.57760487 272.46554995 297.61276661 277.85583071 297.6697731 283.24628258 C297.72455219 288.45941056 297.75409217 293.67215379 297.76696205 298.88554764 C297.77612025 300.8632563 297.79400138 302.8409466 297.82122612 304.81848907 C298.04160505 321.50723522 296.18242292 334.8581282 285.29257584 348.25726891 C284.66995865 349.08871422 284.04734146 349.92015953 283.40585709 350.77680016 C276.52922486 358.84826312 266.34489952 364.2415718 256.29257584 367.25726891 C256.99382584 367.33203453 257.69507584 367.40680016 258.41757584 367.48383141 C266.98410662 368.67104084 271.84361068 371.53601703 277.66757584 377.81976891 C281.54593349 383.63730538 281.61264714 388.71671842 281.62851334 395.52680016 C281.63517014 396.5217701 281.64182693 397.51674004 281.64868546 398.54186058 C281.65879481 400.64399942 281.66350301 402.74617024 281.6631813 404.84833336 C281.6675466 408.04834062 281.70386344 411.24695929 281.74179459 414.44672203 C281.74766483 416.49424338 281.75163283 418.54177125 281.75351334 420.58930016 C281.76788437 421.53851845 281.7822554 422.48773674 281.79706192 423.46571922 C281.74787185 430.69412305 280.13296728 436.01594746 275.32773209 441.49945641 C274.67675552 442.03828453 274.02577896 442.57711266 273.35507584 443.13226891 C272.7066774 443.68656578 272.05827896 444.24086266 271.39023209 444.81195641 C266.83180995 447.95276868 262.92725223 448.5094927 257.44313431 448.52469444 C256.42838837 448.53149111 256.42838837 448.53149111 255.39314252 448.53842509 C253.13323189 448.55105436 250.87356271 448.5494497 248.61362076 448.54779625 C246.99041307 448.55378246 245.36720822 448.56058822 243.74400711 448.56815147 C239.3389326 448.58581007 234.93393582 448.59050682 230.52882934 448.59178305 C227.77503958 448.59320538 225.02126953 448.59747654 222.26748466 448.60277748 C212.65563708 448.62127785 203.04384494 448.62944815 193.43198013 448.62787437 C184.4802355 448.62667323 175.52873208 448.64777023 166.57704848 448.6793617 C158.88515504 448.70553735 151.19334031 448.71624112 143.50140268 448.71496356 C138.9102199 448.71445427 134.31925148 448.72011904 129.72811317 448.74131966 C125.40814434 448.76072359 121.08859384 448.76081191 116.76861 448.74628639 C115.18681602 448.7441998 113.60499571 448.74889029 112.02324677 448.76100731 C102.65845074 448.82807638 95.41324779 448.74454764 88.05038834 442.29242516 C87.51156021 441.64144859 86.97273209 440.99047203 86.41757584 440.31976891 C85.86327896 439.67137047 85.30898209 439.02297203 84.73788834 438.35492516 C80.89176523 432.77284918 80.9719397 427.55538114 80.95663834 420.98773766 C80.94665314 419.49528275 80.94665314 419.49528275 80.93646622 417.97267723 C80.92635686 415.87053839 80.92164867 413.76836757 80.92197037 411.66620445 C80.91760507 408.46619719 80.88128823 405.26757852 80.84335709 402.06781578 C80.83748685 400.02029443 80.83351884 397.97276656 80.83163834 395.92523766 C80.8172673 394.97601936 80.80289627 394.02680107 80.78808975 393.04881859 C80.83727982 385.82041476 82.45218439 380.49859035 87.25741959 375.01508141 C93.57224211 369.788159 98.18752601 368.08151126 106.29257584 367.25726891 C105.48175552 366.98914391 104.67093521 366.72101891 103.83554459 366.44476891 C88.0606874 360.86204878 77.00010669 351.58407245 69.61679459 336.54242516 C66.53580537 328.89902714 64.84282023 322.01796869 64.95199966 313.76849937 C64.95134254 312.43494659 64.95134254 312.43494659 64.95067215 311.07445335 C64.95274029 308.17422057 64.97597683 305.27458654 64.99960709 302.37445641 C65.00521008 300.3485095 65.00947685 298.3225585 65.01247025 296.29660606 C65.0238636 290.99311443 65.05328285 285.68987363 65.08658218 280.38648033 C65.11740243 274.96323603 65.13100103 269.53995075 65.14609146 264.11664391 C65.17815825 253.49674271 65.22928725 242.87702676 65.29257584 232.25726891 C64.375569 232.27821617 63.45856216 232.29916344 62.51376724 232.32074547 C59.06574548 232.38948836 55.61846649 232.43934042 52.17001724 232.47699547 C50.68617536 232.49693871 49.20241028 232.5241038 47.71884537 232.55902672 C36.3606454 232.81943049 26.5234343 232.08549993 17.82382584 223.96039391 C11.52643074 216.95614834 8.97257968 209.62297328 9.06552505 200.23236656 C9.065233 199.45120476 9.06494095 198.67004295 9.06464005 197.86520958 C9.06602592 195.30046788 9.08155185 192.73602194 9.09726334 190.17133141 C9.10099611 188.38628867 9.10384183 186.60124387 9.10583878 184.81619835 C9.1134544 180.13084768 9.13308504 175.4456221 9.15524673 170.76032066 C9.17574984 165.97416437 9.18485003 161.18798776 9.19491959 156.40180016 C9.21633294 147.02023495 9.25044381 137.63876235 9.29257584 128.25726891 C7.65687637 128.28554771 7.65687637 128.28554771 5.98813248 128.31439781 C4.53883689 128.32964738 3.08953639 128.34443408 1.64023209 128.35883141 C0.56545609 128.37925499 0.56545609 128.37925499 -0.53103256 128.40009117 C-9.08680986 128.4637393 -15.88688618 125.83435155 -22.17617416 119.96039391 C-28.41610389 113.0200639 -31.009819 105.69754242 -30.99795151 96.39105797 C-31.00466873 95.62595909 -31.01138596 94.86086021 -31.01830673 94.07257652 C-31.03722448 91.55594862 -31.04120803 89.03958839 -31.04336166 86.52289391 C-31.04979491 84.76180477 -31.05652366 83.00071668 -31.06353378 81.23962975 C-31.07549172 77.55114835 -31.07921624 73.8627605 -31.07802963 70.17426109 C-31.07782676 65.46919889 -31.10510279 60.76474282 -31.13957405 56.05982399 C-31.16191584 52.42217874 -31.16586492 48.78467756 -31.16481018 45.14697075 C-31.16715619 43.41357654 -31.17592284 41.68017776 -31.19147491 39.94685173 C-31.28708608 28.18805224 -30.8476527 17.82218532 -22.41054916 8.78851891 C-15.86355055 2.90222657 -8.83545321 0.01074198 0 0 Z " fill="#3BB54A" transform="translate(70.70742416381836,39.74273109436035)"/>
<path d="M0 0 C7.39638096 5.30921878 11.85722936 12.57967456 14.25 21.3125 C14.81671198 26.51088368 14.80859159 31.67671133 14.78344727 36.8972168 C14.79051743 38.45069697 14.79926703 40.00417025 14.80955505 41.55763245 C14.83194349 45.75224268 14.82913307 49.94647366 14.82023358 54.14112067 C14.81509875 57.65697366 14.82243692 61.17275694 14.82970566 64.68860275 C14.84667336 72.99322957 14.84317299 81.29767253 14.82641602 89.60229492 C14.80952125 98.1343139 14.82529977 106.66582023 14.8576389 115.19778317 C14.88444798 122.55276133 14.89157973 129.90758104 14.88312382 137.2626031 C14.87822454 141.6421358 14.88024491 146.02136079 14.90091133 150.40085411 C14.91944576 154.52568726 14.91309663 158.64979216 14.88871193 162.77458763 C14.88375854 164.27603301 14.88704876 165.77753559 14.89986038 167.27893448 C15.01668069 182.16370182 11.78265406 194.5832836 2.25 206.3125 C1.31607422 207.55966797 1.31607422 207.55966797 0.36328125 208.83203125 C-6.51335097 216.90349421 -16.69767632 222.2968029 -26.75 225.3125 C-25.698125 225.42464844 -25.698125 225.42464844 -24.625 225.5390625 C-16.05846921 226.72627193 -11.19896516 229.59124812 -5.375 235.875 C-1.49664235 241.69253648 -1.4299287 246.77194951 -1.4140625 253.58203125 C-1.4040773 255.07448616 -1.4040773 255.07448616 -1.39389038 256.59709167 C-1.38378102 258.69923051 -1.37907283 260.80140133 -1.37939453 262.90356445 C-1.37502923 266.10357172 -1.33871239 269.30219038 -1.30078125 272.50195312 C-1.29491101 274.54947448 -1.290943 276.59700235 -1.2890625 278.64453125 C-1.27469147 279.59374954 -1.26032043 280.54296783 -1.24551392 281.52095032 C-1.29470398 288.74935415 -2.90960856 294.07117855 -7.71484375 299.5546875 C-8.36582031 300.09351563 -9.01679688 300.63234375 -9.6875 301.1875 C-10.33589844 301.74179687 -10.98429688 302.29609375 -11.65234375 302.8671875 C-16.21076589 306.00799977 -20.1153236 306.5647238 -25.59944153 306.57992554 C-26.61418746 306.58672221 -26.61418746 306.58672221 -27.64943331 306.59365618 C-29.90934395 306.60628545 -32.16901313 306.60468079 -34.42895508 306.60302734 C-36.05216277 306.60901355 -37.67536762 306.61581932 -39.29856873 306.62338257 C-43.70364323 306.64104116 -48.10864002 306.64573791 -52.5137465 306.64701414 C-55.26753626 306.64843647 -58.02130631 306.65270764 -60.77509117 306.65800858 C-70.38693876 306.67650895 -79.9987309 306.68467925 -89.6105957 306.68310547 C-98.56234033 306.68190432 -107.51384375 306.70300132 -116.46552736 306.7345928 C-124.1574208 306.76076844 -131.84923553 306.77147221 -139.54117316 306.77019465 C-144.13235593 306.76968536 -148.72332435 306.77535013 -153.31446266 306.79655075 C-157.6344315 306.81595469 -161.953982 306.816043 -166.27396584 306.80151749 C-167.85575982 306.7994309 -169.43758013 306.80412138 -171.01932907 306.8162384 C-180.3841251 306.88330747 -187.62932805 306.79977873 -194.9921875 300.34765625 C-195.53101563 299.69667969 -196.06984375 299.04570312 -196.625 298.375 C-197.17929688 297.72660156 -197.73359375 297.07820313 -198.3046875 296.41015625 C-202.15081061 290.82808028 -202.07063614 285.61061223 -202.0859375 279.04296875 C-202.0925943 278.04799881 -202.0992511 277.05302887 -202.10610962 276.02790833 C-202.11621898 273.92576949 -202.12092717 271.82359867 -202.12060547 269.72143555 C-202.12497077 266.52142828 -202.16128761 263.32280962 -202.19921875 260.12304688 C-202.20508899 258.07552552 -202.209057 256.02799765 -202.2109375 253.98046875 C-202.22530853 253.03125046 -202.23967957 252.08203217 -202.25448608 251.10404968 C-202.20529602 243.87564585 -200.59039144 238.55382145 -195.78515625 233.0703125 C-189.47033373 227.8433901 -184.85504983 226.13674236 -176.75 225.3125 C-177.56082031 225.044375 -178.37164062 224.77625 -179.20703125 224.5 C-194.98188843 218.91727988 -206.04246915 209.63930354 -213.42578125 194.59765625 C-216.50677183 186.95425484 -218.1996298 180.07312471 -218.09057617 171.82373047 C-218.09093778 170.92051622 -218.09129938 170.01730198 -218.09167194 169.08671761 C-218.08945607 166.20080495 -218.06671893 163.31549436 -218.04296875 160.4296875 C-218.03855066 158.63289672 -218.03549459 156.83610207 -218.03381348 155.03930664 C-218.01816867 148.42197838 -217.97628492 141.8047331 -217.9375 135.1875 C-217.875625 120.37875 -217.81375 105.57 -217.75 90.3125 C-162.31 90.3125 -106.87 90.3125 -49.75 90.3125 C-49.75 67.2125 -49.75 44.1125 -49.75 20.3125 C-44.27004937 6.61262342 -39.8103207 0.82937868 -26.6875 -5.0625 C-17.12713776 -7.09661963 -8.28291838 -5.10038766 0 0 Z " fill="#FEE179" transform="translate(353.75,181.6875)"/>
<path d="M0 0 C0.97839389 -0.00525911 0.97839389 -0.00525911 1.97655332 -0.01062447 C4.15943343 -0.01991899 6.34204561 -0.01502028 8.52493668 -0.01015663 C10.10691363 -0.01389388 11.68888873 -0.0184957 13.27086091 -0.02388728 C17.61622421 -0.03612353 21.96151055 -0.03585607 26.30688715 -0.03349853 C30.99414539 -0.03309052 35.68137891 -0.04412802 40.36862564 -0.05361366 C49.55137593 -0.07022825 58.73410054 -0.07572342 67.9168646 -0.07683842 C75.38136169 -0.07778871 82.84585029 -0.08189806 90.3103447 -0.08823967 C111.47385438 -0.10585361 132.63734378 -0.11507834 153.80086085 -0.11357872 C155.51234082 -0.11345885 155.51234082 -0.11345885 157.25839615 -0.11333656 C158.40077611 -0.1132548 159.54315607 -0.11317304 160.7201536 -0.1130888 C179.23318323 -0.11227594 197.7461315 -0.13141333 216.2591376 -0.1596133 C235.26845025 -0.18834075 254.27772321 -0.20215365 273.28705812 -0.20042574 C283.95921785 -0.19976178 294.63129228 -0.20525695 305.30343246 -0.22678185 C314.3902732 -0.24499183 323.47698999 -0.24934248 332.56384107 -0.235763 C337.19901832 -0.22923235 341.83395776 -0.22911965 346.4691124 -0.2464695 C350.71564563 -0.26220103 354.96175251 -0.25933584 359.20827535 -0.24190123 C360.74124011 -0.2388315 362.2742367 -0.24246275 363.80716392 -0.25362138 C374.85495972 -0.32868989 384.37951706 0.72585081 392.76132584 8.55414391 C399.00125557 15.49447391 401.59497067 22.81699539 401.58310318 32.12347984 C401.5898204 32.88857872 401.59653763 33.6536776 401.6034584 34.44196129 C401.62237615 36.95858919 401.6263597 39.47494942 401.62851334 41.99164391 C401.63494658 43.75273305 401.64167533 45.51382113 401.64868546 47.27490807 C401.66064339 50.96338946 401.66436791 54.65177731 401.6631813 58.34027672 C401.66297843 63.04533892 401.69025446 67.74979499 401.72472572 72.45471382 C401.74706752 76.09235907 401.75101659 79.72986026 401.74996185 83.36756706 C401.75230787 85.10096127 401.76107451 86.83436005 401.77662659 88.56768608 C401.87223776 100.32648557 401.43280438 110.69235249 392.99570084 119.72601891 C383.29449586 128.4482032 374.7871374 128.25726891 361.29257584 128.25726891 C361.29257584 109.77726891 361.29257584 91.29726891 361.29257584 72.25726891 C245.13257584 72.25726891 128.97257584 72.25726891 9.29257584 72.25726891 C9.29257584 90.73726891 9.29257584 109.21726891 9.29257584 128.25726891 C-13.29265144 128.25726891 -13.29265144 128.25726891 -22.17617416 119.96039391 C-28.41610389 113.0200639 -31.009819 105.69754242 -30.99795151 96.39105797 C-31.00466873 95.62595909 -31.01138596 94.86086021 -31.01830673 94.07257652 C-31.03722448 91.55594862 -31.04120803 89.03958839 -31.04336166 86.52289391 C-31.04979491 84.76180477 -31.05652366 83.00071668 -31.06353378 81.23962975 C-31.07549172 77.55114835 -31.07921624 73.8627605 -31.07802963 70.17426109 C-31.07782676 65.46919889 -31.10510279 60.76474282 -31.13957405 56.05982399 C-31.16191584 52.42217874 -31.16586492 48.78467756 -31.16481018 45.14697075 C-31.16715619 43.41357654 -31.17592284 41.68017776 -31.19147491 39.94685173 C-31.28708608 28.18805224 -30.8476527 17.82218532 -22.41054916 8.78851891 C-15.86355055 2.90222657 -8.83545321 0.01074198 0 0 Z " fill="#585965" transform="translate(70.70742416381836,39.74273109436035)"/>
<path d="M0 0 C0.67649729 -0.00453111 1.35299458 -0.00906223 2.04999179 -0.01373065 C4.30990242 -0.02635992 6.5695716 -0.02475526 8.82951355 -0.02310181 C10.45272124 -0.02908802 12.07592609 -0.03589378 13.6991272 -0.04345703 C18.1042017 -0.06111562 22.50919849 -0.06581237 26.91430497 -0.0670886 C29.66809473 -0.06851093 32.42186478 -0.0727821 35.17564964 -0.07808304 C44.78749723 -0.09658341 54.39928937 -0.10475371 64.01115417 -0.10317993 C72.96289881 -0.10197879 81.91440223 -0.12307579 90.86608583 -0.15466726 C98.55797927 -0.18084291 106.249794 -0.19154667 113.94173163 -0.19026911 C118.5329144 -0.18975982 123.12388282 -0.1954246 127.71502113 -0.21662521 C132.03498997 -0.23602915 136.35454047 -0.23611747 140.67452431 -0.22159195 C142.25631829 -0.21950536 143.8381386 -0.22419585 145.41988754 -0.23631287 C154.78468357 -0.30338194 162.02988652 -0.21985319 169.39274597 6.23226929 C169.9315741 6.88324585 170.47040222 7.53422241 171.02555847 8.20492554 C171.57985535 8.85332397 172.13415222 9.50172241 172.70524597 10.16976929 C176.55136908 15.75184526 176.47119461 20.96931331 176.48649597 27.53695679 C176.49648117 29.0294117 176.49648117 29.0294117 176.50666809 30.55201721 C176.51677745 32.65415605 176.52148564 34.75632687 176.52116394 36.85848999 C176.52552924 40.05849726 176.56184608 43.25711592 176.59977722 46.45687866 C176.60564746 48.50440001 176.60961547 50.55192788 176.61149597 52.59945679 C176.625867 53.54867508 176.64023804 54.49789337 176.65504456 55.47587585 C176.60585449 62.70427969 174.99094991 68.02610409 170.18571472 73.50961304 C169.53473816 74.04844116 168.8837616 74.58726929 168.21305847 75.14242554 C167.56466003 75.69672241 166.9162616 76.25101929 166.24821472 76.82211304 C161.68979258 79.96292531 157.78523487 80.51964934 152.30111694 80.53485107 C151.28637101 80.54164774 151.28637101 80.54164774 150.25112516 80.54858172 C147.99121452 80.56121099 145.73154534 80.55960633 143.47160339 80.55795288 C141.8483957 80.56393909 140.22519086 80.57074485 138.60198975 80.57830811 C134.19691524 80.5959667 129.79191845 80.60066345 125.38681197 80.60193968 C122.63302221 80.60336201 119.87925216 80.60763317 117.1254673 80.61293411 C107.51361971 80.63143449 97.90182757 80.63960478 88.28996277 80.63803101 C79.33821814 80.63682986 70.38671472 80.65792686 61.43503112 80.68951833 C53.74313767 80.71569398 46.05132294 80.72639775 38.35938531 80.72512019 C33.76820254 80.7246109 29.17723412 80.73027567 24.58609581 80.75147629 C20.26612697 80.77088022 15.94657647 80.77096854 11.62659264 80.75644302 C10.04479866 80.75435643 8.46297835 80.75904692 6.8812294 80.77116394 C-2.48356663 80.83823301 -9.72876958 80.75470427 -17.09162903 74.30258179 C-17.63045715 73.65160522 -18.16928528 73.00062866 -18.72444153 72.32992554 C-19.2787384 71.6815271 -19.83303528 71.03312866 -20.40412903 70.36508179 C-24.25025214 64.78300581 -24.17007766 59.56553777 -24.18537903 52.99789429 C-24.19203583 52.00292435 -24.19869263 51.00795441 -24.20555115 49.98283386 C-24.2156605 47.88069502 -24.2203687 45.77852421 -24.220047 43.67636108 C-24.2244123 40.47635382 -24.26072914 37.27773516 -24.29866028 34.07797241 C-24.30453052 32.03045106 -24.30849852 29.98292319 -24.31037903 27.93539429 C-24.33193558 26.51156685 -24.33193558 26.51156685 -24.35392761 25.05897522 C-24.30473755 17.83057139 -22.68983297 12.50874698 -17.88459778 7.02523804 C-17.23362122 6.48640991 -16.58264465 5.94758179 -15.91194153 5.39242554 C-15.26354309 4.83812866 -14.61514465 4.28383179 -13.94709778 3.71273804 C-9.38867564 0.57192576 -5.48411793 0.01520174 0 0 Z " fill="#6FB6E4" transform="translate(175.8494415283203,407.7325744628906)"/>
<path d="M0 0 C19.47 0 38.94 0 59 0 C55.15750191 7.68499618 48.63858253 12.05179534 40.875 15.3125 C38 16 38 16 32 16 C32 42.4 32 68.8 32 96 C34.97 96.33 37.94 96.66 41 97 C51.14551546 100.68803197 57.22990074 106.40215677 62 116 C63.45301294 120.03538191 64 123.68622503 64 128 C116.8 128 169.6 128 224 128 C224 138.56 224 149.12 224 160 C198.09597617 160.09265131 172.19199233 160.16400689 146.28783607 160.20724869 C134.25970438 160.22786152 122.23167762 160.25595782 110.20361328 160.30175781 C99.71823346 160.34166455 89.23292964 160.36744211 78.74747598 160.37635398 C73.19704996 160.38156218 67.64684138 160.393777 62.09648514 160.42292023 C56.86803125 160.45014979 51.63988357 160.4584297 46.41136551 160.45243073 C44.49660577 160.45352759 42.58183538 160.46143632 40.66713715 160.4768219 C28.5235563 160.56958289 17.92215882 160.47387947 8.53125 151.703125 C2.93876043 145.48290701 -0.25610531 138.55297248 -0.24050903 130.11538696 C-0.24325836 128.96281403 -0.24600769 127.81024109 -0.24884033 126.6227417 C-0.24164978 125.37261292 -0.23445923 124.12248413 -0.22705078 122.83447266 C-0.22648613 121.49370329 -0.22680428 120.15293331 -0.22793579 118.81216431 C-0.22850821 115.18448153 -0.21677194 111.55693175 -0.20278788 107.9292798 C-0.19026199 104.13363607 -0.18910855 100.33798909 -0.18673706 96.54232788 C-0.18052775 89.36014021 -0.16412437 82.17801363 -0.14403808 74.99585283 C-0.12166199 66.81691781 -0.11068135 58.63797983 -0.10064721 50.45902181 C-0.07975764 33.6393065 -0.04308828 16.81967531 0 0 Z " fill="#0E9346" transform="translate(80,112)"/>
<path d="M0 0 C0.97839389 -0.00525911 0.97839389 -0.00525911 1.97655332 -0.01062447 C4.15943343 -0.01991899 6.34204561 -0.01502028 8.52493668 -0.01015663 C10.10691363 -0.01389388 11.68888873 -0.0184957 13.27086091 -0.02388728 C17.61622421 -0.03612353 21.96151055 -0.03585607 26.30688715 -0.03349853 C30.99414539 -0.03309052 35.68137891 -0.04412802 40.36862564 -0.05361366 C49.55137593 -0.07022825 58.73410054 -0.07572342 67.9168646 -0.07683842 C75.38136169 -0.07778871 82.84585029 -0.08189806 90.3103447 -0.08823967 C111.47385438 -0.10585361 132.63734378 -0.11507834 153.80086085 -0.11357872 C155.51234082 -0.11345885 155.51234082 -0.11345885 157.25839615 -0.11333656 C158.40077611 -0.1132548 159.54315607 -0.11317304 160.7201536 -0.1130888 C179.23318323 -0.11227594 197.7461315 -0.13141333 216.2591376 -0.1596133 C235.26845025 -0.18834075 254.27772321 -0.20215365 273.28705812 -0.20042574 C283.95921785 -0.19976178 294.63129228 -0.20525695 305.30343246 -0.22678185 C314.3902732 -0.24499183 323.47698999 -0.24934248 332.56384107 -0.235763 C337.19901832 -0.22923235 341.83395776 -0.22911965 346.4691124 -0.2464695 C350.71564563 -0.26220103 354.96175251 -0.25933584 359.20827535 -0.24190123 C360.74124011 -0.2388315 362.2742367 -0.24246275 363.80716392 -0.25362138 C374.85495972 -0.32868989 384.37951706 0.72585081 392.76132584 8.55414391 C398.49200548 14.92806311 401.57336524 21.89753897 401.48788834 30.53070641 C401.48144302 31.68441734 401.47499771 32.83812828 401.46835709 34.02680016 C401.45159927 35.21660484 401.43484146 36.40640953 401.41757584 37.63226891 C401.4085524 38.84527672 401.39952896 40.05828453 401.39023209 41.30805016 C401.36674172 44.29132664 401.33389265 47.27419485 401.29257584 50.25726891 C400.30434981 48.29001679 399.32399205 46.32504013 398.39804459 44.32758141 C394.24721302 35.53135111 388.68965141 29.73200174 379.57500249 26.2059654 C376.08526958 25.19735265 373.2404916 25.00443067 369.6135931 25 C368.96440766 24.99649393 368.31522221 24.99298785 367.64636448 24.98937553 C365.47396144 24.98008161 363.30182765 24.98497955 361.1294136 24.98984337 C359.55497355 24.98610609 357.98053535 24.98150426 356.40610009 24.97611272 C352.08160923 24.96387689 347.75719569 24.96414388 343.43269145 24.96650147 C338.76794738 24.96690949 334.10322815 24.95587195 329.43849564 24.94638634 C320.30019726 24.9297723 311.16192468 24.92427661 302.02361246 24.92316158 C294.59581539 24.92221132 287.16802684 24.91810215 279.74023247 24.91176033 C258.68233215 24.89414702 237.62445223 24.88492163 216.5665445 24.88642128 C215.43126912 24.88650119 214.29599374 24.8865811 213.12631607 24.88666344 C211.98965503 24.8867452 210.85299399 24.88682696 209.68188868 24.8869112 C191.25871469 24.88772418 172.83562244 24.8685836 154.41247209 24.8403867 C135.49695527 24.81166459 116.58147833 24.79784603 97.66593915 24.79957426 C87.04579009 24.80023838 76.42572673 24.79473635 65.80559731 24.77321815 C56.76374308 24.75501526 47.72201341 24.75065173 38.6801488 24.764237 C34.06737297 24.77077106 29.45483614 24.77086802 24.84208298 24.7535305 C20.61718948 24.73781418 16.39272478 24.74064858 12.16784183 24.75809877 C10.64162429 24.76117183 9.11537485 24.75752466 7.58919492 24.74637862 C-0.58874984 24.69062135 -7.52578869 24.9510236 -14.70742416 29.25726891 C-15.51695541 29.72648766 -16.32648666 30.19570641 -17.16054916 30.67914391 C-23.78446393 35.57508091 -27.5154717 41.28653269 -29.70742416 49.25726891 C-30.03742416 49.25726891 -30.36742416 49.25726891 -30.70742416 49.25726891 C-30.8250356 45.29919175 -30.89514298 41.3415727 -30.95742416 37.38226891 C-30.99093979 36.27367516 -31.02445541 35.16508141 -31.05898666 34.02289391 C-31.17401699 24.24531644 -29.21790032 16.07719793 -22.41054916 8.78851891 C-15.86355055 2.90222657 -8.83545321 0.01074198 0 0 Z " fill="#6E6F7D" transform="translate(70.70742416381836,39.74273109436035)"/>
<path d="M0 0 C19.47 0 38.94 0 59 0 C59.16121214 33.70229284 59.16121214 33.70229284 59.1953125 47.85546875 C59.21902126 57.61711052 59.24685075 67.3786139 59.30175781 77.14013672 C59.3417322 84.2503033 59.367458 91.36035731 59.37635398 98.47063315 C59.38155089 102.23258192 59.39369218 105.99420874 59.42292023 109.75605392 C59.45025751 113.30359704 59.45840855 116.85068842 59.45243073 120.39832687 C59.45403996 122.30729717 59.47546638 124.21621931 59.49768066 126.12506104 C59.45532083 135.04646198 57.81458533 141.81833036 52.8125 149.25 C45.64319316 156.25998891 38.33464971 160.22850174 28.22158813 160.22659302 C27.37760468 160.21627045 26.53362122 160.20594788 25.6640625 160.1953125 C24.78471039 160.1924826 23.90535828 160.18965271 22.99935913 160.18673706 C20.20776406 160.17559712 17.4164971 160.15050411 14.625 160.125 C12.72526507 160.1149622 10.82552508 160.10583775 8.92578125 160.09765625 C4.28372893 160.07567806 -0.35808002 160.0411911 -5 160 C-5.09964824 154.62895991 -5.17183292 149.25847014 -5.21972656 143.88671875 C-5.23971364 142.06338108 -5.26691286 140.24010644 -5.30175781 138.41699219 C-5.54631634 125.28276062 -5.40407483 114.80049152 4.07421875 104.75390625 C11.03564253 98.41378601 17.55104471 96 27 96 C27 69.6 27 43.2 27 16 C24.69 16 22.38 16 20 16 C12.24778439 13.82886878 4.44396536 8.76137061 0 2 C0 1.34 0 0.68 0 0 Z " fill="#0E9346" transform="translate(373,112)"/>
<path d="M0 0 C3.01324996 0.05365126 6.01162141 0.00045799 9.02441406 -0.06347656 C22.82738345 -0.11319876 22.82738345 -0.11319876 28.27685547 3.41381836 C30.61460818 5.94697738 32.3299338 8.30492044 34.01660156 11.30371094 C34.61327637 12.30845459 35.20995117 13.31319824 35.82470703 14.34838867 C44.34885394 29.4057669 45.27668387 47.20704256 40.85107422 63.69213867 C37.49686228 74.9889778 31.12430506 85.90498123 20.91113281 92.22558594 C11.86698157 96.85231374 3.49447821 99.17320924 -6.54589844 96.17871094 C-17.81551079 91.8930837 -25.95628102 83.89740108 -31.29589844 73.17871094 C-39.03018265 55.05477518 -38.80757659 36.72065311 -31.92089844 18.49121094 C-30.77577564 15.9464936 -29.44257265 13.6817699 -27.98339844 11.30371094 C-27.49830811 10.44527588 -27.01321777 9.58684082 -26.51342773 8.70239258 C-19.73343175 -0.97621218 -10.82514512 -0.22972068 0 0 Z " fill="#88C662" transform="translate(252.9833984375,110.6962890625)"/>
<path d="M0 0 C8.41898591 5.50029034 13.33767339 12.21991728 16 22 C16.56569922 27.19856759 16.55859193 32.36414149 16.53344727 37.5847168 C16.54051743 39.13819697 16.54926703 40.69167025 16.55955505 42.24513245 C16.58194349 46.43974268 16.57913307 50.63397366 16.57023358 54.82862067 C16.56509875 58.34447366 16.57243692 61.86025694 16.57970566 65.37610275 C16.59667336 73.68072957 16.59317299 81.98517253 16.57641602 90.28979492 C16.55952125 98.8218139 16.57529977 107.35332023 16.6076389 115.88528317 C16.63444798 123.24026133 16.64157973 130.59508104 16.63312382 137.9501031 C16.62822454 142.3296358 16.63024491 146.70886079 16.65091133 151.08835411 C16.66944576 155.21318726 16.66309663 159.33729216 16.63871193 163.46208763 C16.63375854 164.96353301 16.63704876 166.46503559 16.64986038 167.96643448 C16.76668069 182.85120182 13.53265406 195.2707836 4 207 C3.06607422 208.24716797 3.06607422 208.24716797 2.11328125 209.51953125 C-6.04080097 219.09040409 -19.58445033 226.15533528 -32.13849831 227.28155327 C-35.75004952 227.39537345 -39.35077627 227.41684619 -42.96411133 227.40405273 C-44.34349618 227.40976736 -45.72287632 227.41673581 -47.10224915 227.42485046 C-50.82148864 227.44267954 -54.54049088 227.44163265 -58.25976014 227.43590808 C-61.37814047 227.43280036 -64.49647626 227.43892637 -67.61485022 227.44494683 C-74.97968125 227.45895767 -82.34439621 227.45746039 -89.70922852 227.44604492 C-97.27556834 227.43457535 -104.84155321 227.44862753 -112.40784627 227.4754414 C-118.93221378 227.49768649 -125.4564706 227.50421581 -131.98087329 227.49836498 C-135.86511566 227.49501416 -139.7491308 227.49728388 -143.63334084 227.51461601 C-147.29025017 227.53022384 -150.94663918 227.52597894 -154.60352898 227.50731087 C-156.56306678 227.50194093 -158.52262873 227.51603436 -160.4821167 227.53100586 C-177.2800215 227.39314164 -189.58760797 221.30714595 -201.87109375 210.24609375 C-204.02139813 207.977424 -205.50495978 205.73529866 -207 203 C-203.78185606 204.0203871 -200.71287566 205.12761082 -197.625 206.5 C-188.6747735 210.203542 -180.50125264 210.28750845 -170.91430664 210.25878906 C-169.39080132 210.26150256 -167.86729732 210.2650655 -166.34379578 210.26940918 C-162.22392891 210.27849358 -158.1041627 210.27500507 -153.98429418 210.26865101 C-149.66168154 210.26356959 -145.33907723 210.26828849 -141.01646423 210.27142334 C-133.75778668 210.27505714 -126.49914988 210.27027968 -119.24047852 210.26074219 C-110.86418039 210.24986287 -102.48797967 210.25338178 -94.11168391 210.264395 C-86.90463909 210.27348948 -79.69762349 210.27474247 -72.49057478 210.26951766 C-68.19290442 210.2664093 -63.89527975 210.26595724 -59.59761238 210.27259064 C-55.55511129 210.27839482 -51.51273497 210.27431132 -47.47024727 210.26280212 C-45.99208279 210.26017173 -44.5139077 210.26089272 -43.03574753 210.26532745 C-30.92178169 210.29830293 -20.8866248 209.63355044 -11 202 C-3.27980332 193.85811191 -0.85740517 185.40138689 -0.84178162 174.36904907 C-0.83684364 173.62071599 -0.83190566 172.87238292 -0.82681805 172.10137308 C-0.81151368 169.60485632 -0.80310168 167.10836514 -0.79467773 164.61181641 C-0.78509365 162.81784848 -0.77508326 161.02388279 -0.76467896 159.22991943 C-0.73768127 154.36680778 -0.71664393 149.50368647 -0.69667697 144.64054155 C-0.67478569 139.55562113 -0.64741239 134.47073028 -0.62062073 129.38583374 C-0.5707363 119.75998984 -0.52578172 110.13412949 -0.48259836 100.50825346 C-0.43318965 89.54820657 -0.378285 78.58818937 -0.32291877 67.62817121 C-0.20916398 45.08547518 -0.1023108 22.54275066 0 0 Z " fill="#F5B545" transform="translate(352,181)"/>
<path d="M0 0 C1.96449254 -0.0195581 1.96449254 -0.0195581 3.9686718 -0.03951132 C5.4204327 -0.02870122 6.87219014 -0.01741794 8.32394409 -0.00571251 C9.8673806 -0.01147309 11.41081026 -0.01941379 12.95422554 -0.02934873 C17.19765056 -0.05025432 21.44051459 -0.03989027 25.68394184 -0.02441764 C30.25935513 -0.01312315 34.83467071 -0.03055737 39.4100647 -0.04431725 C48.37409753 -0.06657455 57.33792128 -0.06173738 66.30196238 -0.04725404 C73.58585739 -0.03597159 80.86969373 -0.03442659 88.15359497 -0.03987312 C89.18945901 -0.04063929 90.22532305 -0.04140545 91.29257691 -0.04219484 C93.3967786 -0.04379343 95.50098028 -0.04541449 97.60518193 -0.04705779 C117.34590955 -0.0613226 137.08652115 -0.04491109 156.82722974 -0.01805596 C173.7732955 0.00428347 190.71919002 0.00040355 207.66525269 -0.02264977 C227.33433541 -0.04939484 247.00331641 -0.05994923 266.67241478 -0.04458845 C268.76896539 -0.04299567 270.86551601 -0.04142381 272.96206665 -0.03987312 C273.99366539 -0.03910175 275.02526413 -0.03833037 276.08812344 -0.03753562 C283.36501765 -0.03321474 290.64184745 -0.04051352 297.91873169 -0.05227089 C306.78436735 -0.06628007 315.6497816 -0.06252929 324.51539183 -0.03586717 C329.04061541 -0.02270764 333.56546959 -0.01761281 338.09069061 -0.03411293 C342.23102482 -0.04898156 346.37064624 -0.04087602 350.51091552 -0.01422517 C352.01083792 -0.00862699 353.51082019 -0.0115106 355.01070428 -0.02360411 C357.04564886 -0.03875672 359.08076148 -0.02025907 361.11566162 0 C362.24717588 0.00081176 363.37869015 0.00162352 364.54449272 0.00245988 C368.52759513 0.83090751 370.0373409 2.50497179 372.55783081 5.6292057 C373.18283081 8.6292057 373.18283081 8.6292057 372.55783081 11.6292057 C370.0373409 14.75343962 368.52759513 16.4275039 364.54449272 17.25595152 C363.41297846 17.25676329 362.2814642 17.25757505 361.11566162 17.25841141 C359.15116908 17.27796951 359.15116908 17.27796951 357.14698982 17.29792273 C355.69522892 17.28711263 354.24347149 17.27582935 352.79171753 17.26412392 C351.24828102 17.2698845 349.70485136 17.2778252 348.16143608 17.28776014 C343.91801106 17.30866573 339.67514703 17.29830167 335.43171978 17.28282905 C330.85630649 17.27153455 326.28099092 17.28896878 321.70559692 17.30272865 C312.74156409 17.32498596 303.77774034 17.32014879 294.81369925 17.30566545 C287.52980423 17.294383 280.24596789 17.292838 272.96206665 17.29828453 C271.40827059 17.29943378 271.40827059 17.29943378 269.82308471 17.30060624 C267.71888302 17.30220484 265.61468135 17.3038259 263.51047969 17.3054692 C243.76975208 17.31973401 224.02914047 17.3033225 204.28843188 17.27646737 C187.34236612 17.25412794 170.3964716 17.25800786 153.45040894 17.28106117 C133.78132621 17.30780625 114.11234521 17.31836064 94.44324684 17.30299985 C92.34669623 17.30140707 90.25014561 17.29983522 88.15359497 17.29828453 C87.12199623 17.29751315 86.09039749 17.29674178 85.02753818 17.29594702 C77.75064397 17.29162615 70.47381417 17.29892492 63.19692993 17.3106823 C54.33129427 17.32469148 45.46588002 17.32094069 36.60026979 17.29427858 C32.07504621 17.28111905 27.55019203 17.27602422 23.02497101 17.29252434 C18.8846368 17.30739297 14.74501538 17.29928742 10.6047461 17.27263658 C9.10482371 17.2670384 7.60484143 17.26992201 6.10495734 17.28201552 C4.07001276 17.29716813 2.03490015 17.27867048 0 17.25841141 C-1.13151426 17.25759965 -2.26302853 17.25678788 -3.4288311 17.25595152 C-7.41193351 16.4275039 -8.92167928 14.75343962 -11.44216919 11.6292057 C-12.06716919 8.6292057 -12.06716919 8.6292057 -11.44216919 5.6292057 C-7.85863702 1.18729434 -5.67454433 0.00407098 0 0 Z " fill="#494A52" transform="translate(75.44216918945313,95.37079429626465)"/>
<path d="M0 0 C3.55192849 1.36192678 6.2254377 2.70297309 9.125 5.1875 C9.78757812 5.73792969 10.45015625 6.28835938 11.1328125 6.85546875 C16.28661033 12.77478885 16.45688975 18.96596799 16.43359375 26.46484375 C16.4388356 27.4569838 16.44407745 28.44912384 16.44947815 29.47132874 C16.45587779 31.56152413 16.45458814 33.65175563 16.44604492 35.74194336 C16.43753523 38.92432328 16.46632566 42.10490641 16.49804688 45.28710938 C16.49965922 47.3255203 16.49908073 49.36393438 16.49609375 51.40234375 C16.50732773 52.34528793 16.51856171 53.28823212 16.53013611 54.25975037 C16.45494815 61.45523432 14.81855813 66.7835937 10.03515625 72.2421875 C9.38417969 72.78101563 8.73320312 73.31984375 8.0625 73.875 C7.41410156 74.42929687 6.76570312 74.98359375 6.09765625 75.5546875 C1.53923411 78.69549977 -2.3653236 79.2522238 -7.84944153 79.26742554 C-8.86418746 79.27422221 -8.86418746 79.27422221 -9.89943331 79.28115618 C-12.15934395 79.29378545 -14.41901313 79.29218079 -16.67895508 79.29052734 C-18.30216277 79.29651355 -19.92536762 79.30331932 -21.54856873 79.31088257 C-25.95364323 79.32854116 -30.35864002 79.33323791 -34.7637465 79.33451414 C-37.51753626 79.33593647 -40.27130631 79.34020764 -43.02509117 79.34550858 C-52.63693876 79.36400895 -62.2487309 79.37217925 -71.8605957 79.37060547 C-80.81234033 79.36940432 -89.76384375 79.39050132 -98.71552736 79.4220928 C-106.4074208 79.44826844 -114.09923553 79.45897221 -121.79117316 79.45769465 C-126.38235593 79.45718536 -130.97332435 79.46285013 -135.56446266 79.48405075 C-139.8844315 79.50345469 -144.203982 79.503543 -148.52396584 79.48901749 C-150.10575982 79.4869309 -151.68758013 79.49162138 -153.26932907 79.5037384 C-162.6341251 79.57080747 -169.87932805 79.48727873 -177.2421875 73.03515625 C-182.71793881 66.41971507 -184.07780797 62.50700441 -184 54 C-182.72778217 54.00553076 -182.72778217 54.00553076 -181.42986298 54.01117325 C-160.78106767 54.09955727 -140.13230502 54.1657257 -119.48336029 54.20724869 C-109.49762676 54.22786325 -99.5120196 54.25596276 -89.52636719 54.30175781 C-80.82163676 54.34165938 -72.11699786 54.36744085 -63.41217852 54.37635398 C-58.80412495 54.3815631 -54.1963332 54.3937834 -49.58836365 54.42292023 C-45.24797894 54.4501418 -40.90796304 54.45843142 -36.56750107 54.45243073 C-34.97763436 54.45352795 -33.38775488 54.46144175 -31.79796219 54.4768219 C-22.40415258 54.56321571 -15.14495647 54.50855942 -7.7578125 48.03515625 C-7.21898437 47.38417969 -6.68015625 46.73320312 -6.125 46.0625 C-5.29355469 45.08990234 -5.29355469 45.08990234 -4.4453125 44.09765625 C-1.00159933 39.09961848 -0.67345191 34.35410884 -0.5859375 28.41796875 C-0.56657135 27.60378983 -0.5472052 26.7896109 -0.5272522 25.95075989 C-0.46771248 23.36311148 -0.42117417 20.77541797 -0.375 18.1875 C-0.3367966 16.42771551 -0.2977435 14.66794926 -0.2578125 12.90820312 C-0.16203218 8.60561766 -0.07790715 4.3029447 0 0 Z " fill="#4C9CD6" transform="translate(336,409)"/>
<path d="M0 0 C1.80791016 0.01933594 1.80791016 0.01933594 3.65234375 0.0390625 C4.90660156 0.07257813 6.16085937 0.10609375 7.453125 0.140625 C8.72285156 0.15867187 9.99257813 0.17671875 11.30078125 0.1953125 C14.43565577 0.24245347 17.5690106 0.30824836 20.703125 0.390625 C18.23570885 2.36779034 15.7669041 4.3408937 13.2734375 6.28515625 C3.38165043 14.04373046 -3.0856144 21.33783594 -9.296875 32.390625 C-9.72226562 33.14214844 -10.14765625 33.89367187 -10.5859375 34.66796875 C-14.61300821 42.67599867 -15.63805792 52.16552401 -16.75 60.984375 C-16.88921875 62.0465625 -17.0284375 63.10875 -17.171875 64.203125 C-17.27242188 65.13769531 -17.37296875 66.07226562 -17.4765625 67.03515625 C-18.296875 69.390625 -18.296875 69.390625 -20.640625 71.21484375 C-24.31711927 72.84223313 -26.47505407 72.52301639 -30.296875 71.390625 C-33.0893619 68.5981381 -33.50975335 65.9472413 -33.671875 62.140625 C-32.92223718 40.27075639 -24.72386385 20.81062056 -10.296875 4.390625 C-9.72767334 3.69420898 -9.15847168 2.99779297 -8.57202148 2.28027344 C-5.57112742 -0.2121528 -3.86206123 -0.07286908 0 0 Z " fill="#F6B545" transform="translate(281.296875,271.609375)"/>
</svg>
